<svg width="223" height="223" viewBox="0 0 223 223" fill="none" xmlns="http://www.w3.org/2000/svg">
<path d="M25.4627 173.296C33.8943 185.498 52.4379 189.986 65.3876 181.978C66.238 181.458 66.2584 180.427 65.6232 179.723C64.8241 178.836 63.7279 178.122 62.5292 177.51C59.9885 174.531 54.5893 172.521 51.7207 171.919C43.2071 170.134 34.7344 170.501 26.1901 171.47C25.3704 171.562 25.0324 172.664 25.4524 173.286L25.4627 173.296Z" fill="#31B92E"/>
<path d="M29.4372 173.531C35.2462 174.623 40.7273 177.03 46.4952 178.336C52.3144 179.662 58.4205 180.927 64.4241 180.642C64.7417 180.631 64.8544 181.152 64.5163 181.223C59.0557 182.315 52.9701 181.162 47.5812 180.07C41.2498 178.785 34.9491 177.214 29.1094 174.378C28.5971 174.133 28.9147 173.429 29.4372 173.531Z" fill="#47762C"/>
<path d="M178.013 186.201C179.437 191.343 186.691 192.098 191.004 192.047C198.606 191.965 206.136 191.211 213.594 189.731C215.152 189.425 223.901 189.69 222.098 186.12C221.37 184.661 219.885 183.406 218.215 182.335C217.836 181.896 217.498 181.509 217.252 181.284C216.197 180.346 214.947 179.479 213.728 178.785C210.972 177.224 208.185 175.428 205.111 174.49C199.241 172.694 192.336 173 186.588 175.224C181.804 177.071 176.395 180.366 178.013 186.191V186.201Z" fill="#31B92E"/>
<path d="M178.372 184.426C182.982 180.08 190.625 179.264 196.69 179.305C203.8 179.346 209.916 181.233 216.278 184.192C216.535 184.304 216.381 184.743 216.104 184.641C210.162 182.335 204.661 180.846 198.227 180.744C191.004 180.621 185.431 182.845 178.792 185.141C178.413 185.273 178.085 184.692 178.372 184.426Z" fill="#47762C"/>
<path d="M62.7336 202.565C64.8236 214.971 82.609 224.244 94.4113 221.745C95.3334 221.551 95.5793 220.551 95.19 219.796C93.3254 216.185 89.8011 212.716 85.6723 210.002C79.6687 204.3 71.4214 200.341 63.5737 201.106C62.8361 201.178 62.6312 201.984 62.7336 202.575V202.565Z" fill="#31B92E"/>
<path d="M66.8013 203.524C76.4112 206.115 86.4308 213.134 93.1823 220.316C93.3565 220.5 93.1413 220.816 92.9159 220.663C88.9101 217.786 85.0273 214.756 80.8883 212.073C76.278 209.094 71.2477 206.993 66.5452 204.218C66.1764 203.993 66.371 203.412 66.8013 203.534V203.524Z" fill="#47762C"/>
<path d="M7.63648 150.965C8.8454 150.087 10.1875 149.608 11.673 149.343C14.7261 148.792 18.3016 150.108 20.9755 151.444C28.1573 155.025 19.2236 160.412 15.2281 161.34C10.9866 162.319 3.24135 163.36 0.731316 158.718C-1.9324 153.78 3.21062 152.046 7.63648 150.954V150.965Z" fill="#AD6317"/>
<path opacity="0.5" d="M12.4722 151.914C14.6544 150.506 17.359 152.404 19.1622 153.607C19.5515 153.862 19.3671 154.515 18.8651 154.373C17.902 154.107 16.9697 153.781 16.0169 153.475C14.9617 153.138 13.927 153.22 12.841 153.159C12.1853 153.128 11.9189 152.271 12.4722 151.914Z" fill="white"/>
<path opacity="0.5" d="M7.00144 153.954C7.84154 153.271 8.88653 153.026 9.89055 152.638C10.5155 152.393 11.1404 153.301 10.4848 153.648C9.60369 154.118 8.71237 154.607 7.76982 154.954C7.20635 155.158 6.41748 154.424 7.00144 153.954Z" fill="white"/>
<path d="M204.749 145.75C205.958 144.872 207.3 144.393 208.785 144.128C211.838 143.577 215.414 144.893 218.088 146.229C225.27 149.81 216.336 155.197 212.34 156.125C208.099 157.104 200.354 158.145 197.844 153.503C195.18 148.565 200.323 146.831 204.749 145.74V145.75Z" fill="#AD6317"/>
<path opacity="0.5" d="M209.584 146.699C211.767 145.291 214.471 147.189 216.274 148.392C216.664 148.647 216.479 149.3 215.977 149.158C215.014 148.892 214.082 148.566 213.129 148.26C212.074 147.923 211.039 148.005 209.953 147.944C209.298 147.913 209.031 147.056 209.584 146.699Z" fill="white"/>
<path opacity="0.5" d="M204.114 148.739C204.954 148.056 205.999 147.811 207.003 147.423C207.628 147.178 208.253 148.086 207.597 148.433C206.716 148.903 205.825 149.392 204.882 149.739C204.319 149.943 203.53 149.209 204.114 148.739Z" fill="white"/>
<path d="M36.4149 3.98793C56.362 -3.03088 73.0512 2.87594 78.1737 11.5678L122.576 61.9237L25.8625 112.626C25.8625 112.626 5.45437 54.1602 4.69624 48.3452C2.65747 34.634 7.62632 14.1183 36.4149 3.98793Z" fill="#A2ADA7"/>
<path d="M25.0224 112.912C24.1823 110.525 4.57325 54.2928 3.81512 48.4778C2.68816 40.9081 1.6944 15.2609 36.1178 3.15143C40.892 1.46814 45.6866 0.458163 50.3686 0.121505C65.019 -0.919074 75.2743 4.89593 78.8499 10.9864L124 62.189L25.3605 113.891L25.0224 112.912ZM77.4156 12.0168C74.0244 6.26296 64.3839 0.896838 50.5018 1.88641C45.9837 2.21286 41.3427 3.19223 36.7222 4.82451C3.56924 16.4851 4.50154 40.9795 5.57727 48.233C6.25344 53.4869 23.7008 103.7 26.3645 111.361L121.172 61.6687L77.4156 12.0168Z" fill="#8C9690"/>
<path d="M77.3637 56.0475C101.942 48.6002 120.034 54.354 126.489 62.4236H126.499L126.581 62.5358C126.899 62.9541 127.196 63.3724 127.483 63.8111L138.916 79.9911L117.617 91.6925C106.716 100.252 88.1108 110.76 70.2025 117.748L36.2094 136.427L24.489 119.89C24.0792 119.258 23.7104 118.584 23.4133 117.84C14.7358 95.6916 54.7222 62.9235 77.3535 56.0679L77.3637 56.0475Z" fill="#A2ADA7"/>
<path d="M23.7721 120.38L23.516 120.013V119.982C23.1472 119.37 22.8398 118.768 22.594 118.146C20.3605 112.463 21.0469 105.852 24.6327 98.5072C33.6074 80.1033 59.7323 60.4649 77.1079 55.2008C83.0705 53.3951 88.9409 52.2831 94.5449 51.875C111.48 50.6712 122.34 56.0679 126.981 61.6075L127.288 61.9849C127.626 62.4236 127.944 62.8725 128.21 63.2908L140.217 80.2767L118.17 92.376C106.675 101.405 87.5271 111.933 70.633 118.503L35.9433 137.56L23.7619 120.37L23.7721 120.38ZM126.735 64.2905C126.53 63.9743 126.315 63.658 126.038 63.2806L125.803 62.9847C121.582 57.7104 111.183 52.4871 94.6781 53.6603C89.2073 54.048 83.47 55.1396 77.6304 56.9147C60.6031 62.0666 35.011 81.2867 26.2412 99.2928C22.8911 106.179 22.2251 112.31 24.2639 117.513C24.5098 118.146 24.8376 118.758 25.2474 119.39L36.4862 135.264L69.8851 116.921C86.728 110.351 105.692 99.9355 117.186 90.9171L137.615 79.6952L126.735 64.3007V64.2905Z" fill="#8C9690"/>
<g style="mix-blend-mode:multiply" opacity="0.5">
<path d="M64.087 61.934C64.5582 70.33 67.9494 78.7975 73.4714 84.6227C82.4359 94.0797 93.6132 98.7623 105.528 100.038C95.2627 106.414 82.569 112.922 70.2033 117.738L36.2102 136.417L24.4898 119.88C24.08 119.247 23.7112 118.574 23.4141 117.829C16.2733 99.5988 42.0908 74.1863 64.0767 61.934H64.087Z" fill="#A2ADA7"/>
</g>
<path d="M92.7723 72.1764C71.9133 77.8282 25.9028 111.443 34.5804 133.591C43.2579 155.739 110.086 123.848 131.662 105.097C153.228 86.3467 136.672 60.2914 92.7723 72.1764Z" fill="#A2ADA7"/>
<path d="M33.7506 133.918C31.7119 128.725 32.4085 122.675 35.8099 115.962C45.7578 96.2832 76.6057 75.6349 92.5367 71.3297C98.2227 69.7893 103.683 68.8201 108.744 68.463C124.614 67.3306 136.867 72.3805 140.729 81.6233C143.946 89.3256 140.77 98.3542 132.236 105.771C117.033 118.982 77.5175 140.141 52.6118 141.906C42.4589 142.63 36.107 139.937 33.7506 133.918ZM93.008 73.0334C77.3843 77.2671 47.1511 97.487 37.3979 116.758C34.2321 123.012 33.5662 128.572 35.4103 133.275C37.4593 138.488 43.1966 140.804 52.4888 140.141C76.1754 138.457 115.875 117.646 131.079 104.434C139.008 97.538 142.01 89.2644 139.1 82.3068C135.535 73.7884 123.958 69.167 108.888 70.2381C103.929 70.5952 98.5915 71.5338 93.0182 73.0436L93.008 73.0334Z" fill="#8C9690"/>
<path d="M94.1046 75.8184C74.4341 81.1438 31.0259 112.861 39.2117 133.754C47.3975 154.647 110.435 124.562 130.782 106.873C151.129 89.1827 135.505 64.6067 94.0944 75.8184H94.1046Z" fill="#514838"/>
<path d="M38.3918 134.081C36.4657 129.163 37.1214 123.45 40.3281 117.095C49.7228 98.5276 78.8392 79.032 93.879 74.9615C99.2474 73.5027 104.401 72.5947 109.185 72.2581C124.174 71.1869 135.761 75.9613 139.408 84.7042C142.451 91.9883 139.449 100.527 131.376 107.546C117.033 120.012 79.7408 139.977 56.2284 141.65C46.6186 142.334 40.6252 139.783 38.3918 134.081ZM94.34 76.6754C79.6076 80.6643 51.1059 99.7314 41.9161 117.891C38.9348 123.777 38.3098 129 40.0412 133.428C41.9673 138.325 47.3664 140.498 56.0952 139.875C78.4397 138.284 115.865 118.656 130.198 106.199C137.666 99.711 140.484 91.9271 137.748 85.3775C134.398 77.3589 123.497 73.013 109.288 74.023C104.616 74.3596 99.5855 75.2472 94.3298 76.6652L94.34 76.6754Z" fill="#8C9690"/>
<g style="mix-blend-mode:multiply" opacity="0.4">
<path d="M92.4654 76.3184C95.4467 78.7464 96.9015 82.5925 100.836 84.2962C105.036 86.1223 108.858 84.3676 110.65 89.7745C111.654 92.7739 112.812 94.3143 115.578 95.8038C118.283 97.2728 118.683 95.7834 121.264 99.0479C122.002 99.9763 123.17 100.894 124.276 101.303C127.831 102.619 131.397 103.149 134.798 102.721C133.661 104.128 132.349 105.526 130.792 106.873C110.446 124.563 47.4077 154.648 39.2219 133.754C31.2513 113.422 72.129 82.8476 92.4757 76.3082L92.4654 76.3184Z" fill="#74411A"/>
</g>
<mask id="mask0_5266_1280" style="mask-type:luminance" maskUnits="userSpaceOnUse" x="29" y="73" width="182" height="145">
<path d="M29.949 157.576C34.0306 144.311 41.0529 140.109 39.5186 136.59C39.4104 136.427 39.3121 136.244 39.2137 136.071C39.1547 135.989 39.1252 135.918 39.0662 135.837C39.017 135.776 38.9974 135.705 38.9974 135.623C38.8203 135.277 38.6236 134.962 38.4859 134.586C30.6277 113.752 72.2992 82.1248 91.1827 76.8146C119.341 68.9002 135.057 78.8899 134.9 91.6566C135.549 92.4298 135.785 93.2944 135.333 94.2812C133.1 99.1031 176.417 111.687 179.112 135.623C179.112 190.999 233.112 171.999 199.112 207.999C159.595 224.438 52.9928 218.928 46.1279 198.074C39.2629 177.219 25.5822 171.808 29.9589 157.586L29.949 157.576Z" fill="white"/>
</mask>
<g mask="url(#mask0_5266_1280)">
<path d="M47.7761 142.722C47.2843 146.486 40.748 146.904 40.7582 150.863C40.7685 157.137 47.2946 163.686 53.1035 165.237C55.8902 165.982 57.2015 166.033 59.312 168.012C61.9552 170.471 66.8831 170.348 68.9321 173.235C70.7967 175.867 68.8399 179.275 67.0061 181.366C63.8403 184.977 65.3976 189.517 68.3174 192.782C70.8172 195.567 75.2328 195.873 78.2756 197.954C81.7692 200.341 84.9759 201.729 89.2481 200.341C90.7848 199.841 93.469 195.883 95.0468 196.965C98.3867 199.24 101.388 200.627 105.476 199.75C108.304 199.148 111.162 197.842 114.062 197.709C117.289 197.566 120.342 199.148 123.6 198.872C127.769 198.515 128.21 196.159 130.146 193.169C133.343 188.273 140.791 190.068 144.059 184.529C146.006 181.223 146.272 182.906 149.427 182.815C152.306 182.733 154.366 179.673 157.255 179.111C160.922 178.408 166.496 180.55 169.559 177.765C171.29 176.194 171.874 173.449 173.032 171.44C174.262 169.297 175.655 167.247 175.429 164.656C175.102 160.983 171.383 158.3 170.276 154.77C169.836 153.352 168.76 152.352 167.582 151.546C166.147 150.567 163.924 150.74 162.347 150.22C156.906 148.394 165.717 146.476 166.701 145.395C168.524 143.385 167.397 140.131 169.108 137.835C171.198 135.03 173.063 133.459 171.208 129.766C169.948 127.276 167.858 125.358 166.434 122.971C165.195 120.89 164.703 118.493 162.941 116.728C161.619 115.401 158.638 114.453 156.927 113.657C151.845 111.3 146.159 110.851 141.682 107.24C139.766 105.689 137.769 103.986 135.136 104.169C132.923 104.322 130.956 105.404 128.692 105.2C126.561 105.016 124.686 103.914 122.463 104.19C122.442 104.19 122.432 104.18 122.411 104.18C119.563 103.741 118.887 102.629 117.985 100.323C117.77 99.7826 117.412 99.2725 117.002 98.8542C115.332 97.1607 113.181 97.8952 111.183 97.0893C107.986 95.8039 108.037 92.5699 106.378 90.0603C104.462 87.1732 101.747 88.1117 98.8579 87.112C96.4606 86.2856 96.0405 84.0208 94.9341 82.0417C93.0695 78.7057 89.3403 79.0526 86.4307 77.3081C82.5785 75.0025 83.8899 69.8608 80.6627 66.9839C78.7571 64.3315 75.6836 62.2299 72.3028 62.6992C70.0284 63.0154 67.4773 63.7704 65.8586 65.5251C65.1312 66.3106 64.3628 67.4532 63.5125 68.1061C62.3753 68.9835 61.4123 68.3816 60.2546 68.5754C56.0234 69.2997 55.8185 76.1451 51.8126 75.6452C48.1552 75.1963 45.0509 75.7064 44.3338 79.7667C43.6269 83.7658 46.4545 86.8059 41.4037 89.2033C40.5636 89.6114 39.9284 90.8968 39.9386 91.7844C39.9694 94.039 40.9734 97.0995 39.0268 98.997C38.238 99.7724 37.4696 100.517 36.7524 101.364C35.7791 102.527 35.6869 103.884 35.7177 105.322C35.7484 106.403 36.527 107.597 37.2852 108.495C38.2175 111.423 40.1743 113.228 39.8977 116.493C39.6723 119.156 38.4941 121.594 39.1293 124.318C39.7747 127.072 41.8647 129.102 44.1084 130.694C44.2313 130.775 50.6959 134.846 48.2474 135.621C45.2046 136.58 46.6594 138.763 47.4278 140.794C47.6839 141.467 47.8581 142.11 47.7863 142.691L47.7761 142.722Z" fill="#AD6317"/>
<g style="mix-blend-mode:multiply" opacity="0.3">
<path d="M162.009 127.195C164.078 127.052 164.324 130.367 162.111 130.52C160.041 130.663 159.796 127.348 162.009 127.195Z" fill="#74411A"/>
<path d="M116.551 109.995C118.037 109.892 118.211 112.28 116.623 112.392C115.137 112.494 114.963 110.107 116.551 109.995Z" fill="#74411A"/>
<path d="M92.4957 128.001C93.1923 127.327 94.2988 127.654 94.7598 128.419C95.0467 128.878 95.1389 129.255 95.0467 129.786C94.9442 130.316 94.4115 130.663 93.889 130.633C93.4894 130.612 93.1923 130.5 92.8747 130.255C92.1883 129.715 91.758 128.715 92.4957 127.99V128.001Z" fill="#74411A"/>
<path d="M120.065 141.477C120.629 140.457 121.868 140.834 122.432 141.6C122.463 141.6 122.493 141.61 122.514 141.64C122.934 142.018 123.026 142.854 122.565 143.242C122.196 143.548 121.786 143.65 121.325 143.569C120.383 143.395 119.522 142.467 120.075 141.477H120.065Z" fill="#74411A"/>
<path d="M156.999 157.096C157.644 156.464 158.597 156.657 159.212 157.208C159.468 157.433 159.652 157.678 159.837 157.963C160.923 159.779 158.126 161.167 157.142 159.371C157.122 159.351 157.091 159.32 157.07 159.289C156.476 158.708 156.384 157.688 156.999 157.086V157.096Z" fill="#74411A"/>
<path d="M121.162 183.743C122.319 183.661 122.463 185.518 121.223 185.61C120.066 185.692 119.932 183.835 121.162 183.743Z" fill="#74411A"/>
<path d="M101.225 187.895C101.225 187.895 101.245 187.814 101.245 187.773C101.635 185.896 104.575 186.906 104.114 188.66C104.001 189.079 103.837 189.374 103.54 189.691C102.403 190.925 100.651 189.252 101.225 187.895Z" fill="#74411A"/>
<path d="M78.6653 189.17C78.6653 189.17 78.737 189.109 78.7779 189.079C78.8189 189.038 78.8497 189.028 78.8804 188.997C79.3312 187.528 81.6978 188.181 81.6978 189.66C81.6978 190.619 81.1855 191.527 80.1713 191.721C78.8906 191.956 77.4768 190.17 78.6653 189.17Z" fill="#74411A"/>
<path d="M84.3408 180.764C84.3408 180.275 84.6482 179.805 85.1502 179.713C85.1912 179.713 85.2321 179.703 85.2834 179.693C86.3386 179.52 87.3734 180.652 86.8099 181.672C86.1644 182.835 84.3408 182.131 84.3408 180.897V180.754V180.764Z" fill="#74411A"/>
<path d="M55.2649 153.648C55.2649 153.648 55.2239 153.658 55.2034 153.668C57.1192 151.975 59.6498 155.127 57.5085 156.678C56.9963 157.045 56.3713 157.127 55.7874 156.872C54.4043 156.27 53.8715 154.576 55.2649 153.638V153.648Z" fill="#74411A"/>
<path d="M59.4961 133.377C59.4961 132.428 60.2235 131.663 61.1968 131.714C62.2418 131.765 62.8667 132.591 63.0101 133.55C63.0101 133.591 63.0204 133.632 63.0306 133.663C63.3585 135.907 59.4961 135.744 59.5063 133.479V133.367L59.4961 133.377Z" fill="#74411A"/>
<path d="M67.559 155.525C68.7372 155.443 68.8704 157.321 67.6102 157.412C66.4321 157.494 66.2989 155.607 67.559 155.525Z" fill="#74411A"/>
<path d="M102.822 144.936C103.478 143.752 105.179 144.017 105.794 145.089C105.742 145.038 105.691 144.987 105.64 144.925C106.121 145.435 106.306 146.201 105.957 146.833C105.957 146.833 105.947 146.854 105.937 146.864C105.599 147.496 104.8 147.761 104.124 147.547C104.062 147.527 104.001 147.506 103.939 147.486C102.925 147.139 102.259 145.935 102.812 144.946L102.822 144.936Z" fill="#74411A"/>
<path d="M89.4021 108.107C90.9491 107.995 91.1233 110.464 89.4841 110.576C87.9473 110.688 87.7629 108.219 89.4021 108.107Z" fill="#74411A"/>
<path d="M118.436 122.002C118.57 122.043 118.703 122.094 118.836 122.135C119.768 122.441 120.188 123.828 119.195 124.348C119.072 124.41 118.959 124.471 118.846 124.532C118.037 124.95 117.053 124.41 116.807 123.583C116.521 122.594 117.432 121.665 118.436 121.992V122.002Z" fill="#74411A"/>
<path d="M142.686 109.729C142.696 109.974 142.747 110.199 142.737 110.443C142.665 111.668 141.385 112.014 140.524 111.249C140.012 110.8 139.91 110.219 139.828 109.576C139.582 107.74 142.625 107.913 142.686 109.719V109.729Z" fill="#74411A"/>
<path d="M160.82 138.61C161.384 138.06 162.5 138.07 163.013 138.723C163.73 139.641 163.986 140.457 163.238 141.436C162.756 142.059 161.742 141.783 161.271 141.334C161.066 141.13 160.933 140.916 160.82 140.681C160.349 140.059 160.205 139.202 160.82 138.61Z" fill="#74411A"/>
<path d="M164.222 169.644C164.222 169.644 164.252 169.552 164.263 169.501C164.457 168.828 164.97 168.512 165.656 168.481C165.707 168.481 165.758 168.481 165.81 168.481C167.244 168.42 168.094 170.42 167.09 171.399C165.933 172.531 163.761 171.195 164.232 169.644H164.222Z" fill="#74411A"/>
<path d="M140.678 175.52C140.637 173.205 144.11 173.552 144.151 175.694C144.151 175.745 144.151 175.796 144.151 175.847C144.151 176.602 143.67 177.296 142.901 177.449C142.881 177.449 142.86 177.459 142.84 177.459C141.846 177.673 140.586 176.816 140.668 175.724C140.678 175.653 140.668 175.582 140.668 175.5L140.678 175.52Z" fill="#74411A"/>
<path d="M100.231 162.401C102.137 162.268 102.362 165.319 100.334 165.461C98.4282 165.594 98.2028 162.544 100.231 162.401Z" fill="#74411A"/>
<path d="M112.238 132.653C112.238 132.653 112.197 132.632 112.167 132.632C112.309 132.653 112.309 132.653 112.238 132.653Z" fill="#74411A"/>
<path d="M110.958 132.826C111.101 132.714 111.265 132.642 111.46 132.612C111.46 132.612 112.085 132.653 112.249 132.653C113.191 132.795 113.98 133.51 114.011 134.489C114.042 135.55 112.904 136.56 111.839 136.091C111.204 135.815 110.784 135.53 110.456 134.907C110.026 134.111 110.261 133.346 110.968 132.836L110.958 132.826Z" fill="#74411A"/>
<path d="M62.273 125.052C62.273 125.052 62.3652 125.001 62.4165 124.981C63.9942 124.144 65.5207 126.623 64.2094 127.511C63.943 127.817 63.5537 128.011 63.1131 127.99C62.2423 127.95 61.6686 127.235 61.5661 126.419C61.5661 126.379 61.5661 126.348 61.5559 126.307C61.4944 125.797 61.8428 125.277 62.273 125.042V125.052Z" fill="#74411A"/>
<path d="M76.7186 114.575C78.0197 113.606 80.0995 114.963 79.2184 116.554C78.0709 118.625 75.0589 115.82 76.7186 114.575Z" fill="#74411A"/>
<path d="M54.5688 87.3568C55.4396 86.4998 56.628 87.0201 57.253 87.8567C57.4271 88.0811 57.4271 88.0811 57.253 87.8567C57.6423 88.2851 57.9086 89.0401 57.5398 89.5808C56.8739 90.5397 56.0031 90.5193 55.0195 90.05C54.0463 89.591 53.8209 88.1015 54.5688 87.367V87.3568Z" fill="#74411A"/>
<path d="M79.3927 80.6543C80.5197 80.4196 81.7798 81.3684 81.7593 82.5518C81.7593 82.5926 81.7593 82.6232 81.7593 82.664C81.7184 84.7656 78.4912 84.99 78.1633 82.9395L78.1428 82.8273C77.9892 81.8683 78.3068 80.8787 79.3927 80.6543Z" fill="#74411A"/>
<path d="M48.8417 113.31C48.8417 113.432 48.8417 113.555 48.8417 113.688C48.8417 114.504 48.2167 115.157 47.3766 115.116C46.4853 115.065 45.9218 114.361 45.8194 113.535C45.8091 113.412 45.7886 113.29 45.7681 113.157C45.5018 111.188 48.8212 111.362 48.8417 113.31Z" fill="#74411A"/>
<path d="M103.909 114.218C105.681 114.096 105.886 116.932 104.001 117.064C102.229 117.187 102.024 114.351 103.909 114.218Z" fill="#74411A"/>
<path d="M104.309 98.7828C105.077 98.0279 106.224 98.6196 106.542 99.4969C106.542 99.5174 106.552 99.5378 106.562 99.5582C106.931 100.558 105.917 101.221 105.046 101.037C105.015 101.037 104.995 101.027 104.974 101.017C104.011 100.823 103.612 99.4561 104.309 98.7828Z" fill="#74411A"/>
<path d="M145.688 123.92C147.46 123.798 147.665 126.634 145.78 126.766C144.008 126.889 143.803 124.053 145.688 123.92Z" fill="#74411A"/>
<path d="M159.806 118.584C161.158 118.482 161.322 120.666 159.877 120.768C158.515 120.87 158.361 118.686 159.806 118.584Z" fill="#74411A"/>
<path d="M77.5173 141.814C78.8286 141.722 78.9823 143.813 77.589 143.915C76.2776 144.007 76.1239 141.906 77.5173 141.814Z" fill="#74411A"/>
<path d="M129.132 163.85C130.823 163.727 131.018 166.441 129.214 166.563C127.524 166.686 127.329 163.972 129.132 163.85Z" fill="#74411A"/>
</g>
<path d="M54.1696 103.792C56.3518 104.016 58.3188 104.149 60.4908 103.68C62.8472 103.169 65.0498 101.904 67.232 100.935C67.4472 100.843 67.7033 101.129 67.5087 101.292C63.8819 104.485 58.6672 107.158 53.8827 104.985C53.309 104.72 53.4934 103.71 54.1696 103.782V103.792Z" fill="#683421"/>
<path d="M84.7412 95.1713C87.7122 90.2439 93.8183 89.7644 99.0228 90.8458C102.414 91.5497 104.78 92.6821 107.27 95.0489C110.241 97.8544 114.308 95.9058 116.962 98.7623C117.167 98.9868 116.993 99.3234 116.695 99.252C114.462 98.7317 111.624 99.4255 109.534 98.6093C107.711 97.9054 106.327 96.875 104.873 95.5794C99.9551 91.1926 89.9456 91.2334 85.0997 95.4672C84.9256 95.6202 84.6182 95.3958 84.7412 95.1815V95.1713Z" fill="#683421"/>
<path d="M74.4344 84.7655C76.8318 79.379 83.6447 78.0935 88.1526 81.9294C90.7343 84.1126 92.6194 85.9081 96.2154 86.3366C97.8751 86.5406 99.5348 86.8059 101.195 87.0405C103.244 87.3363 105.764 87.8056 106.655 89.8664C106.809 90.2132 106.481 90.7131 106.092 90.4173C102.26 87.4894 97.035 88.5095 92.6092 87.1833C90.1094 86.4386 88.2448 83.929 86.1343 82.5619C82.0055 79.8891 77.9485 82.2253 74.8545 85.0818C74.6393 85.2858 74.3422 85.0001 74.4447 84.7553L74.4344 84.7655Z" fill="#683421"/>
<path d="M68.5021 128.082C70.6331 122.828 75.8171 120.512 80.7757 118.503C84.3307 117.054 87.6194 115.493 90.5904 113.024C93.3668 110.719 95.2109 107.597 97.4239 104.802C97.5366 104.659 97.7415 104.863 97.6698 104.996C95.0983 110.096 92.7624 114.075 88.2238 117.095C94.9753 116.034 101.952 117.187 108.345 120.502C108.673 120.676 108.478 121.114 108.13 121.053C102.966 120.064 98.2332 118.268 92.8956 118.074C88.2546 117.901 84.259 119.788 80.0278 121.155C76.0015 122.94 72.1903 124.797 69.127 128.582C68.8299 128.949 68.3587 128.439 68.5021 128.082Z" fill="#683421"/>
<path d="M47.3668 106.832C47.5409 106.699 47.8483 106.903 47.7151 107.107C43.8629 112.667 39.724 117.33 41.0661 124.654C42.0803 130.204 49.4567 131.347 50.1329 136.876C50.1944 137.366 49.4772 137.437 49.2826 137.06C46.1886 131.112 39.683 129.684 39.2322 122.216C38.8941 116.544 43.0536 110.158 47.377 106.832H47.3668Z" fill="#683421"/>
<g style="mix-blend-mode:screen" opacity="0.3">
<path d="M131.806 116.177C135.29 115.279 140.34 115.116 144.418 116.462C147.789 116.972 151.6 119.9 152.942 122.818C153.854 124.797 153.751 126.603 152.911 128.062C152.716 129.235 151.897 130.316 150.145 131.204C145.238 133.693 137.287 130.031 132.964 127.705C128.313 125.205 124.379 118.084 131.796 116.177H131.806Z" fill="#74411A"/>
<path d="M78.8905 97.5688C78.3987 100.905 82.5582 103.547 85.5293 103.598C87.9881 103.639 89.9244 102.149 92.25 101.69C96.5222 100.854 99.4216 105.373 103.643 104.72C106.48 104.292 107.034 101.496 105.487 99.3439C102.218 94.7939 96.932 91.9476 91.2972 91.8558C87.6807 91.7946 81.3083 92.6107 79.3413 96.2221C79.1159 96.6302 78.9622 97.0689 78.8905 97.5688Z" fill="#74411A"/>
<path d="M53.667 107.383C52.5401 108.862 53.5748 110.913 55.1116 111.668C58.7178 113.432 63.2974 113.045 67.1905 113.667C69.6595 114.065 73.8805 114.667 75.4685 112.106C77.036 109.566 75.1406 105.791 72.7228 104.598C69.7108 103.108 66.2684 105.791 63.2769 106.138C60.7054 106.444 57.9597 105.761 55.4292 106.332C54.7427 106.485 54.1178 106.801 53.6875 107.373L53.667 107.383Z" fill="#74411A"/>
<path d="M89.7296 157.606C97.8437 153.464 97.9667 144.313 91 139.08C87.025 136.101 90.457 129.674 85.7136 127.184C82.7835 125.644 78.665 126.144 75.8374 127.623C70.0387 130.663 76.3189 134.315 75.9091 138.508C75.5198 142.497 71.2066 145.068 72.016 149.394C73.399 156.79 83.2343 160.922 89.7296 157.606Z" fill="#74411A"/>
<path d="M101.573 163.513C99.8008 167.002 97.4547 172.827 99.5037 176.622C101.297 179.928 105.63 179.56 108.837 179.295C110.876 179.122 113.14 178.754 115.168 179.04C118.457 179.489 121.315 181.233 124.799 180.427C128.139 179.662 131.304 177.52 133.292 174.745C135.156 172.144 135.505 167.155 139.06 166.155C142.164 165.288 145.494 167.92 148.526 168.308C151.19 168.644 155.093 168.124 156.866 165.9C160.062 161.891 156.2 157.055 153.639 153.903C150.719 150.302 148.752 147.527 151.456 143.069C153.813 139.192 150.883 135.978 146.979 135.754C139.531 135.315 133.732 142.15 127.329 144.854C123.241 146.578 118.908 146.915 114.656 148.027C107.351 149.955 104.811 156.974 101.778 163.054C101.706 163.207 101.635 163.35 101.553 163.503L101.573 163.513Z" fill="#74411A"/>
<path d="M128.405 132.428C128.579 132.357 128.763 132.275 128.938 132.224C130.085 131.745 131.273 131.479 132.278 131.581C133.527 131.51 134.767 131.724 135.751 132.5C137.441 133.826 136.57 135.703 135.484 137.09C135.074 137.621 134.562 138.141 133.988 138.661C133.978 138.682 133.968 138.692 133.947 138.712C133.353 139.396 132.636 139.947 131.857 140.396C131.437 140.773 131.007 141.1 130.577 141.334C129.675 141.834 128.784 142.038 127.944 142.038C125.547 142.691 123.088 142.538 121.233 140.865C116.756 136.856 122.893 132.744 128.405 132.438V132.428Z" fill="#74411A"/>
<path d="M87.0143 165.349C87.0758 165.319 87.127 165.278 87.1885 165.237C87.1885 165.237 87.1987 165.237 87.2089 165.227C87.2294 165.217 87.2499 165.217 87.2704 165.206C87.9364 164.829 88.6637 164.543 89.4526 164.339C92.6901 163.543 95.3538 166.278 94.6673 169.41C94.1448 171.766 92.27 174 90.1903 175.52C89.1658 176.551 87.9364 177.295 86.4611 177.469C84.7911 177.663 83.6847 177.061 83.029 176.081C82.3323 175.449 81.8303 174.592 81.7278 173.46C81.4205 170.083 84.2789 166.971 87.0143 165.349Z" fill="#74411A"/>
</g>
<path d="M93.0078 117.442C94.1245 117.595 95.2309 117.789 96.3374 118.044C98.4274 122.726 99.7797 127.899 101.788 132.581C104.072 137.896 107.166 146.139 112.012 149.567C112.156 149.669 112.186 149.863 112.125 149.996C112.238 150.189 112.289 150.444 112.187 150.669C111.162 153.015 108.119 153.434 106.347 151.75C105.404 150.842 104.892 149.434 104.472 148.129C101.122 141.701 98.1098 135.111 94.6367 128.745C92.7209 125.236 90.9178 121.767 89.5654 118.095C89.9343 117.972 90.3236 117.85 90.7129 117.748C91.4198 117.564 92.2087 117.483 93.018 117.432L93.0078 117.442Z" fill="#395F23"/>
<path d="M80.0583 147.578C78.0502 148.241 72.6716 149.914 74.4542 152.975C75.7041 155.117 78.1322 157.147 80.2529 158.381C89.7296 163.85 100.292 159.279 107.587 152.434C107.413 152.597 111.982 155.719 112.402 155.984C115.26 157.8 118.385 159.045 121.633 160.004C131.755 163.003 143.557 160.381 151.743 153.862C152.296 153.423 151.938 152.607 151.477 152.271C141.744 145.313 130.863 140.579 118.754 143.487C115.27 144.323 108.16 145.558 106.767 149.516C107.228 148.21 98.7657 146.17 97.9051 145.986C94.0223 145.18 90.0472 145.282 86.1643 145.986C84.0948 146.364 82.056 146.894 80.0685 147.557L80.0583 147.578Z" fill="#15A312"/>
<path d="M117.53 161.343C117.53 161.343 117.217 156.043 121.251 157.037C125.285 158.032 132.786 167.408 151.234 164.81C151.234 164.81 145.841 171.874 128.794 168.702C111.746 165.529 117.53 161.343 117.53 161.343Z" fill="#B7001B"/>
<path d="M151.233 164.811C132.785 167.408 125.289 158.037 121.25 157.037C117.211 156.038 117.529 161.343 117.529 161.343C117.442 161.411 117.361 161.484 117.285 161.564C119.049 163.01 122.871 164.617 130.589 166.054C139.826 167.772 146.204 166.975 150.436 165.593C150.725 165.357 150.991 165.095 151.233 164.811Z" fill="#E60026"/>
<path d="M114.624 154.458C114.624 154.458 114.306 158.603 115.923 159.984C117.539 161.366 116.977 159.003 116.977 159.003C116.977 159.003 114.711 157.092 116.056 152.603C116.305 151.811 114.624 154.458 114.624 154.458Z" fill="#327208"/>
<path d="M115.924 159.98C115.924 159.98 115.606 162.618 116.587 163.728C117.568 164.838 117.6 161.638 118.779 161.854C119.958 162.07 121.256 159.275 119.815 158.571C118.374 157.866 120.874 157.309 120.897 156.964C120.966 156.089 118.963 156.729 116.946 157.424C114.929 158.119 116.067 159.473 116.067 159.473L115.924 159.98Z" fill="#327208"/>
<path d="M130.691 202.125C130.691 202.125 130.254 194.725 135.886 196.113C141.518 197.502 151.991 210.592 177.746 206.966C177.746 206.966 170.218 216.828 146.417 212.399C122.616 207.969 130.691 202.125 130.691 202.125Z" fill="#B7001B"/>
<path d="M177.746 206.966C151.99 210.592 141.524 197.509 135.885 196.113C130.247 194.718 130.69 202.125 130.69 202.125C130.569 202.219 130.455 202.322 130.35 202.433C132.812 204.452 138.148 206.696 148.924 208.702C161.821 211.1 170.725 209.988 176.634 208.059C177.036 207.729 177.408 207.363 177.746 206.966Z" fill="#D60013"/>
<path d="M126.634 192.513C126.634 192.513 126.19 198.299 128.447 200.228C130.704 202.157 129.919 198.858 129.919 198.858C129.919 198.858 126.756 196.19 128.633 189.922C128.981 188.816 126.634 192.513 126.634 192.513Z" fill="#327208"/>
<path d="M128.449 200.221C128.449 200.221 128.005 203.905 129.375 205.455C130.744 207.004 130.789 202.536 132.435 202.838C134.081 203.14 135.894 199.238 133.882 198.254C131.869 197.27 135.36 196.493 135.393 196.01C135.489 194.789 132.692 195.682 129.876 196.653C127.06 197.624 128.648 199.514 128.648 199.514L128.449 200.221Z" fill="#327208"/>
<path d="M141.861 193.747C141.861 193.747 141.423 186.347 147.055 187.736C152.687 189.125 163.161 202.215 188.916 198.589C188.916 198.589 181.388 208.451 157.587 204.021C133.786 199.592 141.861 193.747 141.861 193.747Z" fill="#B7001B"/>
<path d="M188.915 198.589C163.159 202.215 152.693 189.132 147.054 187.736C141.416 186.341 141.859 193.748 141.859 193.748C141.738 193.842 141.624 193.945 141.519 194.056C143.981 196.075 149.317 198.319 160.093 200.325C172.99 202.723 181.894 201.611 187.803 199.682C188.205 199.351 188.577 198.986 188.915 198.589Z" fill="#D60013"/>
<path d="M137.803 184.136C137.803 184.136 137.359 189.922 139.616 191.851C141.873 193.779 141.088 190.481 141.088 190.481C141.088 190.481 137.925 187.813 139.802 181.545C140.15 180.439 137.803 184.136 137.803 184.136Z" fill="#327208"/>
<path d="M139.619 191.845C139.619 191.845 139.175 195.528 140.545 197.078C141.914 198.627 141.959 194.159 143.605 194.461C145.251 194.763 147.064 190.861 145.052 189.877C143.039 188.893 146.53 188.116 146.562 187.633C146.659 186.412 143.862 187.305 141.046 188.276C138.23 189.247 139.818 191.137 139.818 191.137L139.619 191.845Z" fill="#327208"/>
<path d="M158.615 182.578C158.615 182.578 158.177 175.178 163.809 176.567C169.441 177.956 179.915 191.046 205.67 187.419C205.67 187.419 198.141 197.282 174.34 192.852C150.539 188.422 158.615 182.578 158.615 182.578Z" fill="#B7001B"/>
<path d="M205.669 187.42C179.913 191.046 169.446 177.962 163.808 176.567C158.17 175.172 158.613 182.579 158.613 182.579C158.492 182.673 158.378 182.776 158.272 182.887C160.735 184.906 166.071 187.15 176.847 189.156C189.744 191.554 198.648 190.441 204.557 188.513C204.959 188.182 205.331 187.816 205.669 187.42Z" fill="#D60013"/>
<path d="M154.558 172.966C154.558 172.966 154.114 178.753 156.371 180.681C158.628 182.61 157.843 179.312 157.843 179.312C157.843 179.312 154.68 176.644 156.557 170.375C156.904 169.27 154.558 172.966 154.558 172.966Z" fill="#327208"/>
<path d="M156.373 180.675C156.373 180.675 155.929 184.359 157.299 185.909C158.668 187.458 158.713 182.99 160.359 183.292C162.005 183.594 163.818 179.692 161.806 178.708C159.793 177.724 163.284 176.946 163.316 176.464C163.413 175.243 160.616 176.136 157.8 177.107C154.984 178.078 156.572 179.968 156.572 179.968L156.373 180.675Z" fill="#327208"/>
<path d="M111.48 148.312C122.954 144.079 135.996 149.016 146.641 153.301C147.009 153.444 146.917 153.985 146.507 153.893C140.729 152.689 135.258 150.363 129.398 149.455C123.538 148.537 117.914 148.894 112.064 149.639C111.367 149.73 110.67 148.608 111.49 148.302L111.48 148.312Z" fill="#47762C"/>
<path d="M76.9641 151.414C86.3895 156.137 97.1263 150.149 106.777 150.373C107.556 150.393 107.832 151.607 107.003 151.801C100.62 153.291 94.3602 154.739 87.7828 154.811C84.0946 154.852 79.2282 154.872 76.5133 152.005C76.1957 151.669 76.5543 151.22 76.9641 151.424V151.414Z" fill="#47762C"/>
<path d="M100.158 179.305C100.619 181.335 101.029 183.468 101.931 185.355C102.761 187.089 104.226 188.701 104.82 190.527C105.045 191.201 105.875 191.547 106.439 191.037C110.219 187.681 114.676 185.518 117.196 180.948C119.398 176.949 121.499 172.042 120.843 167.349C120.228 162.962 118.456 158.637 115.71 155.137C113.846 152.76 111.028 149.159 107.883 148.221C107.852 148.19 107.832 148.159 107.791 148.129C107.74 148.088 107.678 148.057 107.627 148.016C107.309 147.812 106.818 147.772 106.49 147.955C100.845 151.25 99.1748 159.922 98.7957 165.87C98.5088 170.501 99.144 174.796 100.158 179.295V179.305Z" fill="#31B92E"/>
<path d="M111.162 171.827C111.828 167.696 111.51 163.441 110.773 159.351C110.127 155.76 108.345 152.607 107.423 149.128C107.341 148.802 107.781 148.669 107.925 148.945C115.281 162.074 113.221 176.714 106.378 189.578C106.224 189.864 105.722 189.629 105.835 189.334C107.904 183.549 110.189 177.938 111.162 171.838V171.827Z" fill="#47762C"/>
<path d="M125.249 171.409C127.124 176.755 132.943 181.489 137.697 184.294C143.393 187.661 149.396 188.681 155.861 187.222C156.312 187.12 156.65 186.528 156.537 186.09C155.175 180.785 149.427 175.908 144.93 173.154C142.573 171.715 140.063 170.828 137.492 170.338C133.599 169.073 129.47 168.798 125.874 169.961C125.239 170.165 125.064 170.848 125.259 171.419L125.249 171.409Z" fill="#53A930"/>
<path d="M127.974 170.664C137.84 172.276 148.219 177.806 154.909 185.253C155.124 185.498 154.765 185.794 154.53 185.6C146.18 179.02 138.148 174.48 127.892 171.481C127.401 171.327 127.401 170.562 127.974 170.664Z" fill="#47762C"/>
</g>
<path opacity="0.5" d="M76.3293 13.1695C85.8469 23.5651 93.3873 36.3785 100.282 48.59C100.456 48.9164 100.026 49.1001 99.8212 48.8348C91.4305 37.4293 82.9783 25.8197 75.1614 14.0264C74.6696 13.2817 75.7453 12.537 76.3293 13.1797V13.1695Z" fill="white"/>
<path opacity="0.5" d="M103.939 53.5276C107.187 57.8124 109.349 62.7704 112.873 66.8919C113.109 67.1776 112.76 67.5244 112.484 67.2694C108.509 63.607 105.066 59.0366 102.843 54.0989C102.495 53.3032 103.437 52.8849 103.929 53.5276H103.939Z" fill="white"/>
<path opacity="0.5" d="M107.321 187.793C109.831 182.427 112.423 177.265 113.488 171.378C114.728 164.533 112.525 157.698 109.933 151.465C109.831 151.23 110.21 151.118 110.322 151.322C116.674 163.911 114.738 176.255 107.976 188.181C107.741 188.599 107.136 188.181 107.321 187.783V187.793Z" fill="white"/>
<path opacity="0.5" d="M79.0646 150.954C85.7136 151.638 91.8197 151.495 98.4073 150.21C98.6326 150.169 98.7453 150.495 98.5097 150.567C92.3217 152.679 85.3756 153.454 78.9724 151.811C78.5114 151.689 78.5319 150.893 79.0544 150.954H79.0646Z" fill="white"/>
<path opacity="0.5" d="M109.995 147.914C121.94 143.089 133.937 145.017 144.92 150.975C145.176 151.118 145.033 151.577 144.736 151.454C139.316 149.179 134.132 147.261 128.231 146.649C122.555 146.068 115.773 147.017 110.251 148.506C109.933 148.588 109.667 148.057 109.995 147.925V147.914Z" fill="white"/>
<path opacity="0.5" d="M128.446 171.633C138.814 172.633 146.641 179.05 154.222 185.457C154.345 185.559 154.202 185.763 154.058 185.671C150.216 183.059 146.692 180.111 142.686 177.714C138.189 175.01 133.292 173.878 128.374 172.307C128.026 172.195 128.015 171.593 128.435 171.633H128.446Z" fill="white"/>
<path opacity="0.5" d="M175.676 183.396C186.986 175.969 204.229 176.877 215.14 184.681C215.314 184.814 215.191 185.069 214.986 184.967C208.88 181.835 202.589 180.223 195.725 179.958C192.457 179.836 189.179 180.101 185.972 180.733C182.499 181.417 179.446 183.314 176.106 184.396C175.522 184.59 175.194 183.712 175.676 183.396Z" fill="white"/>
<path opacity="0.5" d="M27.9316 173.429C38.525 177.459 51.7411 183.61 63.3487 181.172C63.5434 181.131 63.6356 181.427 63.4409 181.488C58.216 183.202 52.1816 182.039 46.8952 181.07C40.2666 179.866 33.3512 177.918 27.573 174.357C27.0915 174.061 27.3271 173.194 27.9316 173.419V173.429Z" fill="white"/>
<path opacity="0.5" d="M64.1381 202.28C74.7212 206.391 83.6037 212.685 92.1173 219.98C92.271 220.112 92.0764 220.377 91.9124 220.255C87.63 217.082 83.5525 213.808 79.0139 210.992C74.1578 207.972 68.8201 205.84 63.8922 202.953C63.5336 202.749 63.7181 202.127 64.1484 202.28H64.1381Z" fill="white"/>
</svg>
