<svg width="120" height="120" viewBox="0 0 120 120" fill="none" xmlns="http://www.w3.org/2000/svg">
<circle cx="60.0002" cy="60" r="52.0378" fill="#FFDAD6"/>
<circle cx="59.9997" cy="60.0001" r="42.057" fill="#8F0004"/>
<path d="M60.3052 71.3305L59.724 71.3626C58.6119 71.4948 57.5869 72.0304 56.8432 72.8678C56.0995 73.7053 55.6887 74.7864 55.6887 75.9063C55.6887 77.0263 56.0995 78.1074 56.8432 78.9448C57.5869 79.7823 58.6119 80.3178 59.724 80.4501L60.2594 80.4822L60.8405 80.4501C61.9527 80.3178 62.9777 79.7823 63.7214 78.9448C64.4651 78.1074 64.8759 77.0263 64.8759 75.9063C64.8759 74.7864 64.4651 73.7053 63.7214 72.8678C62.9777 72.0304 61.9527 71.4948 60.8405 71.3626L60.3052 71.3305ZM60.2594 39.2998C59.1386 39.3 58.0569 39.7114 57.2194 40.4562C56.3818 41.2009 55.8468 42.2272 55.7156 43.3403L55.6836 43.8756V62.1789L55.7156 62.7143C55.8479 63.8264 56.3835 64.8514 57.2209 65.5951C58.0583 66.3388 59.1394 66.7496 60.2594 66.7496C61.3794 66.7496 62.4605 66.3388 63.2979 65.5951C64.1353 64.8514 64.6709 63.8264 64.8032 62.7143L64.8352 62.1789V43.8756L64.8032 43.3403C64.6721 42.2272 64.137 41.2009 63.2995 40.4562C62.4619 39.7114 61.3802 39.3 60.2594 39.2998Z" fill="#FFDAD6"/>
<path d="M60.2594 39.2998C59.1386 39.3 58.0569 39.7114 57.2194 40.4562C56.3818 41.2009 55.8468 42.2272 55.7156 43.3403L55.6836 43.8756V62.1789L55.7156 62.7143C55.8479 63.8264 56.3835 64.8514 57.2209 65.5951C58.0583 66.3388 59.1394 66.7496 60.2594 66.7496C61.3794 66.7496 62.4605 66.3388 63.2979 65.5951C64.1353 64.8514 64.6709 63.8264 64.8032 62.7143L64.8352 62.1789V43.8756L64.8032 43.3403C64.6721 42.2272 64.137 41.2009 63.2995 40.4562C62.4619 39.7114 61.3802 39.3 60.2594 39.2998Z" fill="#FFDAD6"/>
<path d="M60.3052 71.3305L59.724 71.3626C58.6119 71.4948 57.5869 72.0304 56.8432 72.8678C56.0995 73.7053 55.6887 74.7864 55.6887 75.9063C55.6887 77.0263 56.0995 78.1074 56.8432 78.9448C57.5869 79.7823 58.6119 80.3178 59.724 80.4501L60.2594 80.4822L60.8405 80.4501C61.9527 80.3178 62.9777 79.7823 63.7214 78.9448C64.4651 78.1074 64.8759 77.0263 64.8759 75.9063C64.8759 74.7864 64.4651 73.7053 63.7214 72.8678C62.9777 72.0304 61.9527 71.4948 60.8405 71.3626L60.3052 71.3305Z" fill="#FFDAD6"/>
</svg>
