<svg width="154" height="136" viewBox="0 0 154 136" fill="none" xmlns="http://www.w3.org/2000/svg">
<path d="M15.8639 46.1914H3.24072V52.6203H15.8639V46.1914Z" fill="#31B92E"/>
<path d="M15.8648 46.1914H9.55322V52.6203H15.8365V46.1914H15.8648Z" fill="#31B92E"/>
<path d="M127.945 9.26087C129.53 9.26087 130.832 7.95811 130.832 6.37214C130.832 4.78616 129.53 3.4834 127.945 3.4834C126.36 3.4834 125.058 4.78616 125.058 6.37214C125.058 7.95811 126.332 9.26087 127.945 9.26087Z" fill="#00FFDE"/>
<path d="M125.058 3.5118C126.02 3.5118 126.813 2.71881 126.813 1.7559C126.813 0.792989 126.02 0 125.058 0C124.096 0 123.303 0.792989 123.303 1.7559C123.303 2.71881 124.096 3.5118 125.058 3.5118Z" fill="#00FFDE"/>
<path d="M103.633 37.3838V65.4215H77.8767V108.979H150.333V65.4215V37.3838H103.633Z" fill="#008E62"/>
<path d="M126.983 37.3838V65.4215H114.105V135.646H150.333V65.4215V37.3838H126.983Z" fill="#FFBA00"/>
<path d="M136.238 47.5791H130.832V55.2541H136.238V47.5791Z" fill="#022D2B"/>
<path d="M146.512 47.5791H141.106V55.2541H146.512V47.5791Z" fill="#022D2B"/>
<path d="M153.333 31.4927H100.661V37.3551H153.333V31.4927Z" fill="#022D2B"/>
<path d="M128.863 123.921C128.863 121.527 128.163 119.515 127.243 118.214C126.312 116.897 125.442 116.629 124.972 116.629H122.652V107.876H124.972C129.06 107.876 132.322 110.242 134.384 113.159C136.457 116.092 137.611 119.914 137.611 123.921V135.617H128.863V123.921Z" fill="#022D2B"/>
<path d="M143.468 123.921C143.468 121.527 142.767 119.515 141.847 118.214C140.917 116.897 140.046 116.629 139.577 116.629H137.256V107.876H139.577C143.664 107.876 146.926 110.242 148.988 113.159C151.062 116.092 152.215 119.914 152.215 123.921V135.617H143.468V123.921Z" fill="#022D2B"/>
<path d="M134.342 31.4927H120.473L123.218 6.37207H131.624L134.342 31.4927Z" fill="#022220"/>
<path d="M19.3455 51.7842C19.6193 51.7842 19.8412 52.0062 19.8412 52.2802C19.8412 52.3378 19.831 52.3929 19.8129 52.4443V135.504C19.8129 135.778 19.591 136 19.3172 136H0.495697C0.221937 136 5.02441e-05 135.778 0 135.504V52.2802C0 52.0062 0.221906 51.7842 0.495697 51.7842H19.3455ZM0.991395 135.008H18.8215V52.7762H0.991395V135.008Z" fill="#022D2B"/>
<path d="M19.0121 51.9464C19.1964 51.7621 19.4952 51.7621 19.6795 51.9464C19.8638 52.1309 19.8638 52.43 19.6795 52.6145L10.2545 62.0452C10.166 62.1338 10.046 62.1836 9.92088 62.1836C9.7957 62.1836 9.67558 62.1338 9.58707 62.0452L0.162044 52.6145C-0.0222764 52.43 -0.0222764 52.1309 0.162044 51.9464C0.346365 51.762 0.64535 51.762 0.82967 51.9464L9.92065 61.0434L19.0121 51.9464Z" fill="#022D2B"/>
<path d="M9.9207 61.2109C10.0458 61.211 10.1658 61.2606 10.2543 61.3491L19.6793 70.78C19.8636 70.9645 19.8636 71.2634 19.6793 71.4478L10.2543 80.8788C10.1658 80.9673 10.0458 81.0172 9.9207 81.0172C9.79552 81.0172 9.6754 80.9674 9.58688 80.8788L0.161861 71.4478C0.0734128 71.3593 0.0238281 71.2392 0.0238037 71.1141C0.0238038 70.9888 0.0733757 70.8686 0.161861 70.78L9.58688 61.3491L9.62146 61.3178C9.70545 61.2489 9.81116 61.2109 9.9207 61.2109ZM1.16307 71.1138L9.92046 79.877L18.6781 71.1138L9.92046 62.3509L1.16307 71.1138Z" fill="#022D2B"/>
<path d="M9.92094 80.0728C10.0461 80.0728 10.166 80.1224 10.2545 80.2109L19.6795 89.6418C19.8638 89.8263 19.8638 90.1252 19.6795 90.3097L10.2545 99.7406C10.166 99.8291 10.0461 99.879 9.92094 99.879C9.79577 99.879 9.67564 99.8292 9.58713 99.7406L0.162105 90.3097C0.073657 90.2211 0.0240722 90.1011 0.0240479 89.9759C0.0240479 89.8506 0.0736198 89.7304 0.162105 89.6418L9.58713 80.2109L9.6217 80.1796C9.70569 80.1107 9.8114 80.0728 9.92094 80.0728ZM1.16331 89.9756L9.92071 98.7388L18.6783 89.9756L9.92071 81.2127L1.16331 89.9756Z" fill="#022D2B"/>
<path d="M9.92094 98.6665C10.0461 98.6665 10.166 98.7161 10.2545 98.8046L19.6795 108.236C19.8638 108.42 19.8638 108.719 19.6795 108.903L10.2545 118.334C10.166 118.423 10.0461 118.473 9.92094 118.473C9.79577 118.473 9.67564 118.423 9.58713 118.334L0.162105 108.903C0.073657 108.815 0.0240722 108.695 0.0240479 108.57C0.0240479 108.444 0.0736198 108.324 0.162105 108.236L9.58713 98.8046L9.6217 98.7733C9.70569 98.7045 9.8114 98.6665 9.92094 98.6665ZM1.16331 108.569L9.92071 117.333L18.6783 108.569L9.92071 99.8065L1.16331 108.569Z" fill="#022D2B"/>
<path d="M9.92094 116C10.0461 116 10.166 116.05 10.2545 116.138L19.6795 125.569C19.8638 125.754 19.8638 126.052 19.6795 126.237L10.2545 135.668C10.166 135.756 10.0461 135.806 9.92094 135.806C9.79577 135.806 9.67564 135.756 9.58713 135.668L0.162105 126.237C0.073657 126.148 0.0240722 126.028 0.0240479 125.903C0.0240479 125.778 0.0736198 125.658 0.162105 125.569L9.58713 116.138L9.6217 116.107C9.70569 116.038 9.8114 116 9.92094 116ZM1.16331 125.903L9.92071 134.666L18.6783 125.903L9.92071 117.14L1.16331 125.903Z" fill="#022D2B"/>
<path d="M10.0343 98.9058C10.1595 98.9058 10.2794 98.9554 10.3679 99.0439L19.7929 108.475C19.9772 108.659 19.9772 108.958 19.7929 109.143C19.6086 109.327 19.3099 109.327 19.1256 109.143L10.0341 100.046L0.943137 109.143C0.758817 109.327 0.459832 109.327 0.275511 109.143C0.0912767 108.958 0.0912601 108.659 0.275511 108.475L9.70053 99.0439L9.73511 99.0126C9.81909 98.9437 9.92482 98.9058 10.0343 98.9058Z" fill="#022D2B"/>
<path d="M19.3172 70.5C19.5779 70.5 19.7893 70.7113 19.7893 70.9722C19.7893 71.233 19.5779 71.4443 19.3172 71.4443H0.495674C0.235005 71.4443 0.0238037 71.233 0.0238037 70.9722C0.0238037 70.7113 0.235005 70.5 0.495674 70.5H19.3172Z" fill="#022D2B"/>
<path d="M19.3175 89.3618C19.5781 89.3618 19.7896 89.5732 19.7896 89.834C19.7896 90.0948 19.5781 90.3062 19.3175 90.3062H0.495918C0.235249 90.3062 0.0240479 90.0948 0.0240479 89.834C0.0240479 89.5732 0.235249 89.3618 0.495918 89.3618H19.3175Z" fill="#022D2B"/>
<path d="M19.3175 107.956C19.5781 107.956 19.7896 108.167 19.7896 108.428C19.7896 108.689 19.5781 108.9 19.3175 108.9H0.495918C0.235249 108.9 0.0240479 108.689 0.0240479 108.428C0.0240479 108.167 0.235249 107.956 0.495918 107.956H19.3175Z" fill="#022D2B"/>
<path d="M19.3175 125.289C19.5781 125.289 19.7896 125.5 19.7896 125.761C19.7896 126.022 19.5781 126.233 19.3175 126.233H0.495918C0.235249 126.233 0.0240479 126.022 0.0240479 125.761C0.0240479 125.5 0.235249 125.289 0.495918 125.289H19.3175Z" fill="#022D2B"/>
<path d="M19.3175 108C19.5781 108 19.7896 108.211 19.7896 108.472C19.7896 108.733 19.5781 108.944 19.3175 108.944H0.495918C0.235249 108.944 0.0240479 108.733 0.0240479 108.472C0.0240479 108.211 0.235249 108 0.495918 108H19.3175Z" fill="#022D2B"/>
<path d="M114.925 52.6484V135.844H62.2251V64.5715L114.925 52.6484Z" fill="#31B92E"/>
<path d="M62.2536 64.5718H9.55322V135.844H62.2536V64.5718Z" fill="#008E62"/>
<path d="M25.0058 84.4528H17.9301C17.7319 84.4528 17.5338 84.2829 17.5338 84.0563V76.9761C17.5338 76.7778 17.7036 76.5796 17.9301 76.5796H25.0058C25.204 76.5796 25.4021 76.7495 25.4021 76.9761V84.0563C25.4021 84.2829 25.204 84.4528 25.0058 84.4528Z" fill="#022D2B"/>
<path d="M39.8657 84.4528H32.7899C32.5918 84.4528 32.3937 84.2829 32.3937 84.0563V76.9761C32.3937 76.7778 32.5635 76.5796 32.7899 76.5796H39.8657C40.0638 76.5796 40.262 76.7495 40.262 76.9761V84.0563C40.262 84.2829 40.0921 84.4528 39.8657 84.4528Z" fill="#022D2B"/>
<path d="M54.7241 84.4528H47.6483C47.4502 84.4528 47.2521 84.2829 47.2521 84.0563V76.9761C47.2521 76.7778 47.4219 76.5796 47.6483 76.5796H54.7241C54.9222 76.5796 55.1204 76.7495 55.1204 76.9761V84.0563C55.1204 84.2829 54.9788 84.4528 54.7241 84.4528Z" fill="#022D2B"/>
<path d="M25.0058 96.4045H17.9301C17.7319 96.4045 17.5338 96.2345 17.5338 96.008V88.9277C17.5338 88.7295 17.7036 88.5312 17.9301 88.5312H25.0058C25.204 88.5312 25.4021 88.7012 25.4021 88.9277V96.008C25.4021 96.2062 25.204 96.4045 25.0058 96.4045Z" fill="#022D2B"/>
<path d="M39.8657 96.4045H32.7899C32.5918 96.4045 32.3937 96.2345 32.3937 96.008V88.9277C32.3937 88.7295 32.5635 88.5312 32.7899 88.5312H39.8657C40.0638 88.5312 40.262 88.7012 40.262 88.9277V96.008C40.262 96.2062 40.0921 96.4045 39.8657 96.4045Z" fill="#022D2B"/>
<path d="M54.7241 96.4045H47.6483C47.4502 96.4045 47.2521 96.2345 47.2521 96.008V88.9277C47.2521 88.7295 47.4219 88.5312 47.6483 88.5312H54.7241C54.9222 88.5312 55.1204 88.7012 55.1204 88.9277V96.008C55.1204 96.2062 54.9788 96.4045 54.7241 96.4045Z" fill="#022D2B"/>
<path d="M104.397 109.177H73.3763V80.6299C73.3763 80.0918 73.8009 79.667 74.3387 79.667H103.434C103.972 79.667 104.397 80.0918 104.397 80.6299V109.177Z" fill="#022220"/>
<path d="M114.926 52.6484L62.2253 64.5715H9.55322L62.0272 52.6484H114.926Z" fill="#FFBA00"/>
<path d="M89.9619 79.667H88.8574V109.177H89.9619V79.667Z" fill="#0C3735"/>
</svg>
