<svg width="16" height="18" viewBox="0 0 16 18" fill="none" xmlns="http://www.w3.org/2000/svg">
<path d="M15.7388 14.8302C15.1724 14.2664 14.4481 13.8879 13.6618 13.745C12.8756 13.602 12.0644 13.7013 11.3358 14.0297C10.3649 14.4611 9.29029 14.6037 8.24044 14.4406V5.68009C7.55325 5.68009 6.8942 5.95307 6.40828 6.43899C5.92236 6.92491 5.64938 7.58395 5.64938 8.27115V13.2932C4.75941 12.581 4.11257 11.6101 3.79822 10.5145C3.48387 9.41885 3.51752 8.25266 3.89453 7.177C4.27154 6.10134 4.97329 5.16931 5.90284 4.50967C6.83239 3.85003 7.94385 3.49535 9.08367 3.49463C9.85513 3.49292 10.6182 3.65481 11.3225 3.96961C12.0511 4.29797 12.8622 4.39724 13.6485 4.25428C14.4348 4.11133 15.1591 3.73288 15.7254 3.16908L15.3225 2.76614C13.7899 1.22949 11.7439 0.31289 9.57703 0.192233C7.41013 0.0715761 5.275 0.75536 3.58133 2.11237C2.54666 2.9365 1.71095 3.98313 1.13627 5.17454C0.561581 6.36595 0.262688 7.67153 0.261784 8.9943C0.257292 10.1547 0.483313 11.3044 0.92673 12.3768C1.37015 13.4492 2.02213 14.4228 2.84484 15.2411C3.07694 15.4717 3.32099 15.6899 3.57599 15.8949C5.27156 17.2474 7.40572 17.9283 9.57129 17.8077C11.7369 17.6872 13.7822 16.7735 15.3172 15.2411L15.7388 14.8302Z" fill="white"/>
<path d="M9.021 10.4032H10.2111C10.5513 10.4036 10.8881 10.3369 11.2025 10.207C11.5168 10.077 11.8025 9.88644 12.0431 9.64605C12.2838 9.40566 12.4746 9.1202 12.6049 8.80599C12.7351 8.49177 12.8022 8.15497 12.8022 7.81484H11.6121C11.2719 7.81448 10.935 7.88118 10.6207 8.0111C10.3064 8.14102 10.0207 8.33162 9.78006 8.57201C9.53942 8.8124 9.34852 9.09786 9.21828 9.41208C9.08803 9.72629 9.021 10.0631 9.021 10.4032Z" fill="white"/>
</svg>
