<svg width="160" height="160" viewBox="0 0 160 160" fill="none" xmlns="http://www.w3.org/2000/svg">
<path d="M141.693 103.522C141.693 105.954 139.722 107.925 137.29 107.925H72.7037C70.2721 107.925 68.3008 105.954 68.3008 103.522V25.7364C68.3008 23.3048 70.272 21.3335 72.7037 21.3335H127.017L141.693 36.01V103.522Z" fill="#E5EFEE"/>
<path fill-rule="evenodd" clip-rule="evenodd" d="M132.575 31.2843C132.575 32.2048 131.829 32.951 130.909 32.951H75.9596C75.0392 32.951 74.293 32.2048 74.293 31.2843C74.293 30.3639 75.0392 29.6177 75.9596 29.6177H130.909C131.829 29.6177 132.575 30.3639 132.575 31.2843Z" fill="#1C4A45"/>
<path fill-rule="evenodd" clip-rule="evenodd" d="M132.575 37.9511C132.575 38.8716 131.829 39.6178 130.909 39.6178H75.9596C75.0392 39.6178 74.293 38.8716 74.293 37.9511C74.293 37.0306 75.0392 36.2844 75.9596 36.2844H130.909C131.829 36.2844 132.575 37.0306 132.575 37.9511Z" fill="#1C4A45"/>
<path fill-rule="evenodd" clip-rule="evenodd" d="M105.687 44.6178C105.687 45.5383 104.94 46.2845 104.02 46.2845H75.9596C75.0392 46.2845 74.293 45.5383 74.293 44.6178C74.293 43.6974 75.0392 42.9512 75.9596 42.9512H104.02C104.94 42.9512 105.687 43.6974 105.687 44.6178Z" fill="#1C4A45"/>
<path fill-rule="evenodd" clip-rule="evenodd" d="M74.2932 54.0811C74.2932 53.1607 75.0394 52.4145 75.9599 52.4145L130.909 52.4145C131.829 52.4145 132.576 53.1607 132.576 54.0811C132.576 55.0016 131.829 55.7478 130.909 55.7478L75.9599 55.7478C75.0394 55.7478 74.2932 55.0016 74.2932 54.0811Z" fill="#1C4A45"/>
<path d="M126.967 31.607V21.3335L141.644 36.01H131.37C128.939 36.01 126.967 34.0387 126.967 31.607Z" fill="#BCCCCA"/>
<path opacity="0.2" d="M55.2094 69.6496C60.6245 71.7541 66.5419 72.2056 72.2136 70.947C77.8852 69.6884 83.0563 66.7762 87.0728 62.5788C91.0894 58.3813 93.771 53.087 94.7787 47.3655C95.7864 41.6439 95.0748 35.752 92.7339 30.4349C90.393 25.1178 86.528 20.6142 81.6275 17.4937C76.7271 14.3732 71.0114 12.7759 65.2032 12.9039C59.395 13.0318 53.7552 14.8791 48.9969 18.2124C44.2387 21.5456 40.5757 26.2149 38.4711 31.63C37.0738 35.2254 36.3983 39.0609 36.4832 42.9174C36.5681 46.7739 37.4118 50.5759 38.9661 54.1064C40.5204 57.6368 42.7549 60.8266 45.5419 63.4935C48.3289 66.1604 51.614 68.2522 55.2094 69.6496Z" fill="#31BC2E"/>
<path opacity="0.3" d="M91.254 29.0871L56.5994 70.1684C52.2851 68.9015 48.3193 66.661 45.0075 63.6196L82.8255 18.7667C86.3889 21.5154 89.2727 25.0464 91.254 29.0871Z" fill="white"/>
<path opacity="0.3" fill-rule="evenodd" clip-rule="evenodd" d="M43.8937 62.3313C42.9446 61.6557 42.0341 60.9226 41.1678 60.1349L78.7609 15.0934C79.8831 15.9501 80.9388 16.8842 81.9212 17.8872L43.8937 62.3313Z" fill="white"/>
<path d="M85.6362 66.4546C80.8534 70.3691 75.0172 72.7774 68.8657 73.3749C62.7142 73.9724 56.5237 72.7323 51.077 69.8114C45.6303 66.8905 41.172 62.4201 38.2661 56.9654C35.3602 51.5107 34.1371 45.3168 34.7515 39.1669C35.3659 33.0171 37.7901 27.1875 41.7177 22.4155C45.6453 17.6435 50.8998 14.1434 56.8167 12.3577C62.7336 10.5721 69.0471 10.5812 74.9589 12.3838C80.8706 14.1865 86.115 17.7017 90.0288 22.485C92.6279 25.6604 94.576 29.3166 95.7619 33.2449C96.9477 37.1732 97.3482 41.2966 96.9403 45.3797C96.5323 49.4628 95.3241 53.4255 93.3845 57.0416C91.4449 60.6577 88.812 63.8562 85.6362 66.4546ZM84.0252 64.4785C88.4177 60.8854 91.6461 56.0704 93.302 50.6424C94.958 45.2145 94.9671 39.4173 93.3282 33.9842C91.6893 28.5511 88.4761 23.726 84.0949 20.1191C79.7137 16.5122 74.3612 14.2855 68.7145 13.7207C63.0677 13.1559 57.3803 14.2782 52.3714 16.9459C47.3626 19.6135 43.2573 23.7066 40.5748 28.7075C37.8922 33.7083 36.7529 39.3924 37.3009 45.0408C37.8489 50.6892 40.0596 56.0483 43.6535 60.4402C48.471 66.328 55.4297 70.0615 62.9994 70.8198C70.5691 71.5781 78.1301 69.299 84.0198 64.4838L84.0252 64.4785Z" fill="#31BC2E"/>
<path fill-rule="evenodd" clip-rule="evenodd" d="M75.5056 10.5927C69.2397 8.68203 62.5479 8.6724 56.2765 10.565C50.0051 12.4576 44.4357 16.1675 40.2728 21.2254C36.1099 26.2833 33.5404 32.4622 32.8892 38.9805C32.238 45.4988 33.5344 52.0638 36.6144 57.8454C39.6944 63.6269 44.4198 68.3652 50.1928 71.4611C55.9658 74.557 62.5273 75.8714 69.0474 75.2381C75.5674 74.6048 81.7534 72.0521 86.8226 67.9032C90.1887 65.1491 92.9793 61.7589 95.0351 57.9262C97.0909 54.0935 98.3715 49.8933 98.8039 45.5655C99.2362 41.2378 98.8118 36.8672 97.5549 32.7035C96.298 28.5399 94.2332 24.6647 91.4785 21.2991C87.3302 16.2292 81.7715 12.5033 75.5056 10.5927ZM68.5288 15.5833C63.2505 15.0554 57.9342 16.1045 53.2522 18.598C48.5702 21.0916 44.7328 24.9176 42.2253 29.5922C39.7178 34.2667 38.6528 39.5799 39.1651 44.8597C39.6773 50.1395 41.7438 55.1489 45.1031 59.2543C49.6063 64.7578 56.1109 68.2478 63.1867 68.9566C70.2322 69.6623 77.2697 67.5532 82.7648 63.0916L82.7689 63.0875L82.8404 63.029C86.9463 59.6704 89.964 55.1695 91.5119 50.0958C93.0598 45.022 93.0683 39.6032 91.5364 34.5246C90.0045 29.446 87.0009 24.9357 82.9056 21.5642C78.8103 18.1926 73.8071 16.1113 68.5288 15.5833Z" fill="#31BC2E"/>
<path fill-rule="evenodd" clip-rule="evenodd" d="M38.4154 59.3287C39.2833 58.7096 40.3506 58.4296 41.4146 58.5462C42.5407 58.6696 43.5742 59.2275 44.2953 60.1013C45.0163 60.975 45.3679 62.0957 45.2753 63.2247C45.1874 64.2963 44.706 65.2952 43.9273 66.0307C41.4761 68.7157 38.8881 71.2191 36.2696 73.6226C33.6216 76.053 30.9088 78.4125 28.1472 80.6903C25.3971 82.9585 22.567 85.2059 19.6376 87.3305C18.1763 88.3937 16.6847 89.4399 15.1456 90.4419C13.661 91.4085 12.1025 92.4119 10.3985 93.328C9.52675 93.8176 8.511 93.988 7.52646 93.8088C6.52742 93.6271 5.62511 93.0973 4.97962 92.3135C4.33413 91.5297 3.98718 90.5425 4.00036 89.5272C4.01343 88.5208 4.3795 87.5512 5.03419 86.7875C6.25771 85.3273 7.54627 83.9848 8.80659 82.7082L8.80784 82.707C10.0873 81.4129 11.396 80.1516 12.7341 78.9231C15.3746 76.469 18.1261 74.1333 20.917 71.8853C23.6988 69.6448 26.532 67.442 29.4554 65.3257C32.3285 63.246 35.2876 61.2017 38.4154 59.3287Z" fill="#31BC2E"/>
<path d="M80.5078 87.9917H138.79H80.5078Z" stroke="#1C4A45" stroke-width="1.15996" stroke-miterlimit="10"/>
<path d="M80.5078 93.4412H138.79H80.5078Z" stroke="#1C4A45" stroke-width="1.15996" stroke-miterlimit="10"/>
<path d="M80.5078 98.8843H111.901H80.5078Z" stroke="#1C4A45" stroke-width="1.15996" stroke-miterlimit="10"/>
<path d="M138.791 70.6445H80.508H138.791Z" stroke="#1C4A45" stroke-width="1.15996" stroke-miterlimit="10"/>
<path d="M138.791 76.0874H107.397H138.791Z" stroke="#1C4A45" stroke-width="1.15996" stroke-miterlimit="10"/>
<path opacity="0.2" d="M127.438 67.9164C123.865 75.1028 126.72 88.2112 127.984 93.0886C128.649 85.7691 129.721 76.8062 130.572 70.232C130.033 66.5124 129.082 64.6027 127.438 67.9164Z" fill="black"/>
<path d="M111.216 71.8824C111.568 70.9263 112.202 70.0995 113.033 69.5114C113.865 68.9232 114.856 68.6015 115.874 68.5886H147.574C148.12 68.567 148.664 68.6653 149.168 68.8767C149.672 69.0881 150.124 69.4074 150.491 69.8121C150.858 70.2168 151.132 70.6971 151.294 71.2192C151.456 71.7413 151.501 72.2924 151.427 72.8339L143.209 141.57C143.034 142.738 142.449 143.807 141.56 144.584C140.67 145.362 139.533 145.798 138.351 145.815H37.7561C37.21 145.837 36.6658 145.738 36.1618 145.527C35.6578 145.316 35.2063 144.996 34.839 144.592C34.4717 144.187 34.1976 143.707 34.036 143.184C33.8743 142.662 33.8291 142.111 33.9034 141.57L40.7837 83.833C40.9586 82.6644 41.5431 81.596 42.4328 80.8184C43.3226 80.0408 44.4596 79.6046 45.6411 79.5877H100.384C102.757 79.5491 105.062 78.792 106.996 77.4164C108.93 76.0408 110.401 74.1113 111.216 71.8824Z" fill="#1C4A45"/>
<path d="M35.7329 142.654H140.84L148 71.3335L41.7215 71.9289L35.7329 142.654Z" fill="#E8FFDB"/>
<path d="M35.7324 141.321H140.839L145.333 70.0002L41.721 70.5956L35.7324 141.321Z" fill="#BFDBBD"/>
<path d="M35.7324 141.321H140.839L144.452 68.353H39.3456L35.7324 141.321Z" fill="#E8FFDB"/>
<path d="M35.7324 138.654H140.839L142.667 64.6667L39.3456 65.6863L35.7324 138.654Z" fill="#BFDBBD"/>
<path d="M35.7324 138.654H140.839L141.465 63.7036H36.3579L35.7324 138.654Z" fill="#E8FFDB"/>
<path d="M35.7329 141.321H140.84L138.667 67.7876H34.249L35.7329 141.321Z" fill="#BFDBBD"/>
<path d="M35.733 141.321H140.84L137.719 68.353H32.6123L35.733 141.321Z" fill="#E8FFDB"/>
<path d="M35.7328 142.654H140.84L136 70.7844H30.7622L35.7328 142.654Z" fill="#BFDBBD"/>
<path d="M35.7331 142.654H140.84L135.077 71.4031H29.9707L35.7331 142.654Z" fill="#E8FFDB"/>
<path d="M88.3659 76.3471C88.3716 75.8873 88.4699 75.4333 88.6548 75.0122C88.8397 74.5911 89.1074 74.2116 89.4421 73.8962C89.7768 73.5808 90.1715 73.3359 90.6028 73.1763C91.034 73.0166 91.493 72.9454 91.9524 72.9669H123.652C124.879 73.015 126.056 73.4691 126.998 74.2578C127.939 75.0465 128.593 76.1253 128.856 77.3252L141.378 141.463C141.515 141.988 141.526 142.538 141.412 143.069C141.298 143.599 141.062 144.096 140.722 144.518C140.382 144.941 139.947 145.279 139.454 145.504C138.96 145.729 138.421 145.835 137.878 145.815H37.2764C36.0526 145.763 34.8802 145.308 33.9416 144.521C33.0029 143.734 32.3507 142.659 32.0863 141.463L21.7459 88.5905C21.6094 88.0647 21.5979 87.5143 21.7123 86.9833C21.8267 86.4523 22.0637 85.9555 22.4046 85.5325C22.7454 85.1096 23.1805 84.7723 23.675 84.5476C24.1696 84.323 24.7098 84.2172 25.2526 84.2388H79.9951C84.7328 84.2388 88.2062 80.965 88.3659 76.3471Z" fill="#1C4A45"/>
<path opacity="0.2" d="M88.3659 76.3471C88.3716 75.8873 88.4699 75.4333 88.6548 75.0122C88.8397 74.5911 89.1074 74.2116 89.4421 73.8962C89.7768 73.5808 90.1715 73.3359 90.6028 73.1763C91.034 73.0166 91.493 72.9454 91.9524 72.9669H123.652C124.879 73.015 126.056 73.4691 126.998 74.2578C127.939 75.0465 128.593 76.1253 128.856 77.3252L141.378 141.463C141.515 141.988 141.526 142.538 141.412 143.069C141.298 143.599 141.062 144.096 140.722 144.518C140.382 144.941 139.947 145.279 139.454 145.504C138.96 145.729 138.421 145.835 137.878 145.815H37.2764C36.0526 145.763 34.8802 145.308 33.9416 144.521C33.0029 143.734 32.3507 142.659 32.0863 141.463L21.7459 88.5905C21.6094 88.0647 21.5979 87.5143 21.7123 86.9833C21.8267 86.4523 22.0637 85.9555 22.4046 85.5325C22.7454 85.1096 23.1805 84.7723 23.675 84.5476C24.1696 84.323 24.7098 84.2172 25.2526 84.2388H79.9951C84.7328 84.2388 88.2062 80.965 88.3659 76.3471Z" fill="#1C4A45"/>
<path d="M81.326 114.162H82.2575C82.7894 114.151 83.2961 113.933 83.6692 113.554C84.0423 113.175 84.2521 112.664 84.2537 112.132H83.3222C83.0572 112.132 82.7949 112.185 82.5505 112.287C82.3061 112.39 82.0845 112.54 81.8987 112.729C81.7129 112.918 81.5666 113.142 81.4683 113.388C81.3699 113.634 81.3215 113.897 81.326 114.162Z" fill="#31BC2E"/>
<path d="M86.5829 117.629C86.1424 117.181 85.5764 116.878 84.9597 116.759C84.343 116.64 83.7048 116.711 83.1295 116.963C82.5792 117.21 81.9827 117.337 81.3795 117.336C81.1569 117.337 80.9344 117.322 80.7141 117.289V110.462C80.1847 110.462 79.6769 110.673 79.3026 111.047C78.9282 111.421 78.7179 111.929 78.7179 112.459V116.398C77.8904 115.747 77.3298 114.815 77.1418 113.779C76.9539 112.743 77.1515 111.674 77.6974 110.774C78.2434 109.873 79.0999 109.204 80.1055 108.891C81.1111 108.579 82.1962 108.646 83.1561 109.078C83.7277 109.334 84.3633 109.411 84.9796 109.3C85.5959 109.188 86.164 108.893 86.6096 108.453L86.2902 108.133C85.0869 106.933 83.4839 106.217 81.7866 106.122C80.0894 106.028 78.4168 106.561 77.0877 107.621C76.8947 107.781 76.7017 107.954 76.5154 108.133C75.8763 108.776 75.3709 109.54 75.0282 110.379C74.6856 111.219 74.5126 112.117 74.5192 113.024C74.5135 113.93 74.6869 114.827 75.0295 115.665C75.3721 116.504 75.8771 117.266 76.5154 117.908C76.7017 118.088 76.8947 118.261 77.0877 118.421C78.4168 119.48 80.0894 120.014 81.7866 119.919C83.4839 119.825 85.0869 119.109 86.2902 117.908L86.6096 117.595L86.5829 117.629Z" fill="#31BC2E"/>
</svg>
