<svg width="160" height="160" viewBox="0 0 160 160" fill="none" xmlns="http://www.w3.org/2000/svg">
<path d="M6.66699 25.8667C6.66699 22.6266 9.29359 20 12.5337 20H134.134C137.374 20 140 22.6266 140 25.8667V50.1333C140 53.3734 137.374 56 134.134 56H12.5337C9.29359 56 6.66699 53.3734 6.66699 50.1333V25.8667Z" fill="#1C4A45"/>
<path d="M28.667 32.1346C28.667 30.22 30.2191 28.668 32.1337 28.668H127.734C129.648 28.668 131.2 30.22 131.2 32.1346C131.2 34.0492 129.648 35.6013 127.734 35.6013H32.1337C30.2191 35.6013 28.667 34.0492 28.667 32.1346Z" fill="#9FF2E0"/>
<path d="M28.667 43.8671C28.667 41.9525 30.2191 40.4004 32.1337 40.4004H95.5485C97.4631 40.4004 99.0151 41.9525 99.0151 43.8671C99.0151 45.7816 97.4631 47.3337 95.5485 47.3337H32.1337C30.2191 47.3337 28.667 45.7816 28.667 43.8671Z" fill="#9FF2E0"/>
<path d="M14 30.428C14 29.4559 14.788 28.668 15.76 28.668H21.04C22.012 28.668 22.8 29.4559 22.8 30.428V35.708C22.8 36.68 22.012 37.468 21.04 37.468H15.76C14.788 37.468 14 36.68 14 35.708V30.428Z" fill="#9FF2E0"/>
<path fill-rule="evenodd" clip-rule="evenodd" d="M21.5927 30.9746C21.7359 31.1178 21.7359 31.3499 21.5927 31.4931L17.9261 35.1598C17.7829 35.303 17.5507 35.303 17.4075 35.1598L15.5742 33.3265C15.431 33.1833 15.431 32.9511 15.5742 32.8079C15.7174 32.6647 15.9495 32.6647 16.0927 32.8079L17.6668 34.382L21.0742 30.9746C21.2174 30.8314 21.4495 30.8314 21.5927 30.9746Z" fill="#1C4A45"/>
<path d="M21.333 68.5346C21.333 65.2946 23.9596 62.668 27.1997 62.668H148.8C152.04 62.668 154.666 65.2946 154.666 68.5346V92.8013C154.666 96.0414 152.04 98.668 148.8 98.668H27.1997C23.9596 98.668 21.333 96.0414 21.333 92.8013V68.5346Z" fill="#31B92E"/>
<path d="M43.333 74.8006C43.333 72.8861 44.8851 71.334 46.7997 71.334H142.4C144.314 71.334 145.866 72.8861 145.866 74.8006C145.866 76.7152 144.314 78.2673 142.4 78.2673H46.7997C44.8851 78.2673 43.333 76.7152 43.333 74.8006Z" fill="#B4F6A2"/>
<path d="M43.333 86.535C43.333 84.6204 44.8851 83.0684 46.7997 83.0684H110.214C112.129 83.0684 113.681 84.6204 113.681 86.535C113.681 88.4496 112.129 90.0017 110.214 90.0017H46.7997C44.8851 90.0017 43.333 88.4496 43.333 86.535Z" fill="#B4F6A2"/>
<path d="M28.667 73.094C28.667 72.122 29.455 71.334 30.427 71.334H35.707C36.679 71.334 37.467 72.122 37.467 73.094V78.374C37.467 79.346 36.679 80.134 35.707 80.134H30.427C29.455 80.134 28.667 79.346 28.667 78.374V73.094Z" fill="#B4F6A2"/>
<path fill-rule="evenodd" clip-rule="evenodd" d="M36.2597 73.6406C36.4029 73.7838 36.4029 74.0159 36.2597 74.1591L32.5931 77.8258C32.4499 77.969 32.2177 77.969 32.0745 77.8258L30.2412 75.9925C30.098 75.8493 30.098 75.6171 30.2412 75.4739C30.3844 75.3307 30.6165 75.3307 30.7597 75.4739L32.3338 77.048L35.7412 73.6406C35.8844 73.4974 36.1165 73.4974 36.2597 73.6406Z" fill="#31B92E"/>
<path d="M6.66699 111.199C6.66699 107.959 9.29359 105.332 12.5337 105.332H134.134C137.374 105.332 140 107.959 140 111.199V135.465C140 138.705 137.374 141.332 134.134 141.332H12.5337C9.29359 141.332 6.66699 138.705 6.66699 135.465V111.199Z" fill="#FFB400"/>
<path d="M28.667 117.467C28.667 115.552 30.2191 114 32.1337 114H127.734C129.648 114 131.2 115.552 131.2 117.467C131.2 119.381 129.648 120.933 127.734 120.933H32.1337C30.2191 120.933 28.667 119.381 28.667 117.467Z" fill="#FFE000"/>
<path d="M28.667 129.201C28.667 127.286 30.2191 125.734 32.1337 125.734H95.5485C97.4631 125.734 99.0151 127.286 99.0151 129.201C99.0151 131.116 97.4631 132.668 95.5485 132.668H32.1337C30.2191 132.668 28.667 131.116 28.667 129.201Z" fill="#FFE000"/>
<path d="M14 115.76C14 114.788 14.788 114 15.76 114H21.04C22.012 114 22.8 114.788 22.8 115.76V121.04C22.8 122.012 22.012 122.8 21.04 122.8H15.76C14.788 122.8 14 122.012 14 121.04V115.76Z" fill="#FFE000"/>
<path fill-rule="evenodd" clip-rule="evenodd" d="M21.5927 116.307C21.7359 116.45 21.7359 116.682 21.5927 116.825L17.9261 120.492C17.7829 120.635 17.5507 120.635 17.4075 120.492L15.5742 118.658C15.431 118.515 15.431 118.283 15.5742 118.14C15.7174 117.997 15.9495 117.997 16.0927 118.14L17.6668 119.714L21.0742 116.307C21.2174 116.163 21.4495 116.163 21.5927 116.307Z" fill="#BC5900"/>
</svg>
