<svg width="169" height="48" viewBox="0 0 169 48" fill="none" xmlns="http://www.w3.org/2000/svg">
<g clip-path="url(#clip0_53_54650)">
<path d="M21.0222 30.2086H23.8785C24.6948 30.2094 25.5033 30.0494 26.2578 29.7376C27.0122 29.4258 27.6978 28.9683 28.2753 28.3914C28.8528 27.8144 29.311 27.1293 29.6236 26.3752C29.9362 25.6211 30.0971 24.8128 30.0971 23.9965H27.2408C26.4244 23.9956 25.6159 24.1557 24.8615 24.4675C24.1071 24.7793 23.4215 25.2368 22.844 25.8137C22.2664 26.3906 21.8083 27.0757 21.4957 27.8298C21.1831 28.5839 21.0222 29.3923 21.0222 30.2086V30.2086Z" fill="#31BC2E"/>
<path d="M37.1449 40.8334C35.7856 39.4802 34.0473 38.572 32.1603 38.2289C30.2732 37.8858 28.3265 38.124 26.5779 38.9121C24.2477 39.9474 21.6686 40.2898 19.1489 39.8983V18.8731C17.4997 18.8731 15.918 19.5283 14.7517 20.6945C13.5855 21.8607 12.9304 23.4424 12.9304 25.0917V37.1445C10.7945 35.4354 9.24205 33.1051 8.48761 30.4756C7.73316 27.8461 7.81393 25.0473 8.71875 22.4657C9.62357 19.8841 11.3078 17.6472 13.5387 16.0641C15.7696 14.481 18.4371 13.6298 21.1727 13.628C23.0242 13.6239 24.8555 14.0125 26.5459 14.768C28.2945 15.556 30.2412 15.7943 32.1283 15.4512C34.0153 15.1081 35.7536 14.1998 37.1129 12.8467V12.8467L36.1459 11.8797C32.4678 8.19167 27.5573 5.99184 22.3568 5.70226C17.1562 5.41269 12.0319 7.05377 7.96707 10.3106V10.3106C5.48387 12.2885 3.47816 14.8004 2.09892 17.6598C0.71967 20.5192 0.00232508 23.6526 0.00015764 26.8272V26.8272C-0.0106248 29.6122 0.531826 32.3716 1.59603 34.9452C2.66023 37.5189 4.22499 39.8555 6.19949 41.8196C6.75653 42.373 7.34226 42.8967 7.95426 43.3887V43.3887C12.0236 46.6347 17.1456 48.2689 22.343 47.9795C27.5403 47.6901 32.4492 45.4973 36.1331 41.8196L37.1449 40.8334Z" fill="#31BC2E"/>
<path d="M58.2125 8.05289C59.2743 8.67912 60.148 9.57942 60.7422 10.6594L58.0076 12.8113C57.079 11.4087 55.9198 10.7107 54.5429 10.7107C54.0358 10.6951 53.5312 10.7869 53.0622 10.9801C52.5931 11.1732 52.1702 11.4633 51.8211 11.8314C51.4676 12.207 51.1917 12.6487 51.0093 13.1312C50.8269 13.6136 50.7415 14.1274 50.758 14.6429C50.7398 15.1625 50.8244 15.6805 51.0068 16.1674C51.1892 16.6542 51.4659 17.1003 51.8211 17.48C52.1717 17.8444 52.5955 18.1304 53.0646 18.3192C53.5338 18.5079 54.0376 18.5952 54.5429 18.5751C55.8835 18.5751 57.0384 17.8856 58.0076 16.5065L60.7422 18.6071C60.1368 19.6928 59.2524 20.597 58.1805 21.2265C57.0531 21.8792 55.7686 22.2114 54.466 22.1871C53.4537 22.2078 52.4474 22.0252 51.5069 21.6501C50.5664 21.275 49.7106 20.715 48.9904 20.0033C48.2632 19.3104 47.6883 18.4737 47.3023 17.5464C46.9164 16.619 46.7279 15.6215 46.7489 14.6173C46.7295 13.6199 46.9188 12.6295 47.3048 11.7097C47.6909 10.7898 48.265 9.9609 48.9904 9.27611C49.7123 8.56757 50.5686 8.0105 51.509 7.63767C52.4493 7.26483 53.4547 7.08375 54.466 7.10506C55.7781 7.07197 57.0741 7.39984 58.2125 8.05289V8.05289Z" fill="#004C46"/>
<path d="M74.8639 9.27561C75.5965 9.95614 76.1771 10.7837 76.5678 11.7041C76.9585 12.6245 77.1504 13.6171 77.131 14.6168C77.1498 15.6183 76.9577 16.6125 76.5671 17.5349C76.1765 18.4573 75.5962 19.2873 74.8639 19.9707C74.1383 20.6824 73.278 21.242 72.3334 21.617C71.3887 21.992 70.3788 22.1748 69.3627 22.1546C68.3536 22.1776 67.3502 21.9978 66.4118 21.626C65.4735 21.2542 64.6193 20.6978 63.8998 19.99C63.1774 19.2972 62.6068 18.4618 62.2242 17.5368C61.8416 16.6119 61.6555 15.6175 61.6775 14.6168C61.6565 13.6192 61.8452 12.6283 62.2313 11.7082C62.6174 10.7882 63.1924 9.95941 63.919 9.27561C64.6394 8.56666 65.4945 8.00928 66.4339 7.63639C67.3732 7.2635 68.3778 7.08266 69.3883 7.10456C70.3992 7.08611 71.4038 7.26851 72.3437 7.64119C73.2837 8.01386 74.1403 8.5694 74.8639 9.27561V9.27561ZM66.7113 11.8053C66.0035 12.5772 65.6265 13.5957 65.661 14.6424C65.6417 15.1572 65.7246 15.6706 65.9049 16.1532C66.0852 16.6358 66.3592 17.0778 66.7113 17.4539C67.4206 18.1602 68.3809 18.5567 69.3819 18.5567C70.3829 18.5567 71.3431 18.1602 72.0525 17.4539C72.4079 17.0822 72.6852 16.6431 72.8678 16.1623C73.0504 15.6816 73.1347 15.1691 73.1156 14.6552C73.1464 13.6125 72.7643 12.5998 72.0525 11.8373C71.7167 11.4666 71.3048 11.1728 70.845 10.976C70.3852 10.7793 69.8883 10.6842 69.3883 10.6974C68.889 10.6817 68.3921 10.7723 67.9306 10.9633C67.4691 11.1544 67.0534 11.4414 66.7113 11.8053V11.8053Z" fill="#004C46"/>
<path d="M100.069 8.68978C101.079 9.85202 101.6 11.3598 101.523 12.8974V21.8634H97.5974V13.4481C97.6338 12.705 97.384 11.9761 96.8993 11.4116C96.6612 11.1591 96.3715 10.9609 96.0499 10.8305C95.7283 10.7001 95.3824 10.6405 95.0357 10.6559C94.6805 10.6417 94.3263 10.7015 93.9955 10.8316C93.6648 10.9617 93.3647 11.1592 93.1144 11.4116C92.8695 11.6667 92.6778 11.9679 92.5502 12.2977C92.4227 12.6275 92.362 12.9794 92.3715 13.3329V21.8313H88.4393V13.4481C88.4766 12.7037 88.2241 11.9738 87.7348 11.4116C87.4972 11.1584 87.2076 10.9597 86.8859 10.8293C86.5641 10.6988 86.218 10.6397 85.8712 10.6559C85.516 10.6417 85.1618 10.7015 84.831 10.8316C84.5002 10.9617 84.2002 11.1592 83.9499 11.4116C83.4586 11.9724 83.2079 12.7039 83.2518 13.4481V21.8313H79.3196V7.42173H82.9316V8.70258C83.4604 8.16519 84.0963 7.74495 84.798 7.46913C85.4997 7.19331 86.2515 7.06806 87.0047 7.10152C88.9431 7.10152 90.3691 7.79104 91.2828 9.1701C91.876 8.48591 92.616 7.94452 93.4477 7.58634C94.2794 7.22816 95.1813 7.06243 96.086 7.10152C96.8253 7.06274 97.5642 7.18463 98.2519 7.45882C98.9395 7.733 99.5596 8.15296 100.069 8.68978V8.68978Z" fill="#004C46"/>
<path d="M117.675 9.22414C119.004 10.6964 119.707 12.6283 119.635 14.6101C119.702 16.5989 119 18.537 117.675 20.0217C117.045 20.7259 116.269 21.2839 115.4 21.6567C114.532 22.0295 113.593 22.2081 112.648 22.18C111.847 22.217 111.047 22.0799 110.304 21.7781C109.561 21.4762 108.893 21.0169 108.344 20.4316V27.0664H104.393V7.41814H108.005V9.22414C109.03 7.80666 110.571 7.09792 112.629 7.09792C113.574 7.06729 114.514 7.24146 115.385 7.60847C116.256 7.97549 117.037 8.52665 117.675 9.22414V9.22414ZM114.576 17.5049C114.939 17.1238 115.222 16.6732 115.407 16.1802C115.592 15.6871 115.675 15.1618 115.652 14.6357C115.675 14.1069 115.593 13.5788 115.41 13.0819C115.228 12.585 114.948 12.1293 114.589 11.741C113.895 11.0579 112.965 10.6681 111.992 10.6526C111.019 10.6371 110.077 10.9971 109.363 11.6578C108.985 12.0463 108.695 12.5101 108.509 13.0189C108.324 13.5277 108.248 14.07 108.287 14.6101C108.251 15.149 108.326 15.6894 108.509 16.1976C108.692 16.7057 108.979 17.1704 109.35 17.5625C109.685 17.8986 110.085 18.1637 110.525 18.342C110.965 18.5202 111.437 18.608 111.912 18.6C112.407 18.6111 112.9 18.5196 113.358 18.3311C113.817 18.1426 114.231 17.8613 114.576 17.5049V17.5049Z" fill="#004C46"/>
<path d="M125.775 21.8322H121.849V0H125.775V21.8322Z" fill="#004C46"/>
<path d="M142.044 15.9506H131.925C132.137 16.8048 132.648 17.5547 133.366 18.064C134.145 18.5775 135.065 18.835 135.998 18.8005C137.463 18.7855 138.879 18.2728 140.014 17.3467L141.647 20.0237C140.052 21.4206 138.003 22.1879 135.883 22.1819C134.844 22.2156 133.809 22.0409 132.839 21.668C131.869 21.2951 130.983 20.7317 130.234 20.0109C129.506 19.3212 128.931 18.4869 128.545 17.5615C128.159 16.6361 127.971 15.6402 127.993 14.6377C127.979 13.644 128.164 12.6576 128.538 11.7369C128.912 10.8161 129.467 9.97965 130.17 9.27693C130.872 8.57421 131.709 8.01949 132.63 7.64557C133.55 7.27164 134.537 7.08609 135.531 7.09988C136.424 7.06351 137.315 7.21126 138.149 7.53395C138.983 7.85664 139.741 8.34737 140.377 8.97563C141.013 9.6039 141.513 10.3563 141.846 11.186C142.179 12.0157 142.338 12.9051 142.313 13.7987C142.309 14.5242 142.219 15.2467 142.044 15.9506V15.9506ZM133.206 11.0577C132.565 11.6137 132.117 12.3579 131.925 13.1839H138.502C138.51 12.7829 138.43 12.3851 138.269 12.018C138.107 11.6508 137.868 11.3232 137.567 11.0577C136.962 10.5335 136.183 10.2548 135.383 10.2764C134.587 10.2648 133.813 10.5424 133.206 11.0577V11.0577Z" fill="#004C46"/>
<path d="M153.753 18.5738V21.8592C152.868 22.0887 151.958 22.207 151.044 22.2115C149.506 22.3058 147.989 21.8214 146.791 20.8538C145.784 19.9486 145.28 18.5952 145.28 16.7935V10.7414H143.006V7.424H145.28V3.78638H149.218V7.424H153.298V10.7414H149.218V16.422C149.187 16.74 149.228 17.061 149.339 17.3606C149.45 17.6603 149.628 17.9306 149.859 18.1512C150.465 18.5411 151.183 18.7211 151.902 18.6635C152.124 18.6635 152.741 18.6336 153.753 18.5738Z" fill="#004C46"/>
<path d="M168.684 15.9506H158.552C158.769 16.8025 159.279 17.5508 159.993 18.064C160.774 18.5788 161.697 18.8363 162.632 18.8005C164.096 18.7855 165.512 18.2728 166.647 17.3467L168.28 20.0237C166.686 21.4206 164.636 22.1879 162.516 22.1819C161.477 22.2156 160.442 22.0409 159.472 21.668C158.502 21.2951 157.617 20.7317 156.868 20.0109C156.139 19.3222 155.562 18.488 155.176 17.5624C154.79 16.6368 154.603 15.6404 154.626 14.6377C154.612 13.6438 154.797 12.657 155.17 11.7358C155.544 10.8147 156.098 9.97786 156.801 9.27496C157.504 8.57206 158.341 8.01738 159.262 7.64376C160.183 7.27015 161.17 7.0852 162.164 7.09988C163.057 7.06351 163.949 7.21126 164.782 7.53395C165.616 7.85664 166.375 8.34737 167.011 8.97563C167.647 9.6039 168.147 10.3563 168.48 11.186C168.813 12.0157 168.971 12.9051 168.946 13.7987C168.945 14.5239 168.857 15.2464 168.684 15.9506V15.9506ZM159.833 11.0577C159.194 11.6154 158.747 12.3589 158.552 13.1839H165.136C165.143 12.7829 165.064 12.3851 164.902 12.018C164.741 11.6508 164.501 11.3232 164.201 11.0577C163.599 10.5365 162.825 10.258 162.03 10.2764C161.227 10.2619 160.446 10.5396 159.833 11.0577V11.0577Z" fill="#004C46"/>
<path d="M52.8281 28.5853C52.5957 28.8049 52.417 29.0752 52.3059 29.3751C52.1949 29.675 52.1544 29.9964 52.1877 30.3144V32.3254H55.3898V35.6428H52.1877V46.7478H48.2554V35.6428H46.2189V32.3254H48.2554V29.9686C48.2554 28.1626 48.755 26.8113 49.7412 25.9083C50.8717 24.9585 52.3206 24.4733 53.7951 24.5506C54.5266 24.5473 55.2544 24.6552 55.9534 24.8708V28.1754C55.5673 28.1198 55.1779 28.0898 54.7878 28.0858C54.0978 28.0362 53.4102 28.2115 52.8281 28.5853V28.5853Z" fill="#004C46"/>
<path d="M67.0787 33.5939C68.1931 34.6527 68.7503 36.1812 68.7503 38.1794V46.7483H65.1447V45.3393C64.5769 45.9257 63.8911 46.3847 63.1326 46.6861C62.3741 46.9875 61.5603 47.1244 60.7449 47.0877C59.4227 47.1603 58.1224 46.7276 57.1073 45.8773C56.6715 45.4896 56.3259 45.0112 56.0946 44.4758C55.8634 43.9403 55.7522 43.3607 55.7688 42.7776C55.7455 42.1847 55.8668 41.595 56.1224 41.0594C56.3779 40.5239 56.7599 40.0585 57.2354 39.7036C58.4008 38.9009 59.7993 38.5068 61.2124 38.5828H64.8244V37.9424C64.8437 37.6014 64.7928 37.2601 64.675 36.9396C64.5571 36.619 64.3748 36.326 64.1392 36.0788C63.5838 35.61 62.8655 35.3798 62.1411 35.4383C60.8602 35.4383 59.5793 36.098 58.2985 37.4173L56.294 34.9772C57.0464 34.0363 58.0046 33.2803 59.0948 32.7674C60.185 32.2545 61.3783 31.9983 62.583 32.0185C64.2305 31.9317 65.8458 32.4977 67.0787 33.5939V33.5939ZM63.9471 43.4052C64.2331 43.1463 64.4597 42.8285 64.6112 42.4736C64.7626 42.1187 64.8354 41.7352 64.8244 41.3495V41.1766H61.7376C60.3991 41.1766 59.7267 41.6633 59.7267 42.6303C59.7196 42.8545 59.7679 43.077 59.8673 43.2781C59.9667 43.4792 60.1142 43.6526 60.2966 43.7831C60.7368 44.0834 61.263 44.2319 61.7952 44.2058C62.5889 44.2262 63.3597 43.9394 63.9471 43.4052V43.4052Z" fill="#004C46"/>
<path d="M80.5132 32.3278V35.7925H79.4629C78.4351 35.7372 77.425 36.0762 76.6386 36.7403C76.2679 37.1026 75.9803 37.541 75.7956 38.0253C75.611 38.5096 75.5337 39.0283 75.5691 39.5454V46.7502H71.6625V32.3278H75.2681V34.0761C75.7251 33.4601 76.3242 32.9636 77.0145 32.6291C77.7047 32.2946 78.4656 32.1319 79.2323 32.1548C79.6655 32.1482 80.0973 32.2065 80.5132 32.3278Z" fill="#004C46"/>
<path d="M102.841 33.599C103.843 34.758 104.364 36.2567 104.295 37.7874V46.7533H100.369V38.3573C100.407 37.6129 100.154 36.883 99.6648 36.3208C99.4285 36.0678 99.14 35.8691 98.8193 35.7386C98.4986 35.6082 98.1534 35.5489 97.8076 35.5651C97.4524 35.5509 97.0982 35.6107 96.7674 35.7408C96.4366 35.8709 96.1366 36.0684 95.8863 36.3208C95.6414 36.5759 95.4497 36.8771 95.3221 37.2069C95.1946 37.5367 95.1338 37.8886 95.1434 38.2421V46.7533H91.2112V38.3573C91.2503 37.6138 91.0001 36.884 90.5131 36.3208C90.275 36.0683 89.9853 35.8701 89.6637 35.7397C89.3421 35.6093 88.9961 35.5497 88.6494 35.5651C88.2943 35.5509 87.9401 35.6107 87.6093 35.7408C87.2785 35.8709 86.9785 36.0684 86.7282 36.3208C86.478 36.5952 86.2847 36.9165 86.1594 37.266C86.0341 37.6156 85.9793 37.9865 85.9981 38.3573V46.7533H82.0723V32.3309H85.6779V33.6118C86.2084 33.0749 86.8455 32.655 87.5481 32.3792C88.2507 32.1035 89.0033 31.978 89.7574 32.0107C91.6957 32.0107 93.1218 32.7002 94.0354 34.0793C94.6286 33.3951 95.3687 32.8537 96.2004 32.4955C97.0321 32.1374 97.9339 31.9716 98.8386 32.0107C99.5811 31.9691 100.324 32.0896 101.015 32.3639C101.706 32.6382 102.329 33.0596 102.841 33.599V33.599Z" fill="#004C46"/>
<path d="M120.397 40.8566H110.285C110.5 41.7076 111.011 42.4543 111.726 42.9636C112.506 43.4806 113.429 43.7404 114.364 43.7065C115.827 43.6951 117.243 43.187 118.38 42.2655L120.013 44.9425C118.418 46.3394 116.369 47.1068 114.249 47.1007C113.21 47.1345 112.175 46.9597 111.205 46.5868C110.235 46.2139 109.349 45.6505 108.601 44.9297C107.871 44.241 107.295 43.4068 106.909 42.4812C106.523 41.5556 106.335 40.5592 106.359 39.5565C106.344 38.5626 106.529 37.5758 106.903 36.6547C107.277 35.7335 107.831 34.8967 108.534 34.1938C109.237 33.4909 110.074 32.9362 110.995 32.5626C111.916 32.189 112.903 32.004 113.897 32.0187C114.79 31.9823 115.681 32.1301 116.515 32.4528C117.349 32.7755 118.107 33.2662 118.744 33.8945C119.38 34.5227 119.88 35.2751 120.213 36.1048C120.546 36.9345 120.704 37.8239 120.679 38.7176C120.667 39.439 120.573 40.1567 120.397 40.8566V40.8566ZM111.546 35.9637C110.908 36.5214 110.46 37.2649 110.266 38.0899H116.849C116.857 37.6889 116.777 37.2911 116.616 36.924C116.454 36.5568 116.215 36.2292 115.914 35.9637C115.309 35.4395 114.53 35.1608 113.73 35.1824C112.938 35.1728 112.169 35.4503 111.566 35.9637H111.546Z" fill="#004C46"/>
<path d="M131.714 32.3278V35.7925H130.644C129.616 35.7372 128.606 36.0762 127.82 36.7403C127.458 37.1071 127.18 37.5476 127.004 38.0317C126.829 38.5158 126.76 39.0321 126.802 39.5454V46.7502H122.876V32.3278H126.481V34.0761C126.938 33.4601 127.537 32.9636 128.228 32.6291C128.918 32.2946 129.679 32.1319 130.446 32.1548C130.875 32.149 131.302 32.2072 131.714 32.3278V32.3278Z" fill="#004C46"/>
<path d="M135.454 42.4583C135.94 42.9799 136.211 43.6665 136.211 44.3796C136.211 45.0927 135.94 45.7792 135.454 46.3009C135.205 46.5567 134.906 46.7578 134.575 46.8912C134.244 47.0246 133.889 47.0875 133.533 47.0758C133.172 47.0854 132.812 47.0217 132.477 46.8885C132.141 46.7553 131.836 46.5554 131.579 46.3009C131.082 45.7851 130.803 45.0963 130.803 44.3796C130.803 43.6628 131.082 42.974 131.579 42.4583C131.834 42.2008 132.139 41.9982 132.475 41.8627C132.811 41.7272 133.171 41.6619 133.533 41.6706C133.89 41.6605 134.246 41.7254 134.577 41.861C134.908 41.9967 135.206 42.2002 135.454 42.4583Z" fill="#004C46"/>
</g>
<defs>
<clipPath id="clip0_53_54650">
<rect width="168.945" height="48" fill="white"/>
</clipPath>
</defs>
</svg>
