<svg width="160" height="160" viewBox="0 0 160 160" fill="none" xmlns="http://www.w3.org/2000/svg">
<path d="M101.331 65.8955C102.055 63.8174 104.079 62.3431 106.211 62.3431H148.403C150.931 62.3431 152.742 64.3921 152.443 66.9242L143.056 146.605C142.756 149.133 140.465 151.186 137.937 151.186H32.1483C29.6204 151.186 27.8088 149.137 28.1086 146.605L36.1005 78.7766C36.4003 76.2487 38.6909 74.1956 41.2188 74.1956H89.932C94.917 74.1956 99.6439 70.7556 101.335 65.8955H101.331Z" fill="#427562"/>
<path d="M73.5433 82.0797L87.7122 29.0075L20.6126 11.0972L6.46097 64.105L73.5433 82.0797Z" fill="#FFB400"/>
<path d="M71.1314 83.5984L85.3402 30.3774L18.2406 12.4671L4.04902 65.6238L71.1314 83.5984Z" fill="#FAF8F5"/>
<path d="M79.1792 34.1075L21.7754 18.7262L10.0567 62.4609L67.4605 77.8422L79.1792 34.1075Z" fill="#FFE9B3"/>
<path d="M38.819 45.4852C42.7948 43.1898 44.157 38.1059 41.8616 34.1301C39.5662 30.1543 34.4823 28.7921 30.5065 31.0875C26.5307 33.383 25.1684 38.4668 27.4639 42.4426C29.7593 46.4185 34.8432 47.7807 38.819 45.4852Z" fill="#F0D72E"/>
<path d="M65.5529 61.8267C65.8614 58.1972 64.4921 54.6829 61.9809 52.2121C61.9809 52.2121 61.9809 52.2121 61.9769 52.211C62.0017 52.1185 62.0375 52.0332 62.0622 51.9407C63.7871 45.4872 59.9498 38.8584 53.4952 37.1375C48.4778 35.7974 43.3633 37.8287 40.5241 41.8279C40.1632 41.6622 39.7878 41.5185 39.3895 41.4118C36.4489 40.6238 33.4494 41.7775 31.7338 44.0772C30.34 43.3416 28.7236 42.9214 26.8206 43.1531C23.3616 43.5757 20.3525 45.9557 19.382 49.3043C18.0275 53.9729 20.7806 58.8238 25.456 60.0723C25.456 60.0723 25.46 60.0733 25.4641 60.0744L41.9735 64.4809L57.098 68.5205C60.5575 69.4475 64.2233 67.4807 65.1664 64.0255C65.1728 64.0013 65.1782 63.9812 65.1847 63.9571C65.3744 63.2491 65.4965 62.5359 65.5518 61.8307L65.5529 61.8267Z" fill="#FFB400"/>
<path d="M150.642 56.5562L117.255 11.09L61.276 52.1955L94.5967 97.5648L150.642 56.5562Z" fill="#31B92E"/>
<path d="M150.005 59.1943L116.636 13.757L60.6598 54.8605L93.9567 100.205L150.005 59.1943Z" fill="#F5FAF5"/>
<path d="M115.653 20.8878L67.752 56.062L94.5504 92.5571L142.452 57.3828L115.653 20.8878Z" fill="#31B92E"/>
<path d="M141.477 56.0438L142.455 57.3789L117.572 75.6498L119.569 64.4657L121.607 53.0029L141.477 56.0438Z" fill="#B4F6A2"/>
<path d="M131.682 65.2908L94.5548 92.5548L92.399 89.6205L97.7596 62.9815L119.569 64.4655L131.682 65.2908Z" fill="#B4F6A2"/>
<path d="M112.338 47.8914C113.594 44.2154 111.633 40.2169 107.957 38.9605C104.281 37.7041 100.282 39.6655 99.0259 43.3415C97.7695 47.0175 99.731 51.016 103.407 52.2724C107.083 53.5288 111.081 51.5674 112.338 47.8914Z" fill="#B4F6A2"/>
<path d="M83.3601 82.5289C83.6433 80.7339 85.3549 79.4637 87.4914 79.4637H129.683C132.211 79.4637 134.456 81.2337 134.693 83.4159L140.344 147.234C140.582 149.416 138.724 151.186 136.192 151.186H30.4031C27.8752 151.186 25.6305 149.416 25.3931 147.234L20.8495 93.64C20.6122 91.4578 22.4696 89.6878 25.0016 89.6878H73.7149C78.6999 89.6878 82.6979 86.7185 83.3601 82.5289Z" fill="#1C4A45"/>
<path d="M74.8168 117.154H76.0496C76.7535 117.141 77.424 116.852 77.9177 116.35C78.4114 115.848 78.6891 115.173 78.6912 114.469H77.4584C77.1078 114.469 76.7607 114.538 76.4372 114.674C76.1138 114.809 75.8206 115.008 75.5748 115.258C75.3289 115.508 75.1352 115.804 75.0051 116.13C74.8749 116.455 74.8109 116.804 74.8168 117.154Z" fill="#31BC2E"/>
<path d="M81.7734 121.742C81.1904 121.15 80.4413 120.749 79.6252 120.591C78.8092 120.434 77.9646 120.528 77.2033 120.862C76.475 121.188 75.6856 121.356 74.8874 121.355C74.5927 121.356 74.2984 121.336 74.0068 121.293V112.259C73.3062 112.259 72.6343 112.537 72.1389 113.032C71.6435 113.528 71.3652 114.2 71.3652 114.9V120.113C70.2701 119.251 69.5283 118.019 69.2795 116.648C69.0307 115.277 69.2922 113.862 70.0147 112.67C70.7372 111.479 71.8707 110.593 73.2014 110.18C74.5322 109.766 75.9681 109.854 77.2385 110.427C77.9949 110.766 78.8361 110.868 79.6516 110.72C80.4671 110.572 81.219 110.182 81.8086 109.599L81.3859 109.177C79.7936 107.588 77.6722 106.64 75.4262 106.515C73.1801 106.39 70.9666 107.096 69.2078 108.499C68.9524 108.71 68.6971 108.939 68.4505 109.177C67.6047 110.028 66.9358 111.038 66.4824 112.148C66.029 113.259 65.8001 114.449 65.8088 115.649C65.8013 116.847 66.0308 118.035 66.4841 119.144C66.9375 120.253 67.6058 121.262 68.4505 122.112C68.6971 122.35 68.9524 122.579 69.2078 122.79C70.9666 124.192 73.1801 124.898 75.4262 124.773C77.6722 124.648 79.7936 123.701 81.3859 122.112L81.8086 121.698L81.7734 121.742Z" fill="#31BC2E"/>
</svg>
