<svg width="160" height="160" viewBox="0 0 160 160" fill="none" xmlns="http://www.w3.org/2000/svg">
<rect x="6.66016" y="15.8796" width="17.1083" height="105.191" rx="8.55413" fill="#B2F3A0"/>
<circle cx="15.2148" cy="24.4461" r="6.90068" fill="#31B92E"/>
<path fill-rule="evenodd" clip-rule="evenodd" d="M19.5411 21.3516C19.7529 21.5634 19.7529 21.9067 19.5411 22.1184L14.1192 27.5404C13.9074 27.7521 13.5641 27.7521 13.3524 27.5404L10.6414 24.8294C10.4297 24.6176 10.4297 24.2743 10.6414 24.0626C10.8532 23.8509 11.1965 23.8509 11.4082 24.0626L13.7358 26.3902L18.7744 21.3516C18.9861 21.1399 19.3294 21.1399 19.5411 21.3516Z" fill="white"/>
<circle cx="15.2148" cy="66.8358" r="6.90068" fill="#31B92E"/>
<path fill-rule="evenodd" clip-rule="evenodd" d="M19.5411 63.7413C19.7529 63.953 19.7529 64.2963 19.5411 64.5081L14.1192 69.93C13.9074 70.1418 13.5641 70.1418 13.3524 69.93L10.6414 67.219C10.4297 67.0073 10.4297 66.664 10.6414 66.4523C10.8532 66.2405 11.1965 66.2405 11.4082 66.4523L13.7358 68.7799L18.7744 63.7413C18.9861 63.5295 19.3294 63.5295 19.5411 63.7413Z" fill="white"/>
<ellipse cx="15.2148" cy="112.262" rx="6.90068" ry="6.90068" fill="#31B92E"/>
<path fill-rule="evenodd" clip-rule="evenodd" d="M19.5411 109.167C19.7529 109.379 19.7529 109.722 19.5411 109.934L14.1192 115.356C13.9074 115.568 13.5641 115.568 13.3524 115.356L10.6414 112.645C10.4297 112.433 10.4297 112.09 10.6414 111.878C10.8532 111.666 11.1965 111.666 11.4082 111.878L13.7358 114.206L18.7744 109.167C18.9861 108.955 19.3294 108.955 19.5411 109.167Z" fill="white"/>
<rect x="31.9457" y="15.8795" width="120.716" height="33.0799" rx="4.43615" fill="#B4F6A2"/>
<rect x="38.8843" y="23.4328" width="105.418" height="6.78347" rx="3.39174" fill="#31B92E"/>
<rect x="38.8842" y="34.6227" width="62.9463" height="6.78347" rx="3.39174" fill="#31B92E"/>
<rect x="31.9457" y="59.9351" width="120.716" height="34.45" rx="4.43615" fill="#B6FFEE"/>
<rect x="38.8843" y="68.8594" width="105.418" height="6.78347" rx="3.39174" fill="#00DFC4"/>
<rect x="38.8842" y="79.7588" width="62.9463" height="6.78347" rx="3.39174" fill="#00DFC4"/>
<rect x="31.9457" y="105.361" width="120.716" height="34.4501" rx="4.43615" fill="#FFE9B3"/>
<rect x="38.8843" y="113.744" width="105.418" height="6.78347" rx="3.39174" fill="#FBB33A"/>
<rect x="38.8842" y="124.644" width="62.9463" height="6.78348" rx="3.39174" fill="#FBB33A"/>
</svg>
