<svg width="160" height="160" viewBox="0 0 160 160" fill="none" xmlns="http://www.w3.org/2000/svg">
<mask id="mask0_3269_46152" style="mask-type:alpha" maskUnits="userSpaceOnUse" x="45" y="6" width="70" height="69">
<rect x="45.6812" y="6.99023" width="68.6375" height="67.9009" fill="#E2E5DC"/>
</mask>
<g mask="url(#mask0_3269_46152)">
<path d="M101.479 100.83L96.3045 75.1722L106.401 73.3628L111.757 97.8622C112.264 100.178 110.816 102.458 108.5 102.965C106.256 103.508 102.095 103.037 101.479 100.83Z" fill="#A34321"/>
<path d="M50.7433 93.013L54.2536 67.066L64.3501 68.6583L61.3827 93.5558C61.0932 95.9081 58.9942 97.5727 56.642 97.3194C54.3983 97.1023 50.6348 95.2929 50.7433 93.013Z" fill="#A34321"/>
<path d="M92.2145 88.3083L109.621 84.7257L105.64 65.2926C104.663 60.4796 99.9588 57.4036 95.1458 58.3806C90.3328 59.3577 87.2567 64.0622 88.2338 68.8752L92.2145 88.3083Z" fill="#303D29"/>
<path d="M80.3083 58.7787L60.5134 59.5025C59.1744 60.0453 58.4507 61.529 58.8849 62.9042L65.3988 102.132C65.6883 103.797 67.1358 105.027 68.8367 105.027H92.4676C94.3132 105.027 95.8331 103.616 95.9416 101.77C96.4845 92.9766 98.0768 68.9114 99.8138 61.6014C100.139 60.1539 99.4519 58.7063 98.0406 58.1997L80.3083 58.7787Z" fill="#303D29"/>
<path d="M64.8564 89.3943L47.4499 85.8116L51.4306 66.3785C52.4077 61.5655 57.1121 58.4895 61.9252 59.4666C66.7382 60.4437 69.8142 65.1481 68.8371 69.9612L64.8564 89.3943Z" fill="#303D29"/>
<mask id="mask1_3269_46152" style="mask-type:alpha" maskUnits="userSpaceOnUse" x="88" y="58" width="22" height="31">
<path d="M92.2145 88.3083L109.621 84.7257L105.64 65.2926C104.663 60.4796 99.9588 57.4036 95.1458 58.3806C90.3328 59.3577 87.2567 64.0622 88.2338 68.8752L92.2145 88.3083Z" fill="#31B92E"/>
</mask>
<g mask="url(#mask1_3269_46152)">
<path d="M90.1156 58.9595C90.8756 60.2622 91.6355 61.6012 91.925 63.0849C92.2145 64.5686 91.925 66.2333 90.8032 67.2466C89.2471 68.6941 86.6777 68.4046 85.0131 69.7074C83.7827 70.6845 83.3122 72.4939 83.8912 73.9414C84.4702 75.3889 86.0987 76.3298 87.6548 76.1851C88.7767 76.0765 89.7537 75.4251 90.767 74.9909C91.8165 74.5566 93.0469 74.3033 93.9878 74.9185C94.7839 75.4251 95.1096 76.4022 95.7248 77.126C97.0999 78.7906 99.7055 78.9716 101.696 78.1754C103.722 77.3793 105.351 75.8594 107.052 74.5204C107.739 73.9776 108.463 73.471 109.295 73.29C110.128 73.1091 111.141 73.3986 111.539 74.1585" stroke="#31B92E" stroke-width="0.214442" stroke-miterlimit="10"/>
<path d="M90.1156 58.9595C90.8756 60.2622 91.6355 61.6012 91.925 63.0849C92.2145 64.5686 91.925 66.2333 90.8032 67.2466C89.2471 68.6941 86.6777 68.4046 85.0131 69.7074C83.7827 70.6845 83.3122 72.4939 83.8912 73.9414C84.4702 75.3889 86.0987 76.3298 87.6548 76.1851C88.7767 76.0765 89.7537 75.4251 90.767 74.9909C91.8165 74.5566 93.0469 74.3033 93.9878 74.9185C94.7839 75.4251 95.1096 76.4022 95.7248 77.126C97.0999 78.7906 99.7055 78.9716 101.696 78.1754C103.722 77.3793 105.351 75.8594 107.052 74.5204C107.739 73.9776 108.463 73.471 109.295 73.29C110.128 73.1091 111.141 73.3986 111.539 74.1585" stroke="#31B92E" stroke-width="0.214442" stroke-miterlimit="10"/>
<path d="M107.45 66.8848C106.979 68.1514 106.364 69.3094 105.532 70.3589C104.555 71.6255 103.143 72.7835 101.515 72.7111C99.814 72.6388 98.4026 71.0103 98.3303 69.3094C98.2941 68.5857 98.475 67.8981 98.6198 67.2105C98.8369 66.0163 98.9816 64.7497 98.9816 63.5193C98.9816 62.1442 98.8369 60.7328 98.1131 59.5748C97.3894 58.4168 95.9418 57.5845 94.6391 57.9825" stroke="#31B92E" stroke-width="0.214442" stroke-miterlimit="10"/>
<path d="M90.1156 58.9595C90.8756 60.2622 91.6355 61.6012 91.925 63.0849C92.2145 64.5686 91.925 66.2333 90.8032 67.2466C89.2471 68.6941 86.6777 68.4046 85.0131 69.7074C83.7827 70.6845 83.3122 72.4939 83.8912 73.9414C84.4702 75.3889 86.0987 76.3298 87.6548 76.1851C88.7767 76.0765 89.7537 75.4251 90.767 74.9909C91.8165 74.5566 93.0469 74.3033 93.9878 74.9185C94.7839 75.4251 95.1096 76.4022 95.7248 77.126C97.0999 78.7906 99.7055 78.9716 101.696 78.1754C103.722 77.3793 105.351 75.8594 107.052 74.5204C107.739 73.9776 108.463 73.471 109.295 73.29C110.128 73.1091 111.141 73.3986 111.539 74.1585" stroke="#31B92E" stroke-width="0.424493" stroke-miterlimit="10"/>
<path d="M107.45 66.8848C106.979 68.1514 106.364 69.3094 105.532 70.3589C104.555 71.6255 103.143 72.7835 101.515 72.7111C99.814 72.6388 98.4026 71.0103 98.3303 69.3094C98.2941 68.5857 98.475 67.8981 98.6198 67.2105C98.8369 66.0163 98.9816 64.7497 98.9816 63.5193C98.9816 62.1442 98.8369 60.7328 98.1131 59.5748C97.3894 58.4168 95.9418 57.5845 94.6391 57.9825" stroke="#31B92E" stroke-width="0.424493" stroke-miterlimit="10"/>
</g>
<mask id="mask2_3269_46152" style="mask-type:alpha" maskUnits="userSpaceOnUse" x="47" y="59" width="23" height="31">
<path d="M64.8564 89.3943L47.4499 85.8116L51.4306 66.3785C52.4077 61.5655 57.1121 58.4895 61.9252 59.4666C66.7382 60.4437 69.8142 65.1481 68.8371 69.9612L64.8564 89.3943Z" fill="#31B92E"/>
</mask>
<g mask="url(#mask2_3269_46152)">
<path d="M53.095 59.4666C53.2759 61.8188 55.3748 63.5196 57.2566 64.931C59.1384 66.3785 61.1649 68.2241 61.0564 70.5763C60.984 72.4943 59.2831 74.2314 57.3652 74.3037C56.6414 74.3399 55.9538 74.159 55.23 74.3037C53.7463 74.5932 52.8778 76.1493 52.4798 77.5969C52.0817 79.0444 51.9369 80.6367 51.0322 81.8309C49.5847 83.8212 46.3277 84.0022 44.6269 82.2651" stroke="#31B92E" stroke-width="0.424493" stroke-miterlimit="10"/>
<path d="M49.7307 65.7632C50.9611 66.5231 52.2276 67.3555 52.9876 68.6221C53.7114 69.8886 53.7113 71.6981 52.5895 72.6028C51.0696 73.8332 48.4641 72.8923 47.1613 74.3398" stroke="#31B92E" stroke-width="0.424493" stroke-miterlimit="10"/>
<path d="M79.4362 64.2095C79.7255 65.5762 79.5447 67.048 78.9298 68.3096C78.6405 68.8703 78.2427 69.3959 77.664 69.6763C76.4343 70.2019 74.9876 69.2557 73.6855 69.6062C72.0941 70.0617 71.6601 72.1643 70.2496 73.0404C69.7432 73.3558 69.0922 73.496 68.4773 73.3908C66.669 73.1105 65.7286 71.0079 65.8009 69.2207C65.8733 67.4335 66.6328 65.7164 66.7051 63.9292C66.7775 62.142 65.8733 60.0394 64.0287 59.759" stroke="#31B92E" stroke-width="0.424493" stroke-miterlimit="10"/>
</g>
<mask id="mask3_3269_46152" style="mask-type:alpha" maskUnits="userSpaceOnUse" x="58" y="58" width="42" height="48">
<path d="M80.3079 58.7791L60.5129 59.5029C59.1739 60.0457 58.4502 61.5294 58.8844 62.9045L65.3983 102.133C65.6878 103.797 67.1353 105.028 68.8362 105.028H92.4671C94.3127 105.028 95.8326 103.616 95.9412 101.771C96.484 92.977 98.0763 68.9118 99.8133 61.6018C100.139 60.1542 99.4514 58.7067 98.0401 58.2001L80.3079 58.7791Z" fill="#31B92E"/>
</mask>
<g mask="url(#mask3_3269_46152)">
<path d="M90.1156 58.9597C90.8756 60.2625 91.6355 61.6015 91.925 63.0852C92.2145 64.5689 91.925 66.2336 90.8032 67.2468C89.2471 68.6944 86.6777 68.4048 85.0131 69.7076C83.7827 70.6847 83.3122 72.4941 83.8912 73.9416C84.4702 75.3892 86.0987 76.3301 87.6548 76.1853C88.7767 76.0768 89.7537 75.4254 90.767 74.9911C91.8165 74.5569 93.0469 74.3035 93.9878 74.9187C94.7839 75.4254 95.1096 76.4024 95.7248 77.1262C97.0999 78.7909 99.7055 78.9718 101.696 78.1757C103.722 77.3795 105.351 75.8596 107.052 74.5207C107.739 73.9778 108.463 73.4712 109.295 73.2903C110.128 73.1093 111.141 73.3988 111.539 74.1588" stroke="#31B92E" stroke-width="0.424493" stroke-miterlimit="10"/>
<path d="M81.0547 67.8799C81.3191 69.1394 81.1539 70.4957 80.592 71.6583C80.3276 72.1751 79.9641 72.6595 79.4353 72.9178C78.3116 73.4023 76.9896 72.5303 75.7998 72.8533C74.3456 73.2731 73.949 75.2108 72.6601 76.0181C72.1974 76.3088 71.6025 76.438 71.0406 76.3411C69.3881 76.0827 68.5288 74.145 68.5949 72.498C68.661 70.851 69.3551 69.2685 69.4212 67.6215C69.4873 65.9745 68.661 64.0368 66.9755 63.7784" stroke="#31B92E" stroke-width="0.424493" stroke-miterlimit="10"/>
<path d="M75.5317 62.0717C75.4232 63.1212 74.627 64.0621 73.5776 64.3154C72.5643 64.5687 71.4063 64.1344 70.7911 63.2297C69.7778 61.7098 70.5377 59.3576 69.235 58.0548" stroke="#31B92E" stroke-width="0.424493" stroke-miterlimit="10"/>
</g>
<path d="M88.4866 50.4951C88.4866 51.9376 88.8156 53.1271 89.2711 53.1271C89.7013 53.1271 90.0557 51.9376 90.0557 50.4951C90.0557 49.0526 89.7266 47.8632 89.2711 47.8632C88.8156 47.8632 88.4866 49.0273 88.4866 50.4951Z" stroke="#F7B844" stroke-width="0.452131" stroke-miterlimit="10"/>
<path d="M87.3214 47.4582C87.3214 48.4452 88.1312 49.255 89.1182 49.255C90.1052 49.255 90.915 48.4452 90.915 47.4582C90.915 46.4712 90.1052 45.6614 89.1182 45.6614C88.1565 45.6614 87.3214 46.4712 87.3214 47.4582Z" stroke="#F7B844" stroke-width="0.332257" stroke-miterlimit="10"/>
<path d="M81.8202 56.0399C80.5281 52.7681 82.623 51.9407 81.3308 48.6689C80.0387 45.3971 77.9438 46.2245 76.6517 42.9527C75.3596 39.6809 77.4544 38.8535 76.1623 35.5817C74.8702 32.3099 72.7753 33.1373 71.4832 29.8655C71.3251 29.4653 71.2185 29.1265 71.1355 28.7784L77.5143 26.2592C77.588 26.5838 77.704 26.9461 77.862 27.3463C79.1541 30.6181 81.249 29.7907 82.5412 33.0625C83.8333 36.3343 81.7384 37.1617 83.0305 40.4335C84.3227 43.7053 86.4176 42.8779 87.7097 46.1497C89.0018 49.4215 86.9069 50.2489 88.1991 53.5207C89.4819 56.769 91.5861 55.9651 92.8782 59.2369C94.1704 62.5087 92.4998 63.0325 93.3118 66.4667C93.4414 66.9325 94.3744 67.4347 93.9272 67.6113C93.4799 67.788 92.6526 65.6931 92.1818 65.879C91.7346 66.0556 92.5619 68.1505 92.0912 68.3364C91.644 68.513 90.8166 66.4181 90.3459 66.6041C89.8751 66.79 90.726 68.8756 90.2552 69.0615C89.808 69.2381 88.9806 67.1432 88.5099 67.3291C88.0627 67.5058 87.2775 69.7205 87.0303 69.3012C85.3095 66.2531 87.7773 65.0608 86.4852 61.789C85.193 58.5172 83.1217 59.3352 81.8202 56.0399Z" fill="#051616"/>
<path d="M64.0393 33.0078V37.0063C64.0393 43.2825 69.126 48.344 75.3769 48.344H78.2619C84.5381 48.344 89.5996 43.2572 89.5996 37.0063V33.0078C89.5996 31.6412 89.3719 30.3505 88.9163 29.1357C88.4355 27.8198 87.7016 26.605 86.7905 25.5421C86.1325 24.7829 85.3733 24.1249 84.5382 23.5681C84.2345 23.3657 83.9055 23.1632 83.6018 23.0114C82.0327 22.1762 80.1853 21.6954 78.2619 21.6954H75.3769C69.126 21.6701 64.0393 26.7569 64.0393 33.0078Z" fill="#051616"/>
<path d="M70.8217 52.6464H84.2852C87.2208 52.6464 89.625 50.2675 89.625 47.3066V28.4526H70.8217V52.6464Z" fill="#99492F"/>
<path d="M84.0824 39.7145C84.0824 39.7145 84.5633 38.0948 85.9552 37.943C87.3471 37.7911 88.2075 38.9553 88.2075 38.9553C88.2075 38.9553 87.9545 40.4231 86.2842 40.6255C84.6139 40.828 84.0824 39.7145 84.0824 39.7145Z" fill="white"/>
<path d="M67.8867 15.0649C67.3552 15.0649 67.8867 16.0772 67.5324 16.4568C67.1781 16.8617 65.5331 15.2674 65.1535 15.6723C64.7991 16.0772 66.3935 17.621 66.0392 18.0259C65.6849 18.4308 64.04 16.8364 63.6603 17.2413C63.306 17.6463 64.9004 19.19 64.5461 19.5949C64.1918 19.9998 63.7869 18.861 63.4073 19.2659C63.053 19.6708 63.4073 19.9492 63.3567 20.4807C63.0277 23.9731 61.1043 23.8972 61.1043 27.3896C61.1043 30.9073 63.3567 30.9073 63.3567 34.425C63.3567 37.9427 61.1043 37.9427 61.1043 41.4604C61.1043 44.9781 63.3567 44.9781 63.3567 48.4958C63.3567 52.0135 61.1043 52.0135 61.1043 55.5313C61.1043 59.049 63.3567 59.049 63.3567 62.5667C63.3567 66.0844 60.6234 66.2615 61.1043 69.754C61.1549 70.2348 62.724 68.4633 63.2048 68.4633C63.6856 68.4633 63.6857 70.7156 64.1918 70.7156C64.6727 70.7156 64.6726 68.4633 65.1788 68.4633C65.6596 68.4633 65.6596 70.7156 66.1657 70.7156C66.6719 70.7156 66.6466 68.4633 67.1528 68.4633C67.6336 68.4633 67.6336 70.7156 68.1397 70.7156C68.6206 70.7156 67.9373 69.9311 67.9879 69.4249C68.4688 65.9578 70.2402 66.0591 70.2402 62.5414C70.2402 59.0237 67.9879 59.0237 67.9879 55.506C67.9879 51.9882 70.2402 51.9882 70.2402 48.4705C70.2402 44.9528 67.9879 44.9528 67.9879 41.4351C67.9879 37.9174 70.2402 37.9174 70.2402 34.3997C70.2402 30.882 67.9879 30.882 67.9879 27.3643C67.9879 23.8465 70.3668 23.7959 70.2402 20.3035C70.2402 19.8986 67.9373 20.2782 67.8107 19.8733C67.6842 19.4684 69.8607 18.861 69.7594 18.4561C69.6582 18.0512 67.4818 18.7092 67.3552 18.3043C67.2287 17.8993 69.4051 17.292 69.3039 16.887C69.2027 16.4821 67.0262 17.1401 66.8997 16.7352C66.7732 16.3303 68.899 16.0266 68.8737 15.647C68.7978 14.66 68.2916 15.0649 67.8867 15.0649Z" fill="#051616"/>
<path d="M70.8213 51.3049V58.3657C70.8213 62.263 73.7317 65.4264 77.2747 65.4264C80.8683 65.4264 83.728 62.263 83.728 58.3657V51.3049H70.8213Z" fill="#99492F"/>
<path d="M72.5682 52.6464L83.7793 58.9226V52.6464H72.5682Z" fill="#723623"/>
<path d="M69.9108 46.9521H70.8472V39.8661H69.9108C68.4177 39.8661 67.2029 41.0808 67.2029 42.574V44.2189C67.2029 45.7374 68.4177 46.9521 69.9108 46.9521Z" fill="#99492F"/>
<path d="M79.8818 39.7145C79.8818 39.7145 79.3504 38.0948 77.8319 37.943C76.3135 37.7911 75.3518 38.9553 75.3518 38.9553C75.3518 38.9553 75.6302 40.4231 77.4776 40.6255C79.2998 40.8027 79.8818 39.7145 79.8818 39.7145Z" fill="white"/>
<path d="M76.0607 39.0816C75.9848 39.9168 76.5921 40.6507 77.4273 40.7519C78.2624 40.8278 78.9964 40.2205 79.0976 39.3853C79.1735 38.5502 78.5662 37.8163 77.731 37.715C76.9212 37.6391 76.162 38.2718 76.0607 39.0816Z" fill="black"/>
<path d="M87.5243 39.0816C87.6002 39.9168 87.0435 40.6507 86.2843 40.7519C85.525 40.8278 84.8417 40.2205 84.7658 39.3853C84.6899 38.5502 85.2467 37.8163 86.0059 37.715C86.7651 37.6391 87.4737 38.2718 87.5243 39.0816Z" fill="black"/>
<path d="M84.0824 39.7145C84.0824 39.7145 84.538 38.0443 85.9552 37.943C87.3977 37.8418 88.2075 38.9553 88.2075 38.9553" stroke="black" stroke-width="0.0977958" stroke-miterlimit="10" stroke-linecap="round" stroke-linejoin="round"/>
<path d="M77.4522 34.0453C77.4522 34.0453 76.0097 33.8682 75.048 34.1972C74.4659 34.3996 74.2635 35.0829 74.8455 35.4119C75.1998 35.6397 76.3387 35.8421 77.0726 35.9181C78.9453 36.1458 79.9829 35.6144 79.9829 35.1335C79.9829 34.5262 78.4392 34.1212 77.4522 34.0453Z" fill="#051616"/>
<path d="M86.4609 34.0456C86.4609 34.0456 87.7516 33.8938 88.6626 34.2481C89.1941 34.4759 89.3712 35.1592 88.8398 35.4629C88.5108 35.6653 87.4732 35.8678 86.8152 35.9184C85.1196 36.0955 84.1579 35.5135 84.1579 35.0832C84.1073 34.4759 85.5498 34.071 86.4609 34.0456Z" fill="#051616"/>
<path d="M81.8313 41.0809L83.1472 42.321C84.2354 43.5104 82.8941 43.6876 82.1855 43.6117L81.7553 43.5357" fill="#723623"/>
<path d="M68.6199 36.5762C68.6199 36.5762 68.6452 36.728 68.6958 36.9811C68.9235 37.8669 69.6322 39.942 70.8216 39.8914C72.3401 39.8408 72.9727 34.9312 73.7826 32.6282C74.6177 30.3253 77.933 31.0086 82.2099 31.54C85.3227 31.8943 87.7775 30.1481 88.9163 29.1358C89.3719 28.7309 89.5996 28.4525 89.5996 28.4525C89.5237 27.2884 89.0429 26.4027 88.4355 25.7194C86.9677 24.0238 84.6141 23.5682 84.5382 23.5682L71.3278 25.6687L68.6199 36.5762Z" fill="#051616"/>
<path d="M62.1923 20.6578C62.1923 24.1502 65.052 27.0099 68.5445 27.0099C72.0622 27.0099 74.9219 24.1502 74.9219 20.6578C74.9219 17.1654 72.0622 14.3057 68.5445 14.3057C65.0267 14.3057 62.1923 17.1401 62.1923 20.6578Z" fill="#051616"/>
<path d="M79.452 46.0157C79.0471 47.1546 79.6545 48.3946 80.8187 48.7742C81.9575 49.1792 83.1975 48.5718 83.5771 47.4076" fill="white"/>
<path d="M66.8234 47.7114C66.8234 48.6983 67.6332 49.5082 68.6202 49.5082C69.6072 49.5082 70.417 48.6983 70.417 47.7114C70.417 46.7244 69.6072 45.9146 68.6202 45.9146C67.6079 45.9146 66.8234 46.7244 66.8234 47.7114Z" stroke="#F7B844" stroke-width="0.332257" stroke-miterlimit="10"/>
<path d="M67.8353 50.4951C67.8353 51.9376 68.1643 53.1271 68.6198 53.1271C69.05 53.1271 69.4043 51.9376 69.4043 50.4951C69.4043 49.0526 69.0753 47.8632 68.6198 47.8632C68.1643 47.8632 67.8353 49.0273 67.8353 50.4951Z" stroke="#F7B844" stroke-width="0.452131" stroke-miterlimit="10"/>
<path d="M79.8818 39.7145C79.8818 39.7145 79.401 38.0443 77.8319 37.943C76.2629 37.8418 75.3518 38.9553 75.3518 38.9553" stroke="black" stroke-width="0.102616" stroke-miterlimit="10" stroke-linecap="round" stroke-linejoin="round"/>
</g>
<mask id="mask4_3269_46152" style="mask-type:alpha" maskUnits="userSpaceOnUse" x="42" y="3" width="76" height="75">
<rect x="42.6348" y="3.95801" width="74.7302" height="73.9653" fill="#E2E5DC"/>
</mask>
<g mask="url(#mask4_3269_46152)">
<path fill-rule="evenodd" clip-rule="evenodd" d="M109.365 7.00583H50.6348C47.8998 7.00583 45.6826 9.22299 45.6826 11.958V69.9233C45.6826 72.6583 47.8998 74.8755 50.6348 74.8755H109.365C112.1 74.8755 114.317 72.6583 114.317 69.9233V11.958C114.317 9.223 112.1 7.00583 109.365 7.00583ZM50.6348 3.95801C46.2165 3.95801 42.6348 7.53973 42.6348 11.958V69.9233C42.6348 74.3416 46.2165 77.9233 50.6348 77.9233H109.365C113.783 77.9233 117.365 74.3416 117.365 69.9233V11.958C117.365 7.53973 113.783 3.95801 109.365 3.95801H50.6348Z" fill="#E2E5DC"/>
</g>
<mask id="mask5_3269_46152" style="mask-type:alpha" maskUnits="userSpaceOnUse" x="85" y="84" width="70" height="69">
<rect x="85.5234" y="84.59" width="68.6375" height="67.9009" fill="#E2E5DC"/>
</mask>
<g mask="url(#mask5_3269_46152)">
<path d="M98.3122 172.702L77.4803 166.089L84.8399 142.83C86.6519 137.068 92.8004 133.908 98.5623 135.72C104.324 137.532 107.484 143.681 105.672 149.443L98.3122 172.702Z" fill="#31B92E"/>
<path d="M116.223 135.273L140.584 135.121C142.258 135.717 143.225 137.502 142.764 139.215L136.825 187.759C136.557 189.819 134.843 191.407 132.753 191.497L103.717 192.74C101.449 192.838 99.5073 191.183 99.2768 188.921C98.147 178.145 94.924 148.659 92.405 139.768C91.9286 138.007 92.6972 136.192 94.4047 135.495L116.223 135.273Z" fill="#31B92E"/>
<path d="M142.711 172.587L163.018 164.559L154.065 141.878C151.852 136.288 145.511 133.505 139.918 135.763C134.328 137.975 131.545 144.316 133.802 149.91L142.711 172.587Z" fill="#31B92E"/>
<path d="M106.689 120.967L131.25 119.915L130.323 98.2585C130.254 96.652 128.901 95.41 127.294 95.4788L110.055 96.2172C107.614 96.3217 105.722 98.3836 105.826 100.824L106.689 120.967Z" fill="#051616"/>
<path d="M110.16 129.052L125.515 128.394C128.882 128.25 131.453 125.416 131.31 122.079L130.387 100.515L108.977 101.432L110.16 129.052Z" fill="#99492F"/>
<path d="M124.666 113.636C124.666 113.636 125.143 111.758 126.712 111.536C128.28 111.283 129.356 112.568 129.356 112.568C129.356 112.568 129.15 114.248 127.243 114.547C125.306 114.846 124.666 113.636 124.666 113.636Z" fill="white"/>
<path d="M110.104 127.723L110.449 135.756C110.639 140.205 114.098 143.647 118.176 143.472C122.254 143.297 125.405 139.541 125.216 135.123L124.872 127.091L110.104 127.723Z" fill="#99492F"/>
<path d="M112.169 128.966L125.234 135.556L124.929 128.419L112.169 128.966Z" fill="#723623"/>
<path d="M108.831 122.578L109.881 122.533L109.536 114.469L108.485 114.514C106.786 114.587 105.456 116.037 105.528 117.736L105.609 119.621C105.682 121.32 107.132 122.651 108.831 122.578Z" fill="#99492F"/>
<path d="M119.847 113.842C119.847 113.842 119.15 112.015 117.413 111.935C115.675 111.823 114.62 113.2 114.62 113.2C114.62 113.2 115 114.855 117.11 114.981C119.22 115.107 119.847 113.842 119.847 113.842Z" fill="white"/>
<path d="M115.49 113.317C115.439 114.278 116.154 115.083 117.117 115.166C118.079 115.218 118.884 114.502 118.966 113.539C119.018 112.577 118.303 111.772 117.34 111.69C116.346 111.609 115.542 112.355 115.49 113.317Z" fill="black"/>
<path d="M128.559 112.757C128.693 113.711 128.08 114.573 127.22 114.734C126.359 114.863 125.558 114.217 125.424 113.263C125.29 112.309 125.903 111.447 126.763 111.287C127.623 111.126 128.426 111.803 128.559 112.757Z" fill="black"/>
<path d="M124.666 113.636C124.666 113.636 125.079 111.699 126.712 111.536C128.344 111.342 129.356 112.568 129.356 112.568" stroke="black" stroke-width="0.138569" stroke-miterlimit="10" stroke-linecap="round" stroke-linejoin="round"/>
<path d="M116.79 107.504C116.79 107.504 115.143 107.358 114.047 107.777C113.376 108.022 113.193 108.804 113.89 109.176C114.302 109.406 115.61 109.598 116.479 109.653C118.622 109.809 119.769 109.141 119.747 108.616C119.748 107.935 117.935 107.517 116.79 107.504Z" fill="#051616"/>
<path d="M127.078 107.064C127.078 107.064 128.554 106.846 129.591 107.204C130.219 107.424 130.438 108.189 129.867 108.585C129.507 108.848 128.341 109.083 127.572 109.209C125.666 109.507 124.526 108.906 124.503 108.381C124.441 107.641 126.029 107.14 127.078 107.064Z" fill="#051616"/>
<path d="M109.105 114.488L108.769 106.641L110.808 106.553L110.677 103.495L130.511 102.645L130.308 97.9185L108.435 98.8553L108.769 106.641" fill="#051616"/>
<path d="M118.95 120.38C119.034 122.327 120.675 123.804 122.591 123.722C124.537 123.639 126.014 121.997 125.932 120.081" fill="white"/>
<path d="M122.139 115.323L123.714 116.679C125.039 117.984 123.471 118.237 122.665 118.21L122.167 118.138" fill="#723623"/>
<path d="M119.846 113.842C119.846 113.842 119.208 111.951 117.412 111.935C115.615 111.888 114.619 113.199 114.619 113.199" stroke="black" stroke-width="0.145339" stroke-miterlimit="10" stroke-linecap="round" stroke-linejoin="round"/>
<path d="M125.398 135.193L116.591 142.787L120.671 147.557L129.478 139.963L125.398 135.193Z" fill="white"/>
<path d="M118.735 142.962L110.156 135.088L106.496 139.076L115.074 146.95L118.735 142.962Z" fill="white"/>
</g>
<mask id="mask6_3269_46152" style="mask-type:alpha" maskUnits="userSpaceOnUse" x="82" y="81" width="76" height="75">
<rect x="82.4766" y="81.5577" width="74.7302" height="73.9653" fill="#E2E5DC"/>
</mask>
<g mask="url(#mask6_3269_46152)">
<path fill-rule="evenodd" clip-rule="evenodd" d="M149.207 84.6056H90.4766C87.7415 84.6056 85.5244 86.8227 85.5244 89.5577V147.523C85.5244 150.258 87.7416 152.475 90.4766 152.475H149.207C151.942 152.475 154.159 150.258 154.159 147.523V89.5577C154.159 86.8227 151.942 84.6056 149.207 84.6056ZM90.4766 81.5577C86.0583 81.5577 82.4766 85.1395 82.4766 89.5577V147.523C82.4766 151.941 86.0583 155.523 90.4766 155.523H149.207C153.625 155.523 157.207 151.941 157.207 147.523V89.5577C157.207 85.1395 153.625 81.5577 149.207 81.5577H90.4766Z" fill="#E2E5DC"/>
</g>
<mask id="mask7_3269_46152" style="mask-type:alpha" maskUnits="userSpaceOnUse" x="5" y="84" width="70" height="69">
<rect x="5.83838" y="84.59" width="68.6375" height="67.9009" fill="#E2E5DC"/>
</mask>
<g mask="url(#mask7_3269_46152)">
<path d="M50.8911 124.885H28.5673V100.371C28.5673 98.5738 29.7467 97.0856 31.2349 97.0856H46.8756C49.094 97.0856 50.8911 99.332 50.8911 102.084V124.885Z" fill="#051616"/>
<path d="M48.0557 132.354H34.0998C31.039 132.354 28.596 129.883 28.596 126.851V107.251H48.0557V132.354Z" fill="#99492F"/>
<path d="M48.0557 131.147V138.448C48.0557 142.491 45.0511 145.749 41.3445 145.749C37.6379 145.749 34.6333 142.463 34.6333 138.448V131.147H48.0557Z" fill="#99492F"/>
<path d="M46.2305 132.354L34.6333 138.841V132.354H46.2305Z" fill="#723623"/>
<path d="M49.0098 126.43H48.0551V119.073H49.0098C50.5543 119.073 51.8179 120.336 51.8179 121.881V123.593C51.8179 125.166 50.5543 126.43 49.0098 126.43Z" fill="#99492F"/>
<path d="M35.2789 118.904H38.0869" stroke="white" stroke-width="0.303478" stroke-miterlimit="10"/>
<path d="M44.546 118.679H49.7409L50.1621 119.101" stroke="white" stroke-width="0.303478" stroke-miterlimit="10"/>
<path d="M34.2959 118.932C34.2959 118.932 33.7905 117.247 32.3584 117.107C30.9263 116.938 29.9996 118.146 29.9996 118.146C29.9996 118.146 30.2523 119.662 31.9933 119.859C33.7343 120.027 34.2959 118.932 34.2959 118.932Z" fill="white"/>
<path d="M30.7298 118.258C30.6456 119.128 31.2353 119.887 32.0215 119.999C32.8078 120.083 33.5098 119.465 33.594 118.595C33.6783 117.724 33.0886 116.966 32.3023 116.854C31.5161 116.77 30.8141 117.388 30.7298 118.258Z" fill="black"/>
<path d="M34.2959 118.932C34.2959 118.932 33.8466 117.191 32.3584 117.107C30.8701 116.994 29.9996 118.146 29.9996 118.146" stroke="black" stroke-width="0.137944" stroke-miterlimit="10" stroke-linecap="round" stroke-linejoin="round"/>
<path d="M43.3672 118.062C43.3672 118.062 42.4405 116.573 41.0084 116.798C39.5764 117.023 39.0147 118.427 39.0147 118.427C39.0147 118.427 39.6606 119.831 41.4016 119.55C43.1425 119.269 43.3672 118.062 43.3672 118.062Z" fill="white"/>
<path d="M39.7704 118.371C39.9389 119.241 40.6971 119.831 41.4552 119.69C42.2415 119.578 42.7469 118.764 42.5784 117.921C42.41 117.051 41.6518 116.461 40.8936 116.601C40.1074 116.714 39.6019 117.528 39.7704 118.371Z" fill="black"/>
<path d="M43.3931 118.062C43.3931 118.062 42.4945 116.517 41.0343 116.798C39.5741 117.107 39.0406 118.427 39.0406 118.427" stroke="black" stroke-width="0.137944" stroke-miterlimit="10" stroke-linecap="round" stroke-linejoin="round"/>
<path d="M41.2041 113.063C41.2041 113.063 42.6923 112.867 43.7032 113.204C44.321 113.4 44.5176 114.102 43.8998 114.467C43.5347 114.692 42.3554 114.917 41.5691 115.001C39.6316 115.225 38.5645 114.664 38.5645 114.186C38.5365 113.541 40.1651 113.119 41.2041 113.063Z" fill="#051616"/>
<path d="M31.8535 113.063C31.8535 113.063 30.5056 112.923 29.579 113.288C29.0174 113.513 28.8489 114.215 29.3824 114.552C29.7194 114.776 30.7864 114.945 31.4884 115.029C33.2294 115.225 34.2403 114.636 34.2403 114.158C34.2684 113.484 32.8082 113.091 31.8535 113.063Z" fill="#051616"/>
<path d="M48.4482 119.072V111.968H46.5949V109.16H28.5674V104.892H48.4482V111.968" fill="#051616"/>
<path d="M39.7441 124.829C39.7441 126.598 38.312 128.002 36.5711 128.002C34.802 128.002 33.398 126.57 33.398 124.829" fill="white"/>
<path d="M36.6545 120.336L35.2786 121.628C34.1273 122.863 35.5594 123.032 36.2895 122.976L36.7388 122.891" fill="#723623"/>
<g opacity="0.36">
<g opacity="0.36">
<path opacity="0.36" d="M44.4609 118.483C44.4609 120.28 43.0008 121.74 41.2036 121.74C39.4065 121.74 37.9463 120.28 37.9463 118.483C37.9463 116.686 39.4065 115.225 41.2036 115.225C43.0008 115.225 44.4609 116.686 44.4609 118.483Z" fill="white"/>
</g>
</g>
<path d="M44.4609 118.483C44.4609 120.28 43.0008 121.74 41.2036 121.74C39.4065 121.74 37.9463 120.28 37.9463 118.483C37.9463 116.686 39.4065 115.225 41.2036 115.225C43.0008 115.225 44.4609 116.686 44.4609 118.483Z" stroke="white" stroke-width="0.303478" stroke-miterlimit="10"/>
<g opacity="0.36">
<g opacity="0.36">
<path opacity="0.36" d="M35.2505 118.483C35.2505 120.28 33.7903 121.74 31.9932 121.74C30.196 121.74 28.7359 120.28 28.7359 118.483C28.7359 116.686 30.196 115.225 31.9932 115.225C33.7903 115.225 35.2505 116.686 35.2505 118.483Z" fill="white"/>
</g>
</g>
<path d="M35.2505 118.483C35.2505 120.28 33.7903 121.74 31.9932 121.74C30.196 121.74 28.7359 120.28 28.7359 118.483C28.7359 116.686 30.196 115.225 31.9932 115.225C33.7903 115.225 35.2505 116.686 35.2505 118.483Z" stroke="white" stroke-width="0.303478" stroke-miterlimit="10"/>
<path d="M74.4476 181.044L70.2617 150.103L58.2217 152.002L61.7603 181.692C62.1056 184.497 64.6085 186.482 67.4135 186.18C70.0891 185.921 74.5771 183.763 74.4476 181.044Z" fill="#A34321"/>
<path d="M24.9935 175.434L4.23633 171.162L8.98328 147.988C10.1484 142.249 15.7585 138.581 21.498 139.746C27.2375 140.911 30.9056 146.521 29.7404 152.261L24.9935 175.434Z" fill="#31B92E"/>
<path d="M39.1921 140.221L62.7974 141.084C64.3941 141.731 65.2572 143.5 64.7393 145.14L56.9716 191.919C56.6263 193.904 54.9002 195.372 52.8719 195.372H24.6923C22.4914 195.372 20.679 193.689 20.5495 191.488C19.9022 181.001 18.0034 152.304 15.932 143.587C15.5436 141.861 16.3636 140.134 18.0466 139.53L39.1921 140.221Z" fill="#31B92E"/>
<path d="M57.6175 176.729L78.3746 172.457L73.6277 149.283C72.4625 143.543 66.8525 139.875 61.113 141.04C55.3735 142.206 51.7054 147.816 52.8706 153.555L57.6175 176.729Z" fill="#31B92E"/>
<mask id="mask8_3269_46152" style="mask-type:alpha" maskUnits="userSpaceOnUse" x="4" y="139" width="26" height="37">
<path d="M24.9935 175.434L4.23633 171.162L8.98328 147.988C10.1484 142.249 15.7585 138.581 21.498 139.746C27.2375 140.911 30.9056 146.521 29.7404 152.261L24.9935 175.434Z" fill="#31B92E"/>
</mask>
<g mask="url(#mask8_3269_46152)">
<path d="M27.4965 140.436C26.5902 141.989 25.684 143.586 25.3388 145.355C24.9935 147.125 25.3387 149.11 26.6765 150.318C28.5321 152.044 31.5961 151.699 33.5812 153.253C35.0484 154.418 35.6094 156.576 34.919 158.302C34.2285 160.028 32.2866 161.15 30.4309 160.977C29.0932 160.848 27.928 160.071 26.7197 159.553C25.4682 159.035 24.001 158.733 22.879 159.467C21.9296 160.071 21.5412 161.236 20.8076 162.099C19.1677 164.084 16.0606 164.3 13.6871 163.351C11.2705 162.401 9.32858 160.589 7.30034 158.992C6.48041 158.345 5.61732 157.741 4.62478 157.525C3.63223 157.309 2.42391 157.654 1.94922 158.561" stroke="#022D2B" stroke-width="0.25572" stroke-miterlimit="10"/>
<path d="M27.4965 140.436C26.5902 141.989 25.684 143.586 25.3388 145.355C24.9935 147.125 25.3387 149.11 26.6765 150.318C28.5321 152.044 31.5961 151.699 33.5812 153.253C35.0484 154.418 35.6094 156.576 34.919 158.302C34.2285 160.028 32.2866 161.15 30.4309 160.977C29.0932 160.848 27.928 160.071 26.7197 159.553C25.4682 159.035 24.001 158.733 22.879 159.467C21.9296 160.071 21.5412 161.236 20.8076 162.099C19.1677 164.084 16.0606 164.3 13.6871 163.351C11.2705 162.401 9.32858 160.589 7.30034 158.992C6.48041 158.345 5.61732 157.741 4.62478 157.525C3.63223 157.309 2.42391 157.654 1.94922 158.561" stroke="#022D2B" stroke-width="0.25572" stroke-miterlimit="10"/>
<path d="M6.8252 149.887C7.3862 151.397 8.11984 152.778 9.11238 154.03C10.2775 155.54 11.9605 156.921 13.9025 156.835C15.9307 156.749 17.6137 154.807 17.7 152.778C17.7432 151.915 17.5274 151.095 17.3548 150.275C17.0959 148.851 16.9233 147.341 16.9233 145.874C16.9233 144.234 17.0959 142.551 17.959 141.17C18.8221 139.789 20.5482 138.796 22.1018 139.271" stroke="#022D2B" stroke-width="0.25572" stroke-miterlimit="10"/>
<path d="M27.4965 140.436C26.5902 141.989 25.684 143.586 25.3388 145.355C24.9935 147.125 25.3387 149.11 26.6765 150.318C28.5321 152.044 31.5961 151.699 33.5812 153.253C35.0484 154.418 35.6094 156.576 34.919 158.302C34.2285 160.028 32.2866 161.15 30.4309 160.977C29.0932 160.848 27.928 160.071 26.7197 159.553C25.4682 159.035 24.001 158.733 22.879 159.467C21.9296 160.071 21.5412 161.236 20.8076 162.099C19.1677 164.084 16.0606 164.3 13.6871 163.351C11.2705 162.401 9.32858 160.589 7.30034 158.992C6.48041 158.345 5.61732 157.741 4.62478 157.525C3.63223 157.309 2.42391 157.654 1.94922 158.561" stroke="#022D2B" stroke-width="0.506204" stroke-miterlimit="10"/>
<path d="M6.8252 149.887C7.3862 151.397 8.11984 152.778 9.11238 154.03C10.2775 155.54 11.9605 156.921 13.9025 156.835C15.9307 156.749 17.6137 154.807 17.7 152.778C17.7432 151.915 17.5274 151.095 17.3548 150.275C17.0959 148.851 16.9233 147.341 16.9233 145.874C16.9233 144.234 17.0959 142.551 17.959 141.17C18.8221 139.789 20.5482 138.796 22.1018 139.271" stroke="#022D2B" stroke-width="0.506204" stroke-miterlimit="10"/>
</g>
<mask id="mask9_3269_46152" style="mask-type:alpha" maskUnits="userSpaceOnUse" x="52" y="140" width="27" height="37">
<path d="M57.6175 176.729L78.3747 172.457L73.6277 149.283C72.4625 143.543 66.8525 139.875 61.113 141.04C55.3735 142.206 51.7054 147.816 52.8706 153.555L57.6175 176.729Z" fill="#31B92E"/>
</mask>
<g mask="url(#mask9_3269_46152)">
<path d="M71.6429 141.041C71.4272 143.846 68.9242 145.874 66.6802 147.557C64.4362 149.283 62.0196 151.484 62.149 154.289C62.2353 156.576 64.2636 158.647 66.5507 158.734C67.4138 158.777 68.2338 158.561 69.0969 158.734C70.8662 159.079 71.9019 160.935 72.3766 162.661C72.8512 164.387 73.0239 166.286 74.1027 167.71C75.8289 170.083 79.7128 170.299 81.741 168.228" stroke="#022D2B" stroke-width="0.506204" stroke-miterlimit="10"/>
<path d="M75.6563 148.549C74.1891 149.456 72.6787 150.448 71.7724 151.958C70.9094 153.469 70.9094 155.627 72.2472 156.705C74.0596 158.173 77.1667 157.051 78.7203 158.777" stroke="#022D2B" stroke-width="0.506204" stroke-miterlimit="10"/>
<path d="M40.2318 146.696C39.8868 148.326 40.1024 150.081 40.8356 151.586C41.1807 152.254 41.6551 152.881 42.3452 153.215C43.8116 153.842 45.5368 152.714 47.0894 153.132C48.9871 153.675 49.5047 156.182 51.1868 157.227C51.7906 157.603 52.5669 157.77 53.3001 157.645C55.4566 157.311 56.578 154.803 56.4917 152.672C56.4054 150.541 55.4997 148.493 55.4135 146.362C55.3272 144.231 56.4055 141.724 58.6051 141.389" stroke="#022D2B" stroke-width="0.506204" stroke-miterlimit="10"/>
</g>
<mask id="mask10_3269_46152" style="mask-type:alpha" maskUnits="userSpaceOnUse" x="15" y="139" width="50" height="57">
<path d="M39.1921 140.221L62.7974 141.084C64.3941 141.731 65.2572 143.5 64.7393 145.14L56.9716 191.919C56.6263 193.904 54.9002 195.372 52.8719 195.372H24.6923C22.4914 195.372 20.679 193.689 20.5495 191.488C19.9022 181.001 18.0034 152.304 15.932 143.587C15.5436 141.861 16.3636 140.134 18.0466 139.53L39.1921 140.221Z" fill="#31B92E"/>
</mask>
<g mask="url(#mask10_3269_46152)">
<path d="M44.8872 144.147C45.0167 145.399 45.9661 146.521 47.2175 146.823C48.4259 147.125 49.8068 146.607 50.5404 145.528C51.7487 143.716 50.8425 140.911 52.396 139.357" stroke="#022D2B" stroke-width="0.506204" stroke-miterlimit="10"/>
<path d="M27.4965 140.436C26.5902 141.989 25.684 143.586 25.3388 145.355C24.9935 147.125 25.3387 149.11 26.6765 150.318C28.5321 152.044 31.5961 151.699 33.5812 153.253C35.0484 154.418 35.6094 156.576 34.919 158.302C34.2285 160.028 32.2866 161.15 30.4309 160.977C29.0932 160.848 27.928 160.071 26.7197 159.553C25.4682 159.035 24.001 158.733 22.879 159.467C21.9296 160.071 21.5412 161.236 20.8076 162.099C19.1677 164.084 16.0606 164.3 13.6871 163.351C11.2705 162.401 9.32858 160.589 7.30034 158.992C6.48041 158.345 5.61732 157.741 4.62478 157.525C3.63223 157.309 2.42391 157.654 1.94922 158.561" stroke="#022D2B" stroke-width="0.506204" stroke-miterlimit="10"/>
<path d="M38.3005 151.074C37.9852 152.576 38.1823 154.193 38.8522 155.579C39.1675 156.196 39.6011 156.773 40.2317 157.081C41.5717 157.659 43.1481 156.619 44.5669 157.004C46.3011 157.505 46.774 159.816 48.311 160.778C48.8628 161.125 49.5722 161.279 50.2422 161.164C52.2128 160.855 53.2375 158.545 53.1587 156.581C53.0799 154.617 52.2522 152.73 52.1734 150.766C52.0946 148.801 53.0799 146.491 55.0899 146.183" stroke="#022D2B" stroke-width="0.506204" stroke-miterlimit="10"/>
</g>
<path d="M50.6408 141.141H31.9424L33.0324 135.338H49.8023L50.6408 141.141Z" fill="#303D29"/>
</g>
<mask id="mask11_3269_46152" style="mask-type:alpha" maskUnits="userSpaceOnUse" x="2" y="81" width="76" height="75">
<rect x="2.79248" y="81.5577" width="74.7302" height="73.9653" fill="#E2E5DC"/>
</mask>
<g mask="url(#mask11_3269_46152)">
<path fill-rule="evenodd" clip-rule="evenodd" d="M69.5227 84.6056H10.7925C8.05747 84.6056 5.8403 86.8227 5.8403 89.5577V147.523C5.8403 150.258 8.05747 152.475 10.7925 152.475H69.5227C72.2577 152.475 74.4748 150.258 74.4748 147.523V89.5577C74.4748 86.8227 72.2577 84.6056 69.5227 84.6056ZM10.7925 81.5577C6.3742 81.5577 2.79248 85.1395 2.79248 89.5577V147.523C2.79248 151.941 6.37421 155.523 10.7925 155.523H69.5227C73.9409 155.523 77.5227 151.941 77.5227 147.523V89.5577C77.5227 85.1395 73.9409 81.5577 69.5227 81.5577H10.7925Z" fill="#E2E5DC"/>
</g>
</svg>
