<svg width="160" height="160" viewBox="0 0 160 160" fill="none" xmlns="http://www.w3.org/2000/svg">
<mask id="mask0_468_951" style="mask-type:alpha" maskUnits="userSpaceOnUse" x="81" y="66" width="76" height="75">
<circle cx="119.175" cy="103.364" r="37.3333" fill="#D9D9D9"/>
</mask>
<g mask="url(#mask0_468_951)">
<path fill-rule="evenodd" clip-rule="evenodd" d="M119.175 138.031C138.321 138.031 153.841 122.51 153.841 103.364C153.841 84.2183 138.321 68.6975 119.175 68.6975C100.029 68.6975 84.508 84.2183 84.508 103.364C84.508 122.51 100.029 138.031 119.175 138.031ZM119.175 140.697C139.793 140.697 156.508 123.983 156.508 103.364C156.508 82.7455 139.793 66.0308 119.175 66.0308C98.556 66.0308 81.8413 82.7455 81.8413 103.364C81.8413 123.983 98.556 140.697 119.175 140.697Z" fill="#E2E5DC"/>
<mask id="mask1_468_951" style="mask-type:alpha" maskUnits="userSpaceOnUse" x="85" y="69" width="69" height="69">
<circle cx="119.333" cy="103.333" r="34" fill="#E2E5DC"/>
</mask>
<g mask="url(#mask1_468_951)">
<path d="M87.4648 161.793L98.069 136.186L87.6859 132.442L77.5768 157.462C76.6208 159.827 77.7443 162.507 80.1095 163.463C82.3914 164.444 86.4133 164.024 87.4648 161.793Z" fill="#A34321"/>
<path d="M159.503 159.564L149.553 133.211L139.341 137.331L148.478 162.71C149.341 165.09 151.972 166.344 154.35 165.52C156.687 164.734 160.171 161.935 159.503 159.564Z" fill="#A34321"/>
<path d="M99.6444 144.472L81.4176 138.686L87.8569 118.335C89.4423 113.294 94.8219 110.53 99.8632 112.115C104.905 113.7 107.669 119.08 106.084 124.121L99.6444 144.472Z" fill="#31B92E"/>
<path d="M115.316 111.724L136.63 111.591C138.095 112.113 138.941 113.674 138.538 115.173L133.341 157.646C133.106 159.449 131.607 160.838 129.778 160.916L104.374 162.004C102.389 162.089 100.69 160.642 100.489 158.663C99.5002 149.234 96.6803 123.436 94.4763 115.657C94.0595 114.116 94.732 112.528 96.226 111.918L115.316 111.724Z" fill="#31B92E"/>
<path d="M138.491 144.371L156.258 137.347L148.425 117.502C146.488 112.612 140.94 110.177 136.046 112.152C131.156 114.088 128.721 119.636 130.696 124.53L138.491 144.371Z" fill="#31B92E"/>
<path d="M106.973 99.2072L128.463 98.2868L127.651 79.3381C127.591 77.9325 126.407 76.8459 125.001 76.9061L109.918 77.5521C107.783 77.6436 106.127 79.4476 106.218 81.5831L106.973 99.2072Z" fill="#051616"/>
<path d="M110.011 106.28L123.445 105.705C126.391 105.579 128.641 103.099 128.516 100.18L127.708 81.3126L108.976 82.1149L110.011 106.28Z" fill="#99492F"/>
<path d="M122.702 92.7923C122.702 92.7923 123.119 91.1496 124.492 90.9554C125.864 90.7342 126.806 91.8583 126.806 91.8583C126.806 91.8583 126.625 93.3284 124.957 93.5894C123.262 93.8515 122.702 92.7923 122.702 92.7923Z" fill="white"/>
<path d="M109.961 105.118L110.262 112.146C110.429 116.039 113.456 119.05 117.024 118.897C120.592 118.745 123.349 115.458 123.183 111.593L122.882 104.565L109.961 105.118Z" fill="#99492F"/>
<path d="M111.768 106.205L123.199 111.971L122.932 105.727L111.768 106.205Z" fill="#723623"/>
<path d="M108.848 100.616L109.767 100.577L109.464 93.5217L108.545 93.5611C107.059 93.6248 105.894 94.8933 105.958 96.38L106.029 98.0288C106.092 99.5155 107.361 100.68 108.848 100.616Z" fill="#99492F"/>
<path d="M118.486 92.973C118.486 92.973 117.876 91.3743 116.356 91.304C114.835 91.2067 113.912 92.4107 113.912 92.4107C113.912 92.4107 114.245 93.8588 116.091 93.9693C117.937 94.0797 118.486 92.973 118.486 92.973Z" fill="white"/>
<path d="M114.674 92.5132C114.629 93.3547 115.255 94.059 116.098 94.1313C116.939 94.1765 117.643 93.5505 117.716 92.7079C117.761 91.8665 117.135 91.1621 116.292 91.0899C115.423 91.0188 114.719 91.6718 114.674 92.5132Z" fill="black"/>
<path d="M126.109 92.0236C126.226 92.8581 125.69 93.6122 124.937 93.7528C124.184 93.8663 123.483 93.3006 123.366 92.4661C123.249 91.6316 123.785 90.8774 124.537 90.7369C125.29 90.5964 125.992 91.1891 126.109 92.0236Z" fill="black"/>
<path d="M122.703 92.7922C122.703 92.7922 123.064 91.0978 124.493 90.9553C125.921 90.7858 126.806 91.8582 126.806 91.8582" stroke="black" stroke-width="0.12124" stroke-miterlimit="10" stroke-linecap="round" stroke-linejoin="round"/>
<path d="M115.81 87.4278C115.81 87.4278 114.37 87.2999 113.41 87.666C112.824 87.8806 112.664 88.5645 113.273 88.8905C113.634 89.0916 114.779 89.2593 115.539 89.3079C117.413 89.4443 118.417 88.8597 118.398 88.4002C118.399 87.8043 116.813 87.439 115.81 87.4278Z" fill="#051616"/>
<path d="M124.812 87.0422C124.812 87.0422 126.104 86.8515 127.011 87.1647C127.561 87.3578 127.752 88.0266 127.252 88.373C126.937 88.6031 125.917 88.8093 125.245 88.9193C123.577 89.1803 122.579 88.6544 122.56 88.1949C122.505 87.5473 123.894 87.1086 124.812 87.0422Z" fill="#051616"/>
<path d="M109.086 93.538L108.792 86.6722L110.576 86.5958L110.462 83.9197L127.815 83.1764L127.638 79.0407L108.5 79.8604L108.792 86.6722" fill="#051616"/>
<path d="M117.701 98.6935C117.774 100.396 119.211 101.689 120.886 101.617C122.589 101.544 123.882 100.108 123.81 98.4318" fill="white"/>
<path d="M120.491 94.2683L121.869 95.4549C123.028 96.5968 121.656 96.8181 120.951 96.7941L120.515 96.7315" fill="#723623"/>
<path d="M118.485 92.973C118.485 92.973 117.927 91.3179 116.356 91.304C114.783 91.263 113.912 92.4106 113.912 92.4106" stroke="black" stroke-width="0.127163" stroke-miterlimit="10" stroke-linecap="round" stroke-linejoin="round"/>
<path d="M123.342 111.653L115.637 118.298L119.206 122.471L126.912 115.827L123.342 111.653Z" fill="white"/>
<path d="M117.513 118.451L110.007 111.562L106.805 115.051L114.311 121.94L117.513 118.451Z" fill="white"/>
</g>
</g>
<mask id="mask2_468_951" style="mask-type:alpha" maskUnits="userSpaceOnUse" x="1" y="66" width="76" height="75">
<ellipse cx="39.1746" cy="103.364" rx="37.3333" ry="37.3333" fill="#D9D9D9"/>
</mask>
<g mask="url(#mask2_468_951)">
<path fill-rule="evenodd" clip-rule="evenodd" d="M39.1746 138.031C58.3205 138.031 73.8413 122.51 73.8413 103.364C73.8413 84.2183 58.3205 68.6975 39.1746 68.6975C20.0288 68.6975 4.50798 84.2183 4.50798 103.364C4.50798 122.51 20.0288 138.031 39.1746 138.031ZM39.1746 140.697C59.7933 140.697 76.508 123.983 76.508 103.364C76.508 82.7455 59.7933 66.0308 39.1746 66.0308C18.556 66.0308 1.84131 82.7455 1.84131 103.364C1.84131 123.983 18.556 140.697 39.1746 140.697Z" fill="#E2E5DC"/>
<mask id="mask3_468_951" style="mask-type:alpha" maskUnits="userSpaceOnUse" x="5" y="69" width="69" height="69">
<ellipse cx="39.3335" cy="103.333" rx="34" ry="34" fill="#E2E5DC"/>
</mask>
<g mask="url(#mask3_468_951)">
<path d="M47.8735 101.302H28.3415V79.8531C28.3415 78.2807 29.3734 76.9786 30.6755 76.9786H44.3602C46.3011 76.9786 47.8735 78.9441 47.8735 81.3518V101.302Z" fill="#051616"/>
<path d="M45.3921 107.837H33.1815C30.5035 107.837 28.366 105.675 28.366 103.021V85.8723H45.3921V107.837Z" fill="#99492F"/>
<path d="M45.3921 106.78V113.168C45.3921 116.706 42.7632 119.556 39.5202 119.556C36.2771 119.556 33.6483 116.681 33.6483 113.168V106.78H45.3921Z" fill="#99492F"/>
<path d="M43.7949 107.837L33.6481 113.512V107.837H43.7949Z" fill="#723623"/>
<path d="M46.2272 102.653H45.3919V96.2158H46.2272C47.5785 96.2158 48.6841 97.3214 48.6841 98.6727V100.171C48.6841 101.547 47.5785 102.653 46.2272 102.653Z" fill="#99492F"/>
<path d="M34.2136 96.0682H36.6704" stroke="white" stroke-width="0.265525" stroke-miterlimit="10"/>
<path d="M42.3211 95.8718H46.8663L47.2349 96.2404" stroke="white" stroke-width="0.265525" stroke-miterlimit="10"/>
<path d="M33.3535 96.0931C33.3535 96.0931 32.9113 94.6189 31.6583 94.4961C30.4053 94.3487 29.5945 95.4051 29.5945 95.4051C29.5945 95.4051 29.8156 96.7318 31.3389 96.9038C32.8621 97.0512 33.3535 96.0931 33.3535 96.0931Z" fill="white"/>
<path d="M30.2336 95.5032C30.1599 96.2648 30.6758 96.9281 31.3637 97.0264C32.0517 97.1001 32.6659 96.5596 32.7396 95.798C32.8133 95.0364 32.2973 94.373 31.6094 94.2747C30.9215 94.201 30.3073 94.7415 30.2336 95.5032Z" fill="black"/>
<path d="M33.3535 96.0928C33.3535 96.0928 32.9604 94.5696 31.6583 94.4959C30.3561 94.3976 29.5945 95.4049 29.5945 95.4049" stroke="black" stroke-width="0.120693" stroke-miterlimit="10" stroke-linecap="round" stroke-linejoin="round"/>
<path d="M41.2896 95.3314C41.2896 95.3314 40.4788 94.0292 39.2258 94.2258C37.9728 94.4223 37.4814 95.6508 37.4814 95.6508C37.4814 95.6508 38.0465 96.8792 39.5697 96.6335C41.093 96.3878 41.2896 95.3314 41.2896 95.3314Z" fill="white"/>
<path d="M38.1437 95.6016C38.2911 96.3632 38.9545 96.8792 39.6178 96.7563C40.3057 96.6581 40.748 95.9456 40.6006 95.2085C40.4531 94.4469 39.7898 93.9309 39.1264 94.0538C38.4385 94.1521 37.9963 94.8646 38.1437 95.6016Z" fill="black"/>
<path d="M41.313 95.3314C41.313 95.3314 40.5268 93.9802 39.2492 94.2258C37.9717 94.4961 37.5049 95.6508 37.5049 95.6508" stroke="black" stroke-width="0.120693" stroke-miterlimit="10" stroke-linecap="round" stroke-linejoin="round"/>
<path d="M39.3974 90.9581C39.3974 90.9581 40.6995 90.7861 41.584 91.081C42.1245 91.253 42.2965 91.8672 41.756 92.1866C41.4366 92.3831 40.4047 92.5797 39.7168 92.6534C38.0215 92.8499 37.0879 92.3585 37.0879 91.9409C37.0634 91.3758 38.4883 91.0073 39.3974 90.9581Z" fill="#051616"/>
<path d="M31.216 90.9582C31.216 90.9582 30.0367 90.8353 29.2259 91.1547C28.7346 91.3513 28.5872 91.9655 29.054 92.2603C29.3488 92.4568 30.2824 92.6043 30.8966 92.678C32.4199 92.8499 33.3043 92.334 33.3043 91.9163C33.3289 91.3267 32.0513 90.9827 31.216 90.9582Z" fill="#051616"/>
<path d="M45.7358 96.2157V89.9998H44.1143V87.543H28.3413V83.8085H45.7358V89.9998" fill="#051616"/>
<path d="M38.1201 101.252C38.1201 102.8 36.8671 104.029 35.3439 104.029C33.796 104.029 32.5676 102.776 32.5676 101.252" fill="white"/>
<path d="M35.417 97.3214L34.2132 98.4516C33.2058 99.5326 34.4588 99.68 35.0976 99.6309L35.4907 99.5571" fill="#723623"/>
<g opacity="0.36">
<g opacity="0.36">
<path opacity="0.36" d="M42.2466 95.6997C42.2466 97.2721 40.969 98.5497 39.3966 98.5497C37.8242 98.5497 36.5467 97.2721 36.5467 95.6997C36.5467 94.1273 37.8242 92.8497 39.3966 92.8497C40.969 92.8497 42.2466 94.1273 42.2466 95.6997Z" fill="white"/>
</g>
</g>
<path d="M42.2466 95.6997C42.2466 97.2721 40.969 98.5497 39.3966 98.5497C37.8242 98.5497 36.5467 97.2721 36.5467 95.6997C36.5467 94.1273 37.8242 92.8497 39.3966 92.8497C40.969 92.8497 42.2466 94.1273 42.2466 95.6997Z" stroke="white" stroke-width="0.265525" stroke-miterlimit="10"/>
<g opacity="0.36">
<g opacity="0.36">
<path opacity="0.36" d="M34.188 95.6997C34.188 97.2721 32.9104 98.5497 31.338 98.5497C29.7656 98.5497 28.4881 97.2721 28.4881 95.6997C28.4881 94.1273 29.7656 92.8497 31.338 92.8497C32.9104 92.8497 34.188 94.1273 34.188 95.6997Z" fill="white"/>
</g>
</g>
<path d="M34.188 95.6997C34.188 97.2721 32.9104 98.5497 31.338 98.5497C29.7656 98.5497 28.4881 97.2721 28.4881 95.6997C28.4881 94.1273 29.7656 92.8497 31.338 92.8497C32.9104 92.8497 34.188 94.1273 34.188 95.6997Z" stroke="white" stroke-width="0.265525" stroke-miterlimit="10"/>
<path d="M15.5482 158.593L20.9475 131.823L10.4132 129.935L4.82512 155.497C4.29652 157.913 5.80681 160.292 8.22328 160.821C10.5642 161.387 14.9063 160.896 15.5482 158.593Z" fill="#A34321"/>
<path d="M68.4834 150.437L64.8209 123.365L54.2866 125.027L57.3827 151.004C57.6848 153.458 59.8747 155.195 62.3289 154.931C64.6699 154.704 68.5966 152.816 68.4834 150.437Z" fill="#A34321"/>
<path d="M25.214 145.529L7.05273 141.791L11.206 121.515C12.2255 116.494 17.1339 113.284 22.1557 114.304C27.1774 115.323 30.3868 120.232 29.3673 125.253L25.214 145.529Z" fill="#31B92E"/>
<path d="M37.6366 114.719L58.2898 115.474C59.6868 116.041 60.442 117.589 59.9889 119.024L53.1926 159.952C52.8905 161.689 51.3802 162.973 49.6056 162.973H24.9501C23.0245 162.973 21.4387 161.5 21.3254 159.575C20.759 150.4 19.0977 125.291 17.2854 117.664C16.9456 116.154 17.6629 114.644 19.1355 114.115L37.6366 114.719Z" fill="#31B92E"/>
<path d="M53.7581 146.662L71.9194 142.924L67.7661 122.648C66.7466 117.626 61.8382 114.417 56.8165 115.436C51.7947 116.456 48.5854 121.364 49.6048 126.386L53.7581 146.662Z" fill="#31B92E"/>
<mask id="mask4_468_951" style="mask-type:alpha" maskUnits="userSpaceOnUse" x="7" y="114" width="23" height="32">
<path d="M25.214 145.529L7.05273 141.791L11.206 121.515C12.2255 116.494 17.1339 113.284 22.1557 114.304C27.1774 115.323 30.3868 120.232 29.3673 125.253L25.214 145.529Z" fill="#31B92E"/>
</mask>
<g mask="url(#mask4_468_951)">
<path d="M27.4041 114.908C26.6112 116.267 25.8183 117.664 25.5162 119.212C25.2142 120.76 25.5162 122.497 26.6867 123.554C28.3103 125.064 30.991 124.762 32.7279 126.122C34.0116 127.141 34.5025 129.029 33.8984 130.539C33.2943 132.049 31.5952 133.031 29.9716 132.88C28.8011 132.767 27.7817 132.087 26.7245 131.634C25.6295 131.181 24.3458 130.917 23.3641 131.559C22.5334 132.087 22.1936 133.107 21.5517 133.862C20.1169 135.599 17.3984 135.787 15.3218 134.957C13.2073 134.126 11.5083 132.54 9.73368 131.143C9.01629 130.577 8.26114 130.048 7.39272 129.859C6.5243 129.671 5.46709 129.973 5.05176 130.766" stroke="#022D2B" stroke-width="0.223741" stroke-miterlimit="10"/>
<path d="M27.4041 114.908C26.6112 116.267 25.8183 117.664 25.5162 119.212C25.2142 120.76 25.5162 122.497 26.6867 123.554C28.3103 125.064 30.991 124.762 32.7279 126.122C34.0116 127.141 34.5025 129.029 33.8984 130.539C33.2943 132.049 31.5952 133.031 29.9716 132.88C28.8011 132.767 27.7817 132.087 26.7245 131.634C25.6295 131.181 24.3458 130.917 23.3641 131.559C22.5334 132.087 22.1936 133.107 21.5517 133.862C20.1169 135.599 17.3984 135.787 15.3218 134.957C13.2073 134.126 11.5083 132.54 9.73368 131.143C9.01629 130.577 8.26114 130.048 7.39272 129.859C6.5243 129.671 5.46709 129.973 5.05176 130.766" stroke="#022D2B" stroke-width="0.223741" stroke-miterlimit="10"/>
<path d="M9.31787 123.177C9.80872 124.498 10.4506 125.706 11.319 126.801C12.3385 128.123 13.811 129.331 15.5101 129.256C17.2847 129.18 18.7572 127.481 18.8327 125.706C18.8705 124.951 18.6817 124.234 18.5307 123.516C18.3041 122.27 18.1531 120.949 18.1531 119.665C18.1531 118.23 18.3041 116.758 19.0593 115.55C19.8144 114.341 21.3247 113.473 22.684 113.888" stroke="#022D2B" stroke-width="0.223741" stroke-miterlimit="10"/>
<path d="M27.4041 114.908C26.6112 116.267 25.8183 117.664 25.5162 119.212C25.2142 120.76 25.5162 122.497 26.6867 123.554C28.3103 125.064 30.991 124.762 32.7279 126.122C34.0116 127.141 34.5025 129.029 33.8984 130.539C33.2943 132.049 31.5952 133.031 29.9716 132.88C28.8011 132.767 27.7817 132.087 26.7245 131.634C25.6295 131.181 24.3458 130.917 23.3641 131.559C22.5334 132.087 22.1936 133.107 21.5517 133.862C20.1169 135.599 17.3984 135.787 15.3218 134.957C13.2073 134.126 11.5083 132.54 9.73368 131.143C9.01629 130.577 8.26114 130.048 7.39272 129.859C6.5243 129.671 5.46709 129.973 5.05176 130.766" stroke="#022D2B" stroke-width="0.442899" stroke-miterlimit="10"/>
<path d="M9.31787 123.177C9.80872 124.498 10.4506 125.706 11.319 126.801C12.3385 128.123 13.811 129.331 15.5101 129.256C17.2847 129.18 18.7572 127.481 18.8327 125.706C18.8705 124.951 18.6817 124.234 18.5307 123.516C18.3041 122.27 18.1531 120.949 18.1531 119.665C18.1531 118.23 18.3041 116.758 19.0593 115.55C19.8144 114.341 21.3247 113.473 22.684 113.888" stroke="#022D2B" stroke-width="0.442899" stroke-miterlimit="10"/>
</g>
<mask id="mask5_468_951" style="mask-type:alpha" maskUnits="userSpaceOnUse" x="49" y="115" width="23" height="32">
<path d="M53.7581 146.662L71.9194 142.924L67.7661 122.648C66.7466 117.626 61.8382 114.417 56.8165 115.436C51.7947 116.456 48.5854 121.364 49.6048 126.386L53.7581 146.662Z" fill="#31B92E"/>
</mask>
<g mask="url(#mask5_468_951)">
<path d="M66.0302 115.436C65.8414 117.891 63.6515 119.665 61.6881 121.138C59.7247 122.648 57.6103 124.574 57.7236 127.028C57.7991 129.029 59.5737 130.841 61.5748 130.917C62.33 130.955 63.0474 130.766 63.8025 130.917C65.3506 131.219 66.2568 132.843 66.6721 134.353C67.0874 135.863 67.2384 137.524 68.1824 138.77C69.6927 140.847 73.0908 141.036 74.8654 139.224" stroke="#022D2B" stroke-width="0.442899" stroke-miterlimit="10"/>
<path d="M69.5407 122.006C68.2569 122.799 66.9354 123.668 66.1425 124.989C65.3874 126.311 65.3874 128.198 66.5579 129.142C68.1437 130.426 70.8622 129.444 72.2215 130.955" stroke="#022D2B" stroke-width="0.442899" stroke-miterlimit="10"/>
<path d="M38.5472 120.385C38.2453 121.811 38.434 123.347 39.0755 124.663C39.3774 125.248 39.7925 125.796 40.3962 126.089C41.6793 126.637 43.1887 125.65 44.5472 126.016C46.2076 126.491 46.6604 128.685 48.1321 129.599C48.6604 129.928 49.3397 130.074 49.9812 129.965C51.868 129.672 52.8491 127.478 52.7736 125.614C52.6982 123.749 51.9057 121.957 51.8302 120.093C51.7548 118.228 52.6982 116.034 54.6227 115.742" stroke="#022D2B" stroke-width="0.442899" stroke-miterlimit="10"/>
</g>
<mask id="mask6_468_951" style="mask-type:alpha" maskUnits="userSpaceOnUse" x="17" y="114" width="44" height="49">
<path d="M37.637 114.719L58.2903 115.474C59.6873 116.041 60.4425 117.589 59.9894 119.023L53.1931 159.952C52.891 161.689 51.3807 162.973 49.6061 162.973H24.9506C23.025 162.973 21.4392 161.5 21.3259 159.575C20.7595 150.4 19.0982 125.291 17.2859 117.664C16.946 116.154 17.6634 114.644 19.136 114.115L37.637 114.719Z" fill="#31B92E"/>
</mask>
<g mask="url(#mask6_468_951)">
<path d="M42.6201 118.155C42.7334 119.249 43.5641 120.231 44.659 120.495C45.7162 120.76 46.9245 120.307 47.5663 119.363C48.6235 117.777 47.8306 115.323 49.1899 113.963" stroke="#022D2B" stroke-width="0.442899" stroke-miterlimit="10"/>
<path d="M27.4041 114.907C26.6112 116.267 25.8183 117.664 25.5162 119.212C25.2142 120.76 25.5162 122.497 26.6867 123.554C28.3103 125.064 30.991 124.762 32.7279 126.121C34.0116 127.141 34.5025 129.029 33.8984 130.539C33.2943 132.049 31.5952 133.031 29.9716 132.88C28.8011 132.767 27.7817 132.087 26.7245 131.634C25.6295 131.181 24.3458 130.917 23.3641 131.558C22.5334 132.087 22.1936 133.106 21.5517 133.862C20.1169 135.598 17.3984 135.787 15.3218 134.957C13.2073 134.126 11.5083 132.54 9.73368 131.143C9.01629 130.577 8.26114 130.048 7.39272 129.859C6.5243 129.671 5.46709 129.973 5.05176 130.765" stroke="#022D2B" stroke-width="0.442899" stroke-miterlimit="10"/>
<path d="M36.8574 124.215C36.5815 125.529 36.7539 126.944 37.3401 128.157C37.616 128.696 37.9953 129.202 38.547 129.471C39.7194 129.977 41.0987 129.067 42.3401 129.404C43.8574 129.842 44.2712 131.864 45.616 132.706C46.0988 133.009 46.7195 133.144 47.3057 133.043C49.0298 132.773 49.9264 130.752 49.8574 129.033C49.7884 127.315 49.0643 125.664 48.9953 123.945C48.9263 122.227 49.7884 120.205 51.5471 119.935" stroke="#022D2B" stroke-width="0.442899" stroke-miterlimit="10"/>
<path d="M42.6951 140.885C43.7145 140.318 44.5452 139.412 44.9605 138.355C45.3758 137.298 45.2626 135.976 44.5829 135.032C43.6767 133.824 41.9021 133.446 40.4674 133.9C38.6173 134.466 35.5212 137.109 36.012 139.337C36.5784 142.168 40.7694 141.98 42.6951 140.885Z" stroke="#022D2B" stroke-width="0.442899" stroke-miterlimit="10"/>
</g>
<path d="M47.654 115.525H31.2939L32.2477 110.447H46.9204L47.654 115.525Z" fill="#303D29"/>
</g>
</g>
<mask id="mask7_468_951" style="mask-type:alpha" maskUnits="userSpaceOnUse" x="41" y="18" width="76" height="75">
<circle cx="79.1746" cy="55.3642" r="37.3333" fill="#D9D9D9"/>
</mask>
<g mask="url(#mask7_468_951)">
<path fill-rule="evenodd" clip-rule="evenodd" d="M79.1746 90.0308C98.3205 90.0308 113.841 74.51 113.841 55.3642C113.841 36.2183 98.3205 20.6975 79.1746 20.6975C60.0288 20.6975 44.508 36.2183 44.508 55.3642C44.508 74.51 60.0288 90.0308 79.1746 90.0308ZM79.1746 92.6975C99.7933 92.6975 116.508 75.9828 116.508 55.3642C116.508 34.7455 99.7933 18.0308 79.1746 18.0308C58.556 18.0308 41.8413 34.7455 41.8413 55.3642C41.8413 75.9828 58.556 92.6975 79.1746 92.6975Z" fill="#E2E5DC"/>
<mask id="mask8_468_951" style="mask-type:alpha" maskUnits="userSpaceOnUse" x="44" y="20" width="70" height="71">
<circle cx="79.1413" cy="55.3334" r="34.6745" fill="#E2E5DC"/>
</mask>
<g mask="url(#mask8_468_951)">
<path fill-rule="evenodd" clip-rule="evenodd" d="M79.1412 91.3162C99.014 91.3162 115.124 75.2061 115.124 55.3333C115.124 35.4605 99.014 19.3503 79.1412 19.3503C59.2683 19.3503 43.1582 35.4605 43.1582 55.3333C43.1582 75.2061 59.2683 91.3162 79.1412 91.3162Z" fill="white"/>
<path d="M101.415 117.037L96.1163 90.7666L106.454 88.9139L111.938 113.999C112.457 116.37 110.975 118.705 108.603 119.224C106.306 119.779 102.045 119.298 101.415 117.037Z" fill="#A34321"/>
<path d="M49.4669 109.034L53.0611 82.4666L63.3989 84.097L60.3606 109.59C60.0641 111.998 57.915 113.703 55.5066 113.443C53.2093 113.221 49.3557 111.368 49.4669 109.034Z" fill="#A34321"/>
<path d="M91.9283 104.217L109.751 100.549L105.675 80.651C104.675 75.7229 99.8578 72.5734 94.9297 73.5738C90.0016 74.5743 86.852 79.3912 87.8525 84.3193L91.9283 104.217Z" fill="#303D29"/>
<path d="M79.7376 73.9814L59.4695 74.7225C58.0985 75.2783 57.3575 76.7975 57.8021 78.2055L64.4717 118.371C64.7681 120.076 66.2502 121.335 67.9918 121.335H92.1875C94.0773 121.335 95.6335 119.89 95.7446 118.001C96.3004 108.997 97.9308 84.3563 99.7093 76.8716C100.043 75.3894 99.3388 73.9073 97.8938 73.3885L79.7376 73.9814Z" fill="#303D29"/>
<path d="M63.9176 105.329L46.0949 101.66L50.1708 81.7628C51.1712 76.8347 55.9882 73.6851 60.9163 74.6856C65.8443 75.686 68.9939 80.5029 67.9934 85.431L63.9176 105.329Z" fill="#303D29"/>
<mask id="mask9_468_951" style="mask-type:alpha" maskUnits="userSpaceOnUse" x="87" y="73" width="23" height="32">
<path d="M91.9283 104.217L109.751 100.549L105.675 80.6511C104.675 75.723 99.8578 72.5734 94.9297 73.5739C90.0016 74.5743 86.852 79.3912 87.8525 84.3193L91.9283 104.217Z" fill="#31B92E"/>
</mask>
<g mask="url(#mask9_468_951)">
<path d="M89.7793 74.1663C90.5574 75.5002 91.3355 76.8712 91.632 78.3904C91.9284 79.9096 91.632 81.614 90.4833 82.6515C88.89 84.1337 86.2592 83.8372 84.5548 85.1711C83.295 86.1716 82.8133 88.0242 83.4061 89.5064C83.999 90.9885 85.6664 91.9519 87.2597 91.8037C88.4083 91.6925 89.4088 91.0256 90.4463 90.5809C91.5208 90.1363 92.7806 89.8769 93.744 90.5068C94.5592 91.0256 94.8926 92.026 95.5226 92.7671C96.9306 94.4715 99.5984 94.6568 101.636 93.8416C103.711 93.0264 105.379 91.4702 107.12 90.0992C107.824 89.5434 108.565 89.0247 109.418 88.8394C110.27 88.6542 111.307 88.9506 111.715 89.7287" stroke="#31B92E" stroke-width="0.223741" stroke-miterlimit="10"/>
<path d="M89.7793 74.1663C90.5574 75.5002 91.3355 76.8712 91.632 78.3904C91.9284 79.9096 91.632 81.614 90.4833 82.6515C88.89 84.1337 86.2592 83.8372 84.5548 85.1711C83.295 86.1716 82.8133 88.0242 83.4061 89.5064C83.999 90.9885 85.6664 91.9519 87.2597 91.8037C88.4083 91.6925 89.4088 91.0256 90.4463 90.5809C91.5208 90.1363 92.7806 89.8769 93.744 90.5068C94.5592 91.0256 94.8926 92.026 95.5226 92.7671C96.9306 94.4715 99.5984 94.6568 101.636 93.8416C103.711 93.0264 105.379 91.4702 107.12 90.0992C107.824 89.5434 108.565 89.0247 109.418 88.8394C110.27 88.6542 111.307 88.9506 111.715 89.7287" stroke="#31B92E" stroke-width="0.223741" stroke-miterlimit="10"/>
<path d="M107.529 82.2812C107.047 83.5781 106.417 84.7638 105.565 85.8383C104.565 87.1352 103.119 88.3209 101.452 88.2468C99.7106 88.1727 98.2655 86.5053 98.1914 84.7638C98.1543 84.0227 98.3396 83.3187 98.4878 82.6147C98.7101 81.3919 98.8583 80.095 98.8583 78.8352C98.8583 77.4272 98.7101 75.9821 97.969 74.7964C97.228 73.6107 95.7459 72.7585 94.4119 73.1661" stroke="#31B92E" stroke-width="0.223741" stroke-miterlimit="10"/>
<path d="M89.7793 74.1663C90.5574 75.5002 91.3355 76.8712 91.632 78.3904C91.9284 79.9096 91.632 81.614 90.4833 82.6515C88.89 84.1337 86.2592 83.8372 84.5548 85.1711C83.295 86.1716 82.8133 88.0242 83.4061 89.5064C83.999 90.9885 85.6664 91.9519 87.2597 91.8037C88.4083 91.6925 89.4088 91.0256 90.4463 90.5809C91.5208 90.1363 92.7806 89.8769 93.744 90.5068C94.5592 91.0256 94.8926 92.026 95.5226 92.7671C96.9306 94.4715 99.5984 94.6568 101.636 93.8416C103.711 93.0264 105.379 91.4702 107.12 90.0992C107.824 89.5434 108.565 89.0247 109.418 88.8394C110.27 88.6542 111.307 88.9506 111.715 89.7287" stroke="#31B92E" stroke-width="0.442899" stroke-miterlimit="10"/>
<path d="M107.529 82.2812C107.047 83.5781 106.417 84.7638 105.565 85.8383C104.565 87.1352 103.119 88.3209 101.452 88.2468C99.7106 88.1727 98.2655 86.5053 98.1914 84.7638C98.1543 84.0227 98.3396 83.3187 98.4878 82.6147C98.7101 81.3919 98.8583 80.095 98.8583 78.8352C98.8583 77.4272 98.7101 75.9821 97.969 74.7964C97.228 73.6107 95.7459 72.7585 94.4119 73.1661" stroke="#31B92E" stroke-width="0.442899" stroke-miterlimit="10"/>
</g>
<mask id="mask10_468_951" style="mask-type:alpha" maskUnits="userSpaceOnUse" x="46" y="74" width="23" height="32">
<path d="M63.9176 105.329L46.0949 101.66L50.1708 81.7627C51.1712 76.8346 55.9882 73.6851 60.9163 74.6855C65.8443 75.6859 68.9939 80.5029 67.9934 85.431L63.9176 105.329Z" fill="#31B92E"/>
</mask>
<g mask="url(#mask10_468_951)">
<path d="M51.8743 74.6854C52.0595 77.0939 54.2086 78.8354 56.1354 80.2805C58.0622 81.7626 60.1372 83.6523 60.026 86.0608C59.9519 88.0246 58.2104 89.8032 56.2466 89.8773C55.5055 89.9143 54.8015 89.7291 54.0604 89.8773C52.5412 90.1737 51.652 91.767 51.2444 93.2491C50.8368 94.7313 50.6886 96.3616 49.7622 97.5844C48.2801 99.6223 44.9453 99.8076 43.2038 98.029" stroke="#31B92E" stroke-width="0.442899" stroke-miterlimit="10"/>
<path d="M48.4289 81.1326C49.6887 81.9107 50.9856 82.763 51.7637 84.0598C52.5048 85.3567 52.5048 87.2094 51.3561 88.1357C49.7999 89.3955 47.132 88.4321 45.7981 89.9143" stroke="#31B92E" stroke-width="0.442899" stroke-miterlimit="10"/>
<path d="M78.8451 79.5419C79.1413 80.9413 78.9562 82.4483 78.3266 83.74C78.0304 84.3141 77.623 84.8523 77.0305 85.1393C75.7714 85.6775 74.2901 84.7088 72.9569 85.0676C71.3275 85.534 70.8831 87.6869 69.4389 88.5839C68.9204 88.9068 68.2538 89.0503 67.6243 88.9427C65.7727 88.6557 64.8098 86.5028 64.8839 84.6729C64.958 82.843 65.7356 81.0848 65.8097 79.2549C65.8838 77.4249 64.958 75.2721 63.0693 74.985" stroke="#31B92E" stroke-width="0.442899" stroke-miterlimit="10"/>
</g>
<mask id="mask11_468_951" style="mask-type:alpha" maskUnits="userSpaceOnUse" x="57" y="73" width="43" height="49">
<path d="M79.7376 73.9813L59.4695 74.7224C58.0985 75.2782 57.3575 76.7974 57.8021 78.2054L64.4717 118.371C64.7681 120.076 66.2502 121.335 67.9917 121.335H92.1875C94.0773 121.335 95.6335 119.89 95.7446 118.001C96.3004 108.997 97.9308 84.3563 99.7093 76.8715C100.043 75.3894 99.3388 73.9072 97.8938 73.3885L79.7376 73.9813Z" fill="#31B92E"/>
</mask>
<g mask="url(#mask11_468_951)">
<path d="M89.7793 74.1663C90.5574 75.5002 91.3355 76.8712 91.632 78.3904C91.9284 79.9096 91.632 81.614 90.4833 82.6515C88.89 84.1337 86.2592 83.8372 84.5548 85.1711C83.295 86.1716 82.8133 88.0243 83.4061 89.5064C83.999 90.9885 85.6664 91.9519 87.2597 91.8037C88.4083 91.6925 89.4088 91.0256 90.4463 90.5809C91.5208 90.1363 92.7806 89.8769 93.744 90.5068C94.5592 91.0256 94.8926 92.026 95.5226 92.7671C96.9306 94.4715 99.5984 94.6568 101.636 93.8416C103.711 93.0264 105.379 91.4702 107.12 90.0992C107.824 89.5434 108.565 89.0247 109.418 88.8394C110.27 88.6542 111.307 88.9506 111.715 89.7287" stroke="#31B92E" stroke-width="0.442899" stroke-miterlimit="10"/>
<path d="M80.5034 83.2998C80.7742 84.5894 80.605 85.9782 80.0297 87.1686C79.759 87.6977 79.3867 88.1937 78.8453 88.4582C77.6947 88.9542 76.3411 88.0614 75.1229 88.3921C73.634 88.822 73.2279 90.806 71.9081 91.6326C71.4344 91.9302 70.8252 92.0625 70.25 91.9633C68.558 91.6988 67.6781 89.7148 67.7458 88.0283C67.8135 86.3419 68.5241 84.7217 68.5918 83.0353C68.6595 81.3489 67.8135 79.3649 66.0877 79.1003" stroke="#31B92E" stroke-width="0.442899" stroke-miterlimit="10"/>
<path d="M74.8477 77.3528C74.7365 78.4273 73.9213 79.3907 72.8468 79.6501C71.8093 79.9095 70.6236 79.4648 69.9937 78.5385C68.9562 76.9823 69.7343 74.5738 68.4004 73.2399" stroke="#31B92E" stroke-width="0.442899" stroke-miterlimit="10"/>
</g>
<path d="M88.1127 65.4997C88.1127 66.9767 88.4495 68.1946 88.9159 68.1946C89.3564 68.1946 89.7192 66.9767 89.7192 65.4997C89.7192 64.0227 89.3824 62.8049 88.9159 62.8049C88.4495 62.8049 88.1127 63.9968 88.1127 65.4997Z" stroke="#F7B844" stroke-width="0.471735" stroke-miterlimit="10"/>
<path d="M86.9201 62.3904C86.9201 63.4009 87.7493 64.2301 88.7598 64.2301C89.7704 64.2301 90.5996 63.4009 90.5996 62.3904C90.5996 61.3798 89.7704 60.5506 88.7598 60.5506C87.7752 60.5506 86.9201 61.3798 86.9201 62.3904Z" stroke="#F7B844" stroke-width="0.346663" stroke-miterlimit="10"/>
<path d="M81.2864 71.177C79.9634 67.827 82.1083 66.9799 80.7853 63.6299C79.4623 60.2799 77.3173 61.127 75.9943 57.777C74.6713 54.4269 76.8162 53.5798 75.4932 50.2298C74.1702 46.8798 72.0252 47.7269 70.7022 44.3769C70.5404 43.9672 70.4313 43.6203 70.3462 43.2638L76.8775 40.6844C76.953 41.0168 77.0717 41.3878 77.2335 41.7975C78.5566 45.1475 80.7015 44.3004 82.0246 47.6504C83.3476 51.0004 81.2026 51.8475 82.5256 55.1975C83.8486 58.5476 85.9936 57.7004 87.3166 61.0504C88.6397 64.4005 86.4947 65.2476 87.8177 68.5976C89.1312 71.9235 91.2857 71.1005 92.6087 74.4505C93.9318 77.8005 92.2212 78.3367 93.0527 81.853C93.1853 82.33 94.1406 82.8442 93.6827 83.0251C93.2248 83.2059 92.3777 81.0609 91.8957 81.2513C91.4378 81.4321 92.2849 83.5771 91.8029 83.7675C91.3449 83.9483 90.4978 81.8033 90.0158 81.9937C89.5338 82.1841 90.405 84.3195 89.923 84.5099C89.4651 84.6907 88.618 82.5458 88.136 82.7361C87.678 82.917 86.8742 85.1846 86.621 84.7553C84.8591 81.6343 87.3858 80.4135 86.0628 77.0635C84.7398 73.7135 82.6189 74.5511 81.2864 71.177Z" fill="#051616"/>
<path d="M63.0806 47.5944V51.6885C63.0806 58.1148 68.289 63.2972 74.6893 63.2972H77.6433C84.0695 63.2972 89.252 58.0888 89.252 51.6885V47.5944C89.252 46.1951 89.0188 44.8736 88.5523 43.6298C88.06 42.2824 87.3085 41.0386 86.3757 39.9503C85.702 39.1729 84.9246 38.4992 84.0695 37.9291C83.7586 37.7218 83.4217 37.5145 83.1108 37.3591C81.5042 36.504 79.6126 36.0116 77.6433 36.0116H74.6893C68.289 35.9857 63.0806 41.1941 63.0806 47.5944Z" fill="#051616"/>
<path d="M70.0251 67.7024H83.8104C86.8162 67.7024 89.2778 65.2667 89.2778 62.235V42.9304H70.0251V67.7024Z" fill="#99492F"/>
<path d="M83.603 54.4612C83.603 54.4612 84.0953 52.8028 85.5205 52.6473C86.9456 52.4919 87.8267 53.6838 87.8267 53.6838C87.8267 53.6838 87.5675 55.1867 85.8573 55.394C84.1471 55.6013 83.603 54.4612 83.603 54.4612Z" fill="white"/>
<path d="M67.0202 29.2226C66.4761 29.2226 67.0202 30.2591 66.6575 30.6478C66.2947 31.0624 64.6104 29.4299 64.2217 29.8445C63.8589 30.2591 65.4914 31.8398 65.1286 32.2544C64.7658 32.669 63.0816 31.0365 62.6929 31.4511C62.3301 31.8657 63.9626 33.4463 63.5998 33.8609C63.237 34.2755 62.8225 33.1095 62.4338 33.5241C62.071 33.9387 62.4338 34.2237 62.382 34.7679C62.0451 38.3438 60.0757 38.266 60.0757 41.8419C60.0757 45.4437 62.382 45.4437 62.382 49.0455C62.382 52.6473 60.0757 52.6473 60.0757 56.2491C60.0757 59.8509 62.382 59.8509 62.382 63.4527C62.382 67.0545 60.0757 67.0545 60.0757 70.6563C60.0757 74.2581 62.382 74.2581 62.382 77.8599C62.382 81.4617 59.5834 81.6431 60.0757 85.219C60.1276 85.7113 61.7341 83.8974 62.2265 83.8974C62.7188 83.8974 62.7188 86.2036 63.2371 86.2036C63.7294 86.2036 63.7294 83.8974 64.2476 83.8974C64.74 83.8974 64.7399 86.2036 65.2582 86.2036C65.7764 86.2036 65.7505 83.8974 66.2688 83.8974C66.7611 83.8974 66.7611 86.2036 67.2793 86.2036C67.7717 86.2036 67.0721 85.4003 67.1239 84.8821C67.6162 81.3321 69.4301 81.4358 69.4301 77.834C69.4301 74.2322 67.1239 74.2322 67.1239 70.6304C67.1239 67.0286 69.4301 67.0286 69.4301 63.4268C69.4301 59.825 67.1239 59.825 67.1239 56.2232C67.1239 52.6214 69.4301 52.6214 69.4301 49.0196C69.4301 45.4178 67.1239 45.4178 67.1239 41.816C67.1239 38.2142 69.5596 38.1624 69.4301 34.5865C69.4301 34.1719 67.072 34.5606 66.9425 34.146C66.8129 33.7314 69.0414 33.1095 68.9378 32.6949C68.8341 32.2803 66.6057 32.954 66.4761 32.5394C66.3465 32.1248 68.575 31.5029 68.4713 31.0883C68.3677 30.6737 66.1392 31.3474 66.0097 30.9329C65.8801 30.5183 68.0567 30.2073 68.0308 29.8186C67.9531 28.8081 67.4348 29.2226 67.0202 29.2226Z" fill="#051616"/>
<path d="M70.0255 66.3289V73.5584C70.0255 77.5489 73.0054 80.7879 76.6331 80.7879C80.3126 80.7879 83.2407 77.5489 83.2407 73.5584V66.3289H70.0255Z" fill="#99492F"/>
<path d="M71.8138 67.7024L83.293 74.1286V67.7024H71.8138Z" fill="#723623"/>
<path d="M69.0925 61.8722H70.0513V54.6168H69.0925C67.5637 54.6168 66.3199 55.8606 66.3199 57.3894V59.0737C66.3199 60.6285 67.5637 61.8722 69.0925 61.8722Z" fill="#99492F"/>
<path d="M79.3022 54.4612C79.3022 54.4612 78.7581 52.8028 77.2033 52.6473C75.6486 52.4919 74.6639 53.6838 74.6639 53.6838C74.6639 53.6838 74.949 55.1867 76.8406 55.394C78.7063 55.5754 79.3022 54.4612 79.3022 54.4612Z" fill="white"/>
<path d="M75.3893 53.8134C75.3116 54.6685 75.9335 55.42 76.7886 55.5236C77.6437 55.6014 78.3952 54.9795 78.4988 54.1244C78.5765 53.2693 77.9547 52.5178 77.0996 52.4142C76.2704 52.3364 75.493 52.9842 75.3893 53.8134Z" fill="black"/>
<path d="M87.1272 53.8134C87.2049 54.6685 86.6348 55.42 85.8575 55.5236C85.0801 55.6014 84.3805 54.9795 84.3027 54.1244C84.225 53.2693 84.7951 52.5178 85.5724 52.4142C86.3498 52.3364 87.0754 52.9842 87.1272 53.8134Z" fill="black"/>
<path d="M83.603 54.4613C83.603 54.4613 84.0694 52.7511 85.5205 52.6475C86.9975 52.5438 87.8267 53.684 87.8267 53.684" stroke="black" stroke-width="0.102036" stroke-miterlimit="10" stroke-linecap="round" stroke-linejoin="round"/>
<path d="M76.8145 48.6567C76.8145 48.6567 75.3375 48.4754 74.3529 48.8122C73.7569 49.0195 73.5496 49.7191 74.1456 50.056C74.5083 50.2892 75.6744 50.4965 76.4259 50.5742C78.3434 50.8075 79.4058 50.2633 79.4058 49.771C79.4058 49.1491 77.8251 48.7345 76.8145 48.6567Z" fill="#051616"/>
<path d="M86.0384 48.6568C86.0384 48.6568 87.36 48.5014 88.2928 48.8641C88.837 49.0973 89.0183 49.797 88.4742 50.1079C88.1373 50.3152 87.0749 50.5225 86.4012 50.5743C84.6651 50.7557 83.6804 50.1597 83.6804 49.7192C83.6286 49.0973 85.1056 48.6827 86.0384 48.6568Z" fill="#051616"/>
<path d="M81.2978 55.8602L82.6452 57.1299C83.7595 58.3478 82.3861 58.5292 81.6606 58.4515L81.2201 58.3737" fill="#723623"/>
<path d="M67.7707 51.2481C67.7707 51.2481 67.7966 51.4036 67.8484 51.6627C68.0816 52.5697 68.8072 54.6945 70.0251 54.6426C71.5798 54.5908 72.2276 49.5639 73.0568 47.2058C73.9119 44.8478 77.3064 45.5475 81.6856 46.0916C84.8728 46.4544 87.3863 44.6664 88.5523 43.6299C89.0188 43.2154 89.252 42.9303 89.252 42.9303C89.1742 41.7384 88.6819 40.8314 88.06 40.1318C86.5571 38.3957 84.1472 37.9293 84.0695 37.9293L70.5433 40.08L67.7707 51.2481Z" fill="#051616"/>
<path d="M61.1898 34.9492C61.1898 38.5251 64.1179 41.4532 67.6938 41.4532C71.2956 41.4532 74.2236 38.5251 74.2236 34.9492C74.2236 31.3733 71.2956 28.4453 67.6938 28.4453C64.092 28.4453 61.1898 31.3474 61.1898 34.9492Z" fill="#051616"/>
<path d="M78.8608 60.9132C78.4462 62.0793 79.0681 63.349 80.2601 63.7376C81.4261 64.1522 82.6958 63.5303 83.0845 62.3384" fill="white"/>
<path d="M65.9308 62.6495C65.9308 63.66 66.76 64.4892 67.7706 64.4892C68.7812 64.4892 69.6104 63.66 69.6104 62.6495C69.6104 61.6389 68.7812 60.8097 67.7706 60.8097C66.7341 60.8097 65.9308 61.6389 65.9308 62.6495Z" stroke="#F7B844" stroke-width="0.346663" stroke-miterlimit="10"/>
<path d="M66.9677 65.4997C66.9677 66.9767 67.3046 68.1946 67.771 68.1946C68.2115 68.1946 68.5742 66.9767 68.5742 65.4997C68.5742 64.0227 68.2374 62.8049 67.771 62.8049C67.3046 62.8049 66.9677 63.9968 66.9677 65.4997Z" stroke="#F7B844" stroke-width="0.471735" stroke-miterlimit="10"/>
<path d="M79.3022 54.4613C79.3022 54.4613 78.8099 52.7511 77.2033 52.6475C75.5968 52.5438 74.6639 53.684 74.6639 53.684" stroke="black" stroke-width="0.107065" stroke-miterlimit="10" stroke-linecap="round" stroke-linejoin="round"/>
</g>
</g>
</svg>
