<svg width="57" height="56" viewBox="0 0 57 56" fill="none" xmlns="http://www.w3.org/2000/svg">
<path d="M35.1611 22.015L2.95117 25.4004L5.87183 53.1886L38.0818 49.8032L35.1611 22.015Z" fill="#1C4A45"/>
<path d="M34.6182 16.8136L2.4082 20.199L2.95474 25.3989L35.1647 22.0135L34.6182 16.8136Z" fill="#1C4A45"/>
<path d="M7.14021 17.9678C7.08884 17.4936 6.66596 17.1498 6.19171 17.2011C5.71746 17.2525 5.37363 17.6754 5.42501 18.1496C5.45662 18.4539 5.75303 21.2797 5.78465 21.584C5.83602 22.0583 6.2589 22.4021 6.73315 22.3507C7.2074 22.2993 7.55123 21.8765 7.49986 21.4022C7.47614 21.1611 7.16393 18.2129 7.14021 17.9678Z" fill="#DAE3DA"/>
<path d="M13.3375 17.3157C13.2861 16.8415 12.8632 16.4977 12.389 16.549C11.9147 16.6004 11.5709 17.0233 11.6223 17.4975C11.6539 17.8018 11.9503 20.6276 11.9819 20.9319C12.0333 21.4062 12.4562 21.75 12.9304 21.6986C13.4047 21.6472 13.7485 21.2244 13.6971 20.7501C13.6734 20.509 13.3612 17.5608 13.3375 17.3157Z" fill="#DAE3DA"/>
<path d="M19.5387 16.6636C19.4873 16.1894 19.0644 15.8456 18.5902 15.8969C18.1159 15.9483 17.7721 16.3712 17.8234 16.8454C17.8551 17.1497 18.1515 19.9755 18.1831 20.2798C18.2345 20.7541 18.6573 21.0979 19.1316 21.0465C19.6058 20.9951 19.9497 20.5723 19.8983 20.098C19.8746 19.8569 19.5624 16.9087 19.5387 16.6636Z" fill="#DAE3DA"/>
<path d="M25.7398 16.0115C25.6884 15.5373 25.2656 15.1935 24.7913 15.2448C24.3171 15.2962 23.9732 15.7191 24.0246 16.1933C24.0562 16.4976 24.3526 19.3234 24.3843 19.6277C24.4356 20.102 24.8585 20.4458 25.3328 20.3944C25.807 20.343 26.1508 19.9202 26.0995 19.4459C26.0758 19.2048 25.7635 16.2566 25.7398 16.0115Z" fill="#DAE3DA"/>
<path d="M31.9351 15.3633C31.8838 14.8891 31.4609 14.5453 30.9866 14.5966C30.5124 14.648 30.1686 15.0709 30.2199 15.5451C30.2515 15.8495 30.548 18.6752 30.5796 18.9795C30.6309 19.4538 31.0538 19.7976 31.5281 19.7462C32.0023 19.6948 32.3462 19.272 32.2948 18.7977C32.2711 18.5566 31.9589 15.6084 31.9351 15.3633Z" fill="#DAE3DA"/>
<path d="M38.9429 48.9247L6.73332 52.3116L2.95117 25.4018L35.1607 22.0149L38.9429 48.9247Z" fill="#D9FACC"/>
<path d="M28.6634 29.4053L12.7167 31.0849L12.0527 26.3463L27.9955 24.6707L28.6634 29.4053Z" fill="#96D786"/>
<path d="M10.8942 37.4833L6.63388 37.9299L6.03711 33.6893L10.2975 33.2388L10.8942 37.4833Z" fill="#96D786"/>
<path d="M16.9332 36.847L12.6768 37.2936L12.0801 33.053L16.3365 32.6064L16.9332 36.847Z" fill="#96D786"/>
<path d="M11.6969 43.206L7.44052 43.6526L6.84375 39.412L11.1002 38.9614L11.6969 43.206Z" fill="#36B92E"/>
<path d="M12.5036 48.9286L8.24325 49.3752L7.64648 45.1346L11.9068 44.6841L12.5036 48.9286Z" fill="#36B92E"/>
<path d="M17.7399 42.5697L13.4796 43.0163L12.8828 38.7757L17.1432 38.3291L17.7399 42.5697Z" fill="#36B92E"/>
<path opacity="0.2" d="M17.7399 42.5697L13.4796 43.0163L12.8828 38.7757L17.1432 38.3291L17.7399 42.5697Z" fill="#96D786"/>
<path d="M23.779 41.9374L19.5225 42.384L18.9258 38.1395L23.1822 37.6929L23.779 41.9374Z" fill="#36B92E"/>
<path opacity="0.2" d="M23.779 41.9374L19.5225 42.384L18.9258 38.1395L23.1822 37.6929L23.779 41.9374Z" fill="#96D786"/>
<path d="M29.822 41.3012L25.5616 41.7478L24.9648 37.5072L29.2252 37.0566L29.822 41.3012Z" fill="#36B92E"/>
<path opacity="0.2" d="M29.822 41.3012L25.5616 41.7478L24.9648 37.5072L29.2252 37.0566L29.822 41.3012Z" fill="#96D786"/>
<path d="M35.861 40.6649L31.6046 41.1154L31.0078 36.8709L35.2642 36.4243L35.861 40.6649Z" fill="#36B92E"/>
<path opacity="0.2" d="M35.861 40.6649L31.6046 41.1154L31.0078 36.8709L35.2642 36.4243L35.861 40.6649Z" fill="#96D786"/>
<path d="M18.5426 48.2924L14.2862 48.7429L13.6895 44.4983L17.9459 44.0518L18.5426 48.2924Z" fill="#36B92E"/>
<path opacity="0.2" d="M18.5426 48.2924L14.2862 48.7429L13.6895 44.4983L17.9459 44.0518L18.5426 48.2924Z" fill="#96D786"/>
<path d="M24.5856 47.6601L20.3253 48.1067L19.7285 43.8621L23.9889 43.4155L24.5856 47.6601Z" fill="#36B92E"/>
<path opacity="0.2" d="M24.5856 47.6601L20.3253 48.1067L19.7285 43.8621L23.9889 43.4155L24.5856 47.6601Z" fill="#96D786"/>
<path d="M30.6247 47.0238L26.3683 47.4704L25.7715 43.2298L30.0279 42.7793L30.6247 47.0238Z" fill="#36B92E"/>
<path opacity="0.2" d="M30.6247 47.0238L26.3683 47.4704L25.7715 43.2298L30.0279 42.7793L30.6247 47.0238Z" fill="#96D786"/>
<path d="M22.9763 36.2148L18.7159 36.6613L18.1191 32.4168L22.3795 31.9702L22.9763 36.2148Z" fill="#36B92E"/>
<path opacity="0.2" d="M22.9763 36.2148L18.7159 36.6613L18.1191 32.4168L22.3795 31.9702L22.9763 36.2148Z" fill="#96D786"/>
<path d="M29.0153 35.5785L24.7589 36.0251L24.1621 31.7845L28.4185 31.334L29.0153 35.5785Z" fill="#36B92E"/>
<path opacity="0.2" d="M29.0153 35.5785L24.7589 36.0251L24.1621 31.7845L28.4185 31.334L29.0153 35.5785Z" fill="#96D786"/>
<path d="M35.0583 34.9423L30.7979 35.3888L30.2012 31.1482L34.4615 30.7017L35.0583 34.9423Z" fill="#36B92E"/>
<path opacity="0.2" d="M35.0583 34.9423L30.7979 35.3888L30.2012 31.1482L34.4615 30.7017L35.0583 34.9423Z" fill="#96D786"/>
<path d="M36.6657 46.3876L32.4054 46.8381L31.8086 42.5936L36.0689 42.147L36.6657 46.3876Z" fill="#96D786"/>
<path d="M40.1012 14.6396C40.2 15.0585 39.9431 15.4774 39.5281 15.5762C39.1092 15.675 38.6903 15.4181 38.5915 15.0032C38.5677 14.9044 38.4729 14.5092 38.3583 14.0349L34.4141 14.9834C34.5327 15.4695 34.6275 15.8726 34.6473 15.9517C34.7461 16.3706 34.4892 16.7895 34.0742 16.8883C33.6553 16.9871 33.2364 16.7302 33.1376 16.3153C33.1139 16.2165 33.019 15.8213 32.9044 15.347L28.9602 16.2955C29.0788 16.7816 29.1736 17.1847 29.1934 17.2638C29.2922 17.6827 29.0353 18.1016 28.6203 18.2004C28.2014 18.2992 27.7825 18.0423 27.6837 17.6274C27.66 17.5286 27.5651 17.1334 27.4505 16.6591L23.5063 17.6076C23.6249 18.0937 23.7197 18.4968 23.7395 18.5759C23.8383 18.9948 23.5814 19.4137 23.1664 19.5125C22.7475 19.6113 22.3286 19.3544 22.2298 18.9395C22.2061 18.8407 22.1112 18.4454 21.9966 17.9712L18.0524 18.9197C18.171 19.4058 18.2658 19.8089 18.2856 19.888C18.3844 20.3069 18.1275 20.7258 17.7126 20.8246C17.2936 20.9234 16.8747 20.6665 16.7759 20.2516C16.7522 20.1528 16.6573 19.7575 16.5427 19.2833L14.0371 19.884L20.2458 45.703L48.5863 38.8857L42.3776 13.0667L39.8719 13.6674C39.9905 14.1535 40.0854 14.5566 40.1051 14.6356L40.1012 14.6396Z" fill="#36B92E"/>
<path d="M36.7245 18.355L22.6953 21.7283L23.7006 25.909L37.7298 22.5357L36.7245 18.355Z" fill="#96D786"/>
<path d="M21.7387 28.1333L17.9922 29.0342L18.893 32.7807L22.6395 31.8798L21.7387 28.1333Z" fill="#96D786"/>
<path d="M27.0551 26.855L23.3086 27.7559L24.2094 31.5024L27.9559 30.6015L27.0551 26.855Z" fill="#36B92E"/>
<path d="M32.3715 25.5765L28.625 26.4773L29.5258 30.2238L33.2723 29.323L32.3715 25.5765Z" fill="#36B92E"/>
<path d="M37.6879 24.2981L33.9414 25.199L34.8422 28.9455L38.5888 28.0446L37.6879 24.2981Z" fill="#36B92E"/>
<path d="M43.0043 23.0235L39.2578 23.9243L40.1587 27.6708L43.9052 26.77L43.0043 23.0235Z" fill="#36B92E"/>
<path d="M22.9555 33.1873L19.209 34.0881L20.1098 37.8346L23.8563 36.9338L22.9555 33.1873Z" fill="#D9FACC"/>
<path d="M28.2699 31.9087L24.5234 32.8096L25.4243 36.5561L29.1708 35.6552L28.2699 31.9087Z" fill="#36B92E"/>
<path d="M33.5864 30.6304L29.8398 31.5312L30.7407 35.2778L34.4872 34.3769L33.5864 30.6304Z" fill="#36B92E"/>
<path d="M38.9028 29.3521L35.1562 30.2529L36.0571 33.9994L39.8036 33.0986L38.9028 29.3521Z" fill="#36B92E"/>
<path d="M44.2133 28.0738L40.4668 28.9746L41.3676 32.7211L45.1141 31.8203L44.2133 28.0738Z" fill="#36B92E"/>
<path d="M24.1703 38.2403L20.4238 39.1411L21.3247 42.8876L25.0712 41.9868L24.1703 38.2403Z" fill="#D9FACC"/>
<path d="M29.4867 36.9659L25.7402 37.8667L26.6411 41.6132L30.3876 40.7124L29.4867 36.9659Z" fill="#36B92E"/>
<path d="M34.8012 35.6834L31.0547 36.5842L31.9555 40.3307L35.702 39.4299L34.8012 35.6834Z" fill="#36B92E"/>
<path d="M27.0571 26.8548L23.3105 27.7556L24.2114 31.5021L27.9579 30.6013L27.0571 26.8548Z" fill="#D9FACC"/>
<path opacity="0.8" d="M32.3735 25.5765L28.627 26.4773L29.5278 30.2238L33.2743 29.323L32.3735 25.5765Z" fill="#D9FACC"/>
<path opacity="0.4" d="M37.8656 24.2666L34.1191 25.1675L35.02 28.914L38.7665 28.0131L37.8656 24.2666Z" fill="#D9FACC"/>
<path opacity="0.3" d="M43.0043 23.0235L39.2578 23.9243L40.1587 27.6708L43.9052 26.77L43.0043 23.0235Z" fill="#D9FACC"/>
<path d="M28.2719 31.9087L24.5254 32.8096L25.4262 36.5561L29.1727 35.6552L28.2719 31.9087Z" fill="#D9FACC"/>
<path d="M33.5883 30.6304L29.8418 31.5312L30.7426 35.2778L34.4891 34.3769L33.5883 30.6304Z" fill="#D9FACC"/>
<path d="M38.9047 29.3518L35.1582 30.2527L36.059 33.9992L39.8056 33.0984L38.9047 29.3518Z" fill="#D9FACC"/>
<path opacity="0.3" d="M44.2153 28.0735L40.4688 28.9744L41.3696 32.7209L45.1161 31.82L44.2153 28.0735Z" fill="#D9FACC"/>
<path d="M29.4867 36.9656L25.7402 37.8665L26.6411 41.613L30.3876 40.7121L29.4867 36.9656Z" fill="#D9FACC"/>
<path d="M34.8031 35.6834L31.0566 36.5842L31.9575 40.3307L35.704 39.4299L34.8031 35.6834Z" fill="#D9FACC"/>
<path opacity="0.4" d="M40.1176 34.409L36.3711 35.3098L37.2719 39.0563L41.0184 38.1555L40.1176 34.409Z" fill="#D9FACC"/>
<path opacity="0.3" d="M45.434 33.1267L41.6875 34.0276L42.5883 37.7741L46.3348 36.8733L45.434 33.1267Z" fill="#D9FACC"/>
<path d="M14.0332 19.884L19.5266 46.7108L48.5824 38.8896L20.2419 45.707L14.0332 19.884Z" fill="#1C4A45"/>
<path d="M39.9317 4.19085C40.1491 4.56234 40.0266 5.03659 39.6551 5.25396C39.2836 5.47132 38.8093 5.34881 38.592 4.97731C38.5406 4.89037 38.3351 4.53863 38.09 4.11971L34.5924 6.17084C34.8454 6.60162 35.0548 6.95731 35.0944 7.02845C35.3117 7.39995 35.1892 7.8742 34.8177 8.09156C34.4462 8.30893 33.972 8.18641 33.7546 7.81492C33.7032 7.72797 33.4977 7.37623 33.2527 6.95731L29.7551 9.00845C30.008 9.43922 30.2175 9.79491 30.257 9.86605C30.4744 10.2375 30.3519 10.7118 29.9804 10.9292C29.6089 11.1465 29.1346 11.024 28.9172 10.6525C28.8659 10.5656 28.6604 10.2138 28.4153 9.79491L24.9177 11.846C25.1707 12.2768 25.3801 12.6325 25.4196 12.7037C25.637 13.0751 25.5145 13.5494 25.143 13.7668C24.7715 13.9841 24.2972 13.8616 24.0799 13.4901C24.0285 13.4032 23.823 13.0514 23.578 12.6325L20.0804 14.6837C20.3333 15.1144 20.5428 15.4701 20.5823 15.5413C20.7996 15.9128 20.6771 16.387 20.3056 16.6044C19.9341 16.8217 19.4599 16.6992 19.2425 16.3277C19.1911 16.2408 18.9856 15.889 18.7406 15.4701L16.5195 16.7743L29.9566 39.6806L55.0999 24.9314L41.6509 2.02905L39.4298 3.33324C39.6827 3.76402 39.8922 4.11971 39.9317 4.19085Z" fill="#36B92E"/>
<path d="M37.7793 8.71817L25.334 16.0198L27.5119 19.7319L39.9572 12.4303L37.7793 8.71817Z" fill="#96D786"/>
<path d="M26.2786 22.4293L22.9551 24.3792L24.905 27.7027L28.2285 25.7528L26.2786 22.4293Z" fill="#96D786"/>
<path d="M30.9934 19.6609L27.6699 21.6108L29.6198 24.9344L32.9433 22.9845L30.9934 19.6609Z" fill="#D9FACC"/>
<path d="M35.7063 16.8968L32.3828 18.8467L34.3327 22.1702L37.6562 20.2203L35.7063 16.8968Z" fill="#36B92E"/>
<path d="M40.4251 14.1265L37.1016 16.0764L39.0515 19.3999L42.375 17.45L40.4251 14.1265Z" fill="#36B92E"/>
<path d="M45.1399 11.3621L41.8164 13.312L43.7663 16.6355L47.0898 14.6856L45.1399 11.3621Z" fill="#36B92E"/>
<path d="M28.9095 26.9112L25.5859 28.8611L27.5358 32.1846L30.8593 30.2347L28.9095 26.9112Z" fill="#D9FACC"/>
<path d="M33.6243 24.1463L30.3008 26.0962L32.2507 29.4197L35.5742 27.4698L33.6243 24.1463Z" fill="#36B92E"/>
<path d="M38.3391 21.3821L35.0156 23.332L36.9655 26.6555L40.289 24.7057L38.3391 21.3821Z" fill="#36B92E"/>
<path d="M43.052 18.6138L39.7285 20.5637L41.6784 23.8872L45.0019 21.9373L43.052 18.6138Z" fill="#36B92E"/>
<path d="M47.7708 15.8455L44.4473 17.7954L46.3972 21.1189L49.7207 19.169L47.7708 15.8455Z" fill="#36B92E"/>
<path d="M31.5403 31.3946L28.2168 33.3445L30.1667 36.668L33.4902 34.7181L31.5403 31.3946Z" fill="#D9FACC"/>
<path d="M36.2532 28.6304L32.9297 30.5803L34.8796 33.9038L38.2031 31.9539L36.2532 28.6304Z" fill="#36B92E"/>
<path d="M40.968 25.8621L37.6445 27.812L39.5944 31.1355L42.9179 29.1856L40.968 25.8621Z" fill="#36B92E"/>
<path opacity="0.4" d="M35.7063 16.8965L32.3828 18.8464L34.3327 22.17L37.6562 20.2201L35.7063 16.8965Z" fill="#D9FACC"/>
<path opacity="0.4" d="M40.4251 14.1263L37.1016 16.0762L39.0515 19.3997L42.375 17.4498L40.4251 14.1263Z" fill="#D9FACC"/>
<path opacity="0.3" d="M45.1399 11.3619L41.8164 13.3118L43.7663 16.6353L47.0898 14.6854L45.1399 11.3619Z" fill="#D9FACC"/>
<path d="M33.6243 24.1463L30.3008 26.0962L32.2507 29.4197L35.5742 27.4698L33.6243 24.1463Z" fill="#D9FACC"/>
<path d="M38.3391 21.3819L35.0156 23.3318L36.9655 26.6553L40.289 24.7054L38.3391 21.3819Z" fill="#D9FACC"/>
<path d="M43.052 18.6136L39.7285 20.5635L41.6784 23.887L45.0019 21.9371L43.052 18.6136Z" fill="#D9FACC"/>
<path opacity="0.3" d="M47.7708 15.8455L44.4473 17.7954L46.3972 21.1189L49.7207 19.169L47.7708 15.8455Z" fill="#D9FACC"/>
<path d="M36.2532 28.6302L32.9297 30.5801L34.8796 33.9036L38.2031 31.9537L36.2532 28.6302Z" fill="#D9FACC"/>
<path opacity="0.4" d="M40.968 25.8621L37.6445 27.812L39.5944 31.1355L42.9179 29.1856L40.968 25.8621Z" fill="#D9FACC"/>
<path opacity="0.4" d="M45.6868 23.0958L42.3633 25.0457L44.3132 28.3692L47.6367 26.4193L45.6868 23.0958Z" fill="#D9FACC"/>
<path opacity="0.3" d="M50.3997 20.3274L47.0762 22.2773L49.0261 25.6009L52.3496 23.651L50.3997 20.3274Z" fill="#D9FACC"/>
<path d="M16.4805 16.7942L29.5224 40.8703L55.0608 24.9513L29.9176 39.7005L16.4805 16.7942Z" fill="#1C4A45"/>
</svg>
