<svg width="120" height="68" viewBox="0 0 120 68" fill="none" xmlns="http://www.w3.org/2000/svg">
<path d="M54.7832 66.5438C54.7832 66.5438 57.0305 67.8738 58.8424 66.8188C60.6542 65.7638 61.9256 64.9688 61.9256 64.9688L57.9214 62.6338L54.7832 66.5438Z" fill="#FAB29A"/>
<path d="M54.7832 66.5438C54.7832 66.5438 57.0305 67.8738 58.8424 66.8188C60.6542 65.7638 61.9256 64.9688 61.9256 64.9688L57.9214 62.6338L54.7832 66.5438Z" fill="#98492F"/>
<path d="M85.083 52.2092C84.2471 53.4392 82.5153 54.7092 79.0017 52.7642C79.7028 53.9101 79.9358 55.2814 79.6524 56.5942C79.5987 56.8235 79.525 57.0477 79.4322 57.2642L79.4071 57.3092C78.3661 59.6942 75.1477 59.8742 74.2618 59.5792C74.4361 60.0285 74.4976 60.5136 74.4409 60.9921C74.3842 61.4706 74.211 61.928 73.9365 62.3242C73.8206 62.5125 73.69 62.6913 73.5461 62.8592C73.0458 63.4345 72.3863 63.8492 71.6507 64.0511C70.9151 64.2531 70.1362 64.2333 69.4118 63.9942C68.9389 63.8116 68.4954 63.5606 68.0955 63.2492C67.9944 63.9155 67.739 64.5489 67.3497 65.0992C67.1028 65.4471 66.7744 65.7293 66.3931 65.9211C66.0118 66.1128 65.5893 66.2083 65.1625 66.1992C63.5375 66.1897 61.9457 65.7386 60.5577 64.8942C60.2074 64.7092 59.847 64.4992 59.4716 64.2792C58.9711 63.9892 58.4706 63.6742 57.92 63.3342C55.027 61.5792 43.7454 56.0142 43.7454 56.0142C43.7454 56.0142 41.6633 54.2892 39.2808 52.3692C37.2287 50.7042 34.9564 48.8692 33.615 47.9042L31.3727 46.8292L24.8159 43.6942L21.7378 42.1942L12.8887 38.0142L25.0512 20.6592L31.0574 23.2742L38.5651 26.5492L43.0247 28.4992L53.2002 26.1442L55.6377 25.5742L63.7961 30.7392L83.9618 43.5142L84.7676 46.7492L85.5635 48.5292C85.652 48.7264 85.703 48.9383 85.7136 49.1542V49.1992C85.7487 49.8792 85.7036 51.2992 85.083 52.2092Z" fill="#98492F"/>
<g style="mix-blend-mode:multiply" opacity="0.5">
<path d="M79.6594 56.604C77.5422 55.104 73.9786 52.694 72.1517 51.449C69.1736 49.409 69.544 46.834 69.544 46.834L78.9987 52.764C79.7058 53.9112 79.9425 55.2868 79.6594 56.604Z" fill="#875C50"/>
</g>
<g style="mix-blend-mode:multiply" opacity="0.5">
<path d="M73.9534 62.3388L68.4478 58.6338C66.1704 57.0888 66.0703 54.1338 66.0703 54.1338L74.2537 59.6338C74.4248 60.0756 74.4868 60.5521 74.4345 61.023C74.3822 61.4938 74.2172 61.9451 73.9534 62.3388Z" fill="#875C50"/>
</g>
<g style="mix-blend-mode:multiply" opacity="0.5">
<path d="M68.102 63.2638C68.0009 63.93 67.7455 64.5635 67.3562 65.1138C65.8367 64.2345 64.3663 63.2731 62.9517 62.2338C60.9496 60.6938 61.0697 59.0938 61.0697 59.0938L68.102 63.2638Z" fill="#875C50"/>
</g>
<path d="M114.323 33.4587L97.3406 39.6687L90.4385 42.1687L90.2884 42.3387C89.097 43.6478 87.7527 44.8095 86.2843 45.7987C85.3983 46.4037 84.7827 46.7437 84.7827 46.7437L84.2822 46.1287C83.8012 45.511 83.2087 44.9887 82.5354 44.5887L79.6574 42.8637L74.2018 39.5937L73.2008 38.9837L72.5501 38.5937L60.9882 31.6887C60.564 31.4361 60.0601 31.3522 59.5768 31.4537C59.4971 31.4707 59.4186 31.4924 59.3415 31.5187L56.0131 32.6637L55.8229 32.7337C55.7576 32.7535 55.694 32.7785 55.6327 32.8087C55.422 32.9075 55.2305 33.043 55.0671 33.2087C54.9693 33.3077 54.8821 33.4166 54.8069 33.5337C52.2592 37.5337 49.6065 38.8087 47.6145 39.0337C47.377 39.0628 47.138 39.0779 46.8987 39.0787C46.4425 39.0829 45.9873 39.0343 45.5423 38.9337C45.3496 38.8882 45.1689 38.8017 45.0127 38.68C44.8565 38.5584 44.7284 38.4045 44.6371 38.2289C44.5459 38.0532 44.4937 37.86 44.484 37.6624C44.4744 37.4647 44.5076 37.2673 44.5813 37.0837L48.2001 29.1837C48.5132 28.3922 49.0965 27.7368 49.8468 27.3337L59.6569 22.0337C60.2975 21.6852 61.0281 21.5372 61.754 21.6087L78.7115 23.3137L83.9619 21.3887L90.8289 18.8537L106.655 13.0137L113.102 30.2037L114.323 33.4587Z" fill="#723623"/>
<g style="mix-blend-mode:multiply" opacity="0.2">
<path fill-rule="evenodd" clip-rule="evenodd" d="M48.9102 38.7507C49.9087 38.4269 51.0084 37.824 52.1406 36.7916C52.9572 36.0468 53.7907 35.0785 54.6153 33.8303C54.6795 33.7331 54.7436 33.6343 54.8076 33.5337C54.8828 33.4166 54.9701 33.3077 55.0679 33.2087C55.2312 33.043 55.4227 32.9075 55.6335 32.8087C55.6947 32.7785 55.7583 32.7535 55.8237 32.7337L56.0139 32.6637L59.3423 31.5187C59.4194 31.4924 59.4979 31.4707 59.5775 31.4537C60.0609 31.3522 60.5647 31.4361 60.989 31.6887L72.5509 38.5937L73.2016 38.9837L74.2026 39.5937L79.6582 42.8637L82.5362 44.5887C83.2095 44.9887 83.8019 45.511 84.283 46.1287L84.7835 46.7437C84.7835 46.7437 85.3991 46.4037 86.285 45.7987C87.3941 45.0515 88.4324 44.206 89.3875 43.2728C89.3945 43.266 89.4015 43.2592 89.4085 43.2523C89.7105 42.9564 90.0042 42.6518 90.2892 42.3387L90.4393 42.1687L97.3414 39.6687L113.072 33.9165L112.103 31.2087C99.59 35.4237 85.1652 40.3687 83.8739 41.1587C82.9045 41.7383 81.8484 42.1586 80.7456 42.4037C79.3893 41.5437 77.6625 40.4537 75.7705 39.2737C78.9238 36.7737 78.6485 32.7737 78.6485 32.7737C77.6775 35.8537 76.0858 37.5687 74.5543 38.5237C67.8824 34.3687 59.8692 29.5237 59.2785 29.4837C58.2775 29.4587 54.0782 30.8287 54.0782 30.8287C54.0782 30.8287 53.8179 35.0787 50.3594 37.7187C49.8904 38.0827 49.4069 38.427 48.9102 38.7507Z" fill="#723623"/>
</g>
<path d="M46.1283 34.9014L44.9662 37.4093C44.9168 37.5159 44.9723 37.6416 45.0843 37.6769C46.0581 37.984 47.1037 37.4868 47.4802 36.5377L48.1291 34.9014L47.8041 34.9629C47.248 35.0682 46.6752 35.0472 46.1283 34.9014Z" fill="#FFE0BC"/>
<path d="M37.4206 24.8191L27.05 47.4092L19.8676 44.1492L12.5801 40.8442L24.7926 18.7441L29.8679 21.1891L37.4206 24.8191Z" fill="#E1E1E1"/>
<g style="mix-blend-mode:multiply" opacity="0.5">
<path d="M60.5632 64.9088C59.7623 64.4788 58.9115 63.9488 57.9254 63.3488C55.0224 61.5788 43.7458 56.0138 43.7458 56.0138C43.7458 56.0138 41.6637 54.2888 39.2812 52.3638C40.3524 52.3988 42.4996 52.7838 44.7118 55.0138L47.6499 53.6188C47.6499 53.6188 50.8532 53.8838 52.0844 58.1188L55.0875 56.7688C55.7797 57.1571 56.3683 57.7059 56.8038 58.369C57.2393 59.032 57.509 59.7899 57.5901 60.5788C57.5901 60.5788 60.0226 61.4488 60.428 62.9738C60.6025 63.6032 60.6484 64.2612 60.5632 64.9088Z" fill="#875C50"/>
</g>
<path d="M41.5683 57.5538C41.0397 57.6154 40.5044 57.5234 40.0268 57.2888C38.2199 56.4538 36.5232 53.1788 37.8796 52.2188C37.8796 52.2188 38.6053 51.4888 40.4822 52.6188C41.3609 53.092 42.1261 53.7506 42.7245 54.5488C43.0039 54.9432 43.1763 55.4031 43.2251 55.8838C43.2801 56.6288 42.5944 57.4138 41.5683 57.5538Z" fill="#723623"/>
<g style="mix-blend-mode:multiply" opacity="0.5">
<path d="M41.5684 57.5537C41.8538 56.5181 42.2411 55.5132 42.7245 54.5537C43.0039 54.9481 43.1763 55.408 43.2251 55.8887C43.2801 56.6287 42.5944 57.4137 41.5684 57.5537Z" fill="#CC8A79"/>
</g>
<path d="M44.6075 61.874C44.2229 61.7881 43.8593 61.6265 43.5379 61.3988C43.2165 61.171 42.9438 60.8816 42.7355 60.5475C42.5272 60.2133 42.3877 59.841 42.325 59.4524C42.2622 59.0638 42.2776 58.6666 42.3702 58.284C42.6648 56.98 43.172 55.7334 43.8717 54.594C45.4733 52.094 50.1582 53.159 49.6877 57.334L47.8858 61.389C46.8671 61.8776 45.7242 62.0467 44.6075 61.874Z" fill="#723623"/>
<path d="M55.5729 60.0489L53.4007 64.5489C52.73 64.781 52.015 64.8566 51.3105 64.7699C50.6061 64.6833 49.9308 64.4366 49.3365 64.0489C49.2164 63.9623 49.1063 63.8773 49.0062 63.7939C47.5997 62.5989 47.89 61.3639 47.89 61.3639L49.6919 57.3089C49.6919 57.3089 50.9882 54.8339 53.2305 55.4089L53.3707 55.4439C55.7031 56.1839 56.1535 58.3389 55.5729 60.0489Z" fill="#723623"/>
<path d="M59.5987 62.5139C59.3635 63.6939 58.3725 66.7139 58.3725 66.7139C57.957 67.1039 57.2763 67.5339 55.4194 66.8589C55.0928 66.738 54.7858 66.5695 54.5085 66.3589C53.9214 65.9259 53.5249 65.2826 53.4023 64.5639L55.1792 60.8589C55.4659 60.5753 55.816 60.3638 56.2007 60.2421C56.5854 60.1204 56.9936 60.0919 57.3914 60.1589C58.7679 60.4339 59.7038 61.9739 59.5987 62.5139Z" fill="#723623"/>
<g style="mix-blend-mode:multiply" opacity="0.5">
<path d="M53.2305 55.4338C52.0128 56.399 51.0988 57.6938 50.5978 59.1638C49.9922 60.7638 49.4166 62.5138 49.0062 63.8188C47.5997 62.6238 47.89 61.3888 47.89 61.3888L49.6919 57.3338C49.6919 57.3338 50.9882 54.8588 53.2305 55.4338Z" fill="#CC8A79"/>
</g>
<g style="mix-blend-mode:multiply" opacity="0.5">
<path d="M57.3915 60.1587C56.6241 60.9099 56.055 61.8392 55.7347 62.8637C55.2342 64.1787 54.8138 65.4237 54.5085 66.3637C53.9214 65.9307 53.5249 65.2874 53.4023 64.5687L55.1792 60.8637C55.4654 60.5791 55.8153 60.3668 56.2 60.2442C56.5847 60.1216 56.9932 60.0923 57.3915 60.1587Z" fill="#CC8A79"/>
</g>
<path d="M108.748 38.304L101.691 40.714L93.7073 43.434L85.584 19.949L93.5372 17.034L98.7425 15.124L108.748 38.304Z" fill="#C1EBC0"/>
<path d="M123.006 1.48389V38.1839L103.391 47.2039L100.288 39.6689L99.3168 37.3139L97.8953 33.8589L95.618 28.3139L95.0374 26.9089L91.0182 17.1439L90.7229 16.4289L90.3125 15.4289L105.588 9.81389L123.006 1.48389Z" fill="#31B92E"/>
<path d="M33.171 19.4339L32.6655 20.3889L31.9548 21.7289L27.355 30.399L26.6443 31.744L22.1146 40.274L20.8884 42.589L17.0694 49.789L4.12111 42.234L1.06796 40.454L-0.673828 39.439V0.773926L18.5159 12.3639L33.171 19.4339Z" fill="#1C4A45"/>
<path d="M6.33295 39.6938C6.30653 40.2312 6.12112 40.7488 5.80017 41.1809C5.47923 41.6131 5.03719 41.9405 4.52996 42.1216C4.02274 42.3027 3.47313 42.3295 2.95067 42.1985C2.42821 42.0675 1.95638 41.7847 1.59488 41.3858C1.23337 40.9868 0.99844 40.4898 0.9198 39.9574C0.84116 39.4251 0.922348 38.8814 1.15309 38.3952C1.38384 37.9089 1.75377 37.502 2.21608 37.2258C2.67839 36.9497 3.21232 36.8167 3.7503 36.8438C4.47094 36.88 5.14773 37.2005 5.63198 37.7349C6.11623 38.2693 6.36835 38.9738 6.33295 39.6938Z" fill="#58CCB7"/>
</svg>
